<?xml version="1.0" encoding="UTF-8" standalone="no"?>
<!DOCTYPE svg PUBLIC "-//W3C//DTD SVG 1.1//EN"
 "http://www.w3.org/Graphics/SVG/1.1/DTD/svg11.dtd">
<!-- Generated by graphviz version 2.43.0 (0)
 -->
<!-- Title: FiftyOne.DeviceDetection.Hash.Engine.OnPremise.Data.ComponentMetaData Pages: 1 -->
<svg width="238pt" height="106pt"
 viewBox="0.00 0.00 237.50 106.00" xmlns="http://www.w3.org/2000/svg" xmlns:xlink="http://www.w3.org/1999/xlink">
<g id="graph0" class="graph" transform="scale(1 1) rotate(0) translate(4 102)">
<title>FiftyOne.DeviceDetection.Hash.Engine.OnPremise.Data.ComponentMetaData</title>
<!-- Node0 -->
<g id="node1" class="node">
<title>Node0</title>
<g id="a_node1"><a xlink:title="Data class that contains meta&#45;data relating to a specific component.">
<polygon fill="#bfbfbf" stroke="black" points="10.5,-0.5 10.5,-41.5 229.5,-41.5 229.5,-0.5 10.5,-0.5"/>
<text text-anchor="start" x="18.5" y="-29.5" font-family="Helvetica,sans-Serif" font-size="10.00">FiftyOne.DeviceDetection.</text>
<text text-anchor="start" x="18.5" y="-18.5" font-family="Helvetica,sans-Serif" font-size="10.00">Hash.Engine.OnPremise.Data.Component</text>
<text text-anchor="middle" x="120" y="-7.5" font-family="Helvetica,sans-Serif" font-size="10.00">MetaData</text>
</a>
</g>
</g>
<!-- Node1 -->
<g id="node2" class="node">
<title>Node1</title>
<g id="a_node2"><a xlink:title=" ">
<polygon fill="none" stroke="#bfbfbf" points="0,-78.5 0,-97.5 124,-97.5 124,-78.5 0,-78.5"/>
<text text-anchor="middle" x="62" y="-85.5" font-family="Helvetica,sans-Serif" font-size="10.00">IComponentMetaData</text>
</a>
</g>
</g>
<!-- Node1&#45;&gt;Node0 -->
<g id="edge1" class="edge">
<title>Node1&#45;&gt;Node0</title>
<path fill="none" stroke="midnightblue" d="M76.68,-70.54C84.56,-61.72 94.31,-50.79 102.56,-41.54"/>
<polygon fill="midnightblue" stroke="midnightblue" points="73.87,-68.44 69.82,-78.23 79.09,-73.1 73.87,-68.44"/>
</g>
<!-- Node2 -->
<g id="node3" class="node">
<title>Node2</title>
<g id="a_node3"><a xlink:title=" ">
<polygon fill="none" stroke="#bfbfbf" points="142,-78.5 142,-97.5 216,-97.5 216,-78.5 142,-78.5"/>
<text text-anchor="middle" x="179" y="-85.5" font-family="Helvetica,sans-Serif" font-size="10.00">IDisposable</text>
</a>
</g>
</g>
<!-- Node2&#45;&gt;Node0 -->
<g id="edge2" class="edge">
<title>Node2&#45;&gt;Node0</title>
<path fill="none" stroke="midnightblue" d="M164.31,-70.82C156.26,-61.95 146.22,-50.89 137.74,-41.54"/>
<polygon fill="midnightblue" stroke="midnightblue" points="161.73,-73.18 171.04,-78.23 166.91,-68.48 161.73,-73.18"/>
</g>
</g>
</svg>
