<?xml version="1.0" encoding="UTF-8" standalone="no"?>
<!DOCTYPE svg PUBLIC "-//W3C//DTD SVG 1.1//EN"
 "http://www.w3.org/Graphics/SVG/1.1/DTD/svg11.dtd">
<!-- Generated by graphviz version 2.43.0 (0)
 -->
<!-- Title: FiftyOne.DeviceDetection.Hash.Engine.OnPremise.Interop.MapStringStringSwig.MapStringStringSwigEnumerator Pages: 1 -->
<svg width="444pt" height="110pt"
 viewBox="0.00 0.00 444.00 110.00" xmlns="http://www.w3.org/2000/svg" xmlns:xlink="http://www.w3.org/1999/xlink">
<g id="graph0" class="graph" transform="scale(1 1) rotate(0) translate(4 106)">
<title>FiftyOne.DeviceDetection.Hash.Engine.OnPremise.Interop.MapStringStringSwig.MapStringStringSwigEnumerator</title>
<!-- Node3 -->
<g id="node1" class="node">
<title>Node3</title>
<g id="a_node1"><a xlink:title="Note that the IEnumerator documentation requires an InvalidOperationException to be thrown whenever t...">
<polygon fill="#bfbfbf" stroke="black" points="237,-30.5 237,-82.5 436,-82.5 436,-30.5 237,-30.5"/>
<text text-anchor="start" x="245" y="-70.5" font-family="Helvetica,sans-Serif" font-size="10.00">FiftyOne.DeviceDetection.</text>
<text text-anchor="start" x="245" y="-59.5" font-family="Helvetica,sans-Serif" font-size="10.00">Hash.Engine.OnPremise.Interop.</text>
<text text-anchor="start" x="245" y="-48.5" font-family="Helvetica,sans-Serif" font-size="10.00">MapStringStringSwig.MapStringString</text>
<text text-anchor="middle" x="336.5" y="-37.5" font-family="Helvetica,sans-Serif" font-size="10.00">SwigEnumerator</text>
</a>
</g>
</g>
<!-- Node4 -->
<g id="node2" class="node">
<title>Node4</title>
<g id="a_node2"><a xlink:title=" ">
<polygon fill="none" stroke="#bfbfbf" points="29,-71.5 29,-101.5 172,-101.5 172,-71.5 29,-71.5"/>
<text text-anchor="start" x="37" y="-89.5" font-family="Helvetica,sans-Serif" font-size="10.00">global::SystemCollections</text>
<text text-anchor="middle" x="100.5" y="-78.5" font-family="Helvetica,sans-Serif" font-size="10.00">::IEnumerator</text>
</a>
</g>
</g>
<!-- Node4&#45;&gt;Node3 -->
<g id="edge1" class="edge">
<title>Node4&#45;&gt;Node3</title>
<path fill="none" stroke="midnightblue" d="M182.19,-76.15C199.72,-73.91 218.46,-71.51 236.6,-69.18"/>
<polygon fill="midnightblue" stroke="midnightblue" points="181.5,-72.72 172.03,-77.46 182.39,-79.66 181.5,-72.72"/>
</g>
<!-- Node5 -->
<g id="node3" class="node">
<title>Node5</title>
<g id="a_node3"><a xlink:title=" ">
<polygon fill="none" stroke="#bfbfbf" points="0,-0.5 0,-52.5 201,-52.5 201,-0.5 0,-0.5"/>
<text text-anchor="start" x="8" y="-40.5" font-family="Helvetica,sans-Serif" font-size="10.00">global::SystemCollections</text>
<text text-anchor="start" x="8" y="-29.5" font-family="Helvetica,sans-Serif" font-size="10.00">::Generic::IEnumerator</text>
<text text-anchor="start" x="8" y="-18.5" font-family="Helvetica,sans-Serif" font-size="10.00">&lt; global::System.Collections.Generic.</text>
<text text-anchor="middle" x="100.5" y="-7.5" font-family="Helvetica,sans-Serif" font-size="10.00">KeyValuePair&lt; string, string &gt;&gt;</text>
</a>
</g>
</g>
<!-- Node5&#45;&gt;Node3 -->
<g id="edge2" class="edge">
<title>Node5&#45;&gt;Node3</title>
<path fill="none" stroke="midnightblue" d="M211.09,-40.55C219.66,-41.65 228.27,-42.75 236.76,-43.84"/>
<polygon fill="midnightblue" stroke="midnightblue" points="211.44,-37.07 201.08,-39.27 210.55,-44.01 211.44,-37.07"/>
</g>
</g>
</svg>
