<?xml version="1.0" encoding="UTF-8" standalone="no"?>
<!DOCTYPE svg PUBLIC "-//W3C//DTD SVG 1.1//EN"
 "http://www.w3.org/Graphics/SVG/1.1/DTD/svg11.dtd">
<!-- Generated by graphviz version 2.43.0 (0)
 -->
<!-- Title: FiftyOne.DeviceDetection.Hash.Engine.OnPremise.Interop.VectorStringSwig Pages: 1 -->
<svg width="364pt" height="127pt"
 viewBox="0.00 0.00 364.00 126.50" xmlns="http://www.w3.org/2000/svg" xmlns:xlink="http://www.w3.org/1999/xlink">
<g id="graph0" class="graph" transform="scale(1 1) rotate(0) translate(4 122.5)">
<title>FiftyOne.DeviceDetection.Hash.Engine.OnPremise.Interop.VectorStringSwig</title>
<!-- Node4 -->
<g id="node1" class="node">
<title>Node4</title>
<g id="a_node1"><a xlink:title=" ">
<polygon fill="#bfbfbf" stroke="black" points="182,-44 182,-85 356,-85 356,-44 182,-44"/>
<text text-anchor="start" x="190" y="-73" font-family="Helvetica,sans-Serif" font-size="10.00">FiftyOne.DeviceDetection.</text>
<text text-anchor="start" x="190" y="-62" font-family="Helvetica,sans-Serif" font-size="10.00">Hash.Engine.OnPremise.Interop.</text>
<text text-anchor="middle" x="269" y="-51" font-family="Helvetica,sans-Serif" font-size="10.00">VectorStringSwig</text>
</a>
</g>
</g>
<!-- Node5 -->
<g id="node2" class="node">
<title>Node5</title>
<g id="a_node2"><a xlink:title=" ">
<polygon fill="none" stroke="#bfbfbf" points="0,-99 0,-118 146,-118 146,-99 0,-99"/>
<text text-anchor="middle" x="73" y="-106" font-family="Helvetica,sans-Serif" font-size="10.00">global::SystemIDisposable</text>
</a>
</g>
</g>
<!-- Node5&#45;&gt;Node4 -->
<g id="edge1" class="edge">
<title>Node5&#45;&gt;Node4</title>
<path fill="none" stroke="midnightblue" d="M125.91,-96.73C143.09,-92.83 162.71,-88.38 181.76,-84.06"/>
<polygon fill="midnightblue" stroke="midnightblue" points="125.07,-93.33 116.1,-98.95 126.62,-100.15 125.07,-93.33"/>
</g>
<!-- Node6 -->
<g id="node3" class="node">
<title>Node6</title>
<g id="a_node3"><a xlink:title=" ">
<polygon fill="none" stroke="#bfbfbf" points="1.5,-49.5 1.5,-79.5 144.5,-79.5 144.5,-49.5 1.5,-49.5"/>
<text text-anchor="start" x="9.5" y="-67.5" font-family="Helvetica,sans-Serif" font-size="10.00">global::SystemCollections</text>
<text text-anchor="middle" x="73" y="-56.5" font-family="Helvetica,sans-Serif" font-size="10.00">::IEnumerable</text>
</a>
</g>
</g>
<!-- Node6&#45;&gt;Node4 -->
<g id="edge2" class="edge">
<title>Node6&#45;&gt;Node4</title>
<path fill="none" stroke="midnightblue" d="M154.66,-64.5C163.67,-64.5 172.87,-64.5 181.94,-64.5"/>
<polygon fill="midnightblue" stroke="midnightblue" points="154.59,-61 144.59,-64.5 154.59,-68 154.59,-61"/>
</g>
<!-- Node7 -->
<g id="node4" class="node">
<title>Node7</title>
<g id="a_node4"><a xlink:title=" ">
<polygon fill="none" stroke="#bfbfbf" points="1.5,-0.5 1.5,-30.5 144.5,-30.5 144.5,-0.5 1.5,-0.5"/>
<text text-anchor="start" x="9.5" y="-18.5" font-family="Helvetica,sans-Serif" font-size="10.00">global::SystemCollections</text>
<text text-anchor="middle" x="73" y="-7.5" font-family="Helvetica,sans-Serif" font-size="10.00">::Generic::IList&lt; string &gt;</text>
</a>
</g>
</g>
<!-- Node7&#45;&gt;Node4 -->
<g id="edge3" class="edge">
<title>Node7&#45;&gt;Node4</title>
<path fill="none" stroke="midnightblue" d="M143.56,-33.07C157.58,-36.61 172.43,-40.36 186.8,-43.99"/>
<polygon fill="midnightblue" stroke="midnightblue" points="144.08,-29.59 133.52,-30.53 142.36,-36.38 144.08,-29.59"/>
</g>
</g>
</svg>
