<?xml version="1.0" encoding="UTF-8" standalone="no"?>
<!DOCTYPE svg PUBLIC "-//W3C//DTD SVG 1.1//EN"
 "http://www.w3.org/Graphics/SVG/1.1/DTD/svg11.dtd">
<!-- Generated by graphviz version 2.43.0 (0)
 -->
<!-- Title: FiftyOne.DeviceDetection.Apple.AppleDecisionTreeNode Pages: 1 -->
<svg width="171pt" height="151pt"
 viewBox="0.00 0.00 171.00 151.00" xmlns="http://www.w3.org/2000/svg" xmlns:xlink="http://www.w3.org/1999/xlink">
<g id="graph0" class="graph" transform="scale(1 1) rotate(0) translate(4 147)">
<title>FiftyOne.DeviceDetection.Apple.AppleDecisionTreeNode</title>
<!-- Node3 -->
<g id="node1" class="node">
<title>Node3</title>
<g id="a_node1"><a xlink:title="A node in the decision tree that matches an evidence value against a single expected value">
<polygon fill="#bfbfbf" stroke="black" points="0,-0.5 0,-30.5 163,-30.5 163,-0.5 0,-0.5"/>
<text text-anchor="start" x="8" y="-18.5" font-family="Helvetica,sans-Serif" font-size="10.00">FiftyOne.DeviceDetection.</text>
<text text-anchor="middle" x="81.5" y="-7.5" font-family="Helvetica,sans-Serif" font-size="10.00">Apple.AppleDecisionTreeNode</text>
</a>
</g>
</g>
<!-- Node4 -->
<g id="node2" class="node">
<title>Node4</title>
<g id="a_node2"><a xlink:href="class_fifty_one_1_1_device_detection_1_1_apple_1_1_apple_decision_tree_node_base.html" target="_top" xlink:title="Base class for nodes in the decision tree used by AppleDecisionTree.">
<polygon fill="none" stroke="black" points="3.5,-67.5 3.5,-86.5 159.5,-86.5 159.5,-67.5 3.5,-67.5"/>
<text text-anchor="middle" x="81.5" y="-74.5" font-family="Helvetica,sans-Serif" font-size="10.00">AppleDecisionTreeNodeBase</text>
</a>
</g>
</g>
<!-- Node4&#45;&gt;Node3 -->
<g id="edge1" class="edge">
<title>Node4&#45;&gt;Node3</title>
<path fill="none" stroke="midnightblue" d="M81.5,-57.23C81.5,-48.59 81.5,-38.5 81.5,-30.52"/>
<polygon fill="midnightblue" stroke="midnightblue" points="78,-57.48 81.5,-67.48 85,-57.48 78,-57.48"/>
</g>
<!-- Node5 -->
<g id="node3" class="node">
<title>Node5</title>
<g id="a_node3"><a xlink:href="interface_fifty_one_1_1_device_detection_1_1_apple_1_1_i_apple_decision_tree_node.html" target="_top" xlink:title=" ">
<polygon fill="none" stroke="black" points="14,-123.5 14,-142.5 149,-142.5 149,-123.5 14,-123.5"/>
<text text-anchor="middle" x="81.5" y="-130.5" font-family="Helvetica,sans-Serif" font-size="10.00">IAppleDecisionTreeNode</text>
</a>
</g>
</g>
<!-- Node5&#45;&gt;Node4 -->
<g id="edge2" class="edge">
<title>Node5&#45;&gt;Node4</title>
<path fill="none" stroke="midnightblue" d="M81.5,-112.8C81.5,-103.91 81.5,-93.78 81.5,-86.75"/>
<polygon fill="midnightblue" stroke="midnightblue" points="78,-113.08 81.5,-123.08 85,-113.08 78,-113.08"/>
</g>
</g>
</svg>
