<?xml version="1.0" encoding="UTF-8" standalone="no"?>
<!DOCTYPE svg PUBLIC "-//W3C//DTD SVG 1.1//EN"
 "http://www.w3.org/Graphics/SVG/1.1/DTD/svg11.dtd">
<!-- Generated by graphviz version 2.43.0 (0)
 -->
<!-- Title: FiftyOne.DeviceDetection.Examples.AppleExampleBase Pages: 1 -->
<svg width="170pt" height="162pt"
 viewBox="0.00 0.00 170.00 162.00" xmlns="http://www.w3.org/2000/svg" xmlns:xlink="http://www.w3.org/1999/xlink">
<g id="graph0" class="graph" transform="scale(1 1) rotate(0) translate(4 158)">
<title>FiftyOne.DeviceDetection.Examples.AppleExampleBase</title>
<!-- Node0 -->
<g id="node1" class="node">
<title>Node0</title>
<g id="a_node1"><a xlink:title=" ">
<polygon fill="#bfbfbf" stroke="black" points="0,-67.5 0,-97.5 162,-97.5 162,-67.5 0,-67.5"/>
<text text-anchor="start" x="8" y="-85.5" font-family="Helvetica,sans-Serif" font-size="10.00">FiftyOne.DeviceDetection.</text>
<text text-anchor="middle" x="81" y="-74.5" font-family="Helvetica,sans-Serif" font-size="10.00">Examples.AppleExampleBase</text>
</a>
</g>
</g>
<!-- Node2 -->
<g id="node3" class="node">
<title>Node2</title>
<g id="a_node3"><a xlink:href="class_apple_server_side___console_1_1_program_1_1_example.html" target="_top" xlink:title=" ">
<polygon fill="none" stroke="black" points="9,-0.5 9,-30.5 153,-30.5 153,-0.5 9,-0.5"/>
<text text-anchor="start" x="17" y="-18.5" font-family="Helvetica,sans-Serif" font-size="10.00">AppleServerSide_Console.</text>
<text text-anchor="middle" x="81" y="-7.5" font-family="Helvetica,sans-Serif" font-size="10.00">Program.Example</text>
</a>
</g>
</g>
<!-- Node0&#45;&gt;Node2 -->
<g id="edge2" class="edge">
<title>Node0&#45;&gt;Node2</title>
<path fill="none" stroke="midnightblue" d="M74.45,-57.4C74.01,-48.37 74.3,-38.41 75.33,-30.58"/>
<polygon fill="midnightblue" stroke="midnightblue" points="70.97,-57.74 75.32,-67.4 77.94,-57.13 70.97,-57.74"/>
</g>
<!-- Node0&#45;&gt;Node2 -->
<g id="edge3" class="edge">
<title>Node0&#45;&gt;Node2</title>
<path fill="none" stroke="midnightblue" d="M87.55,-57.4C87.99,-48.37 87.7,-38.41 86.67,-30.58"/>
<polygon fill="midnightblue" stroke="midnightblue" points="84.06,-57.13 86.68,-67.4 91.03,-57.74 84.06,-57.13"/>
</g>
<!-- Node1 -->
<g id="node2" class="node">
<title>Node1</title>
<g id="a_node2"><a xlink:href="class_fifty_one_1_1_device_detection_1_1_examples_1_1_example_base.html" target="_top" xlink:title=" ">
<polygon fill="none" stroke="black" points="39.5,-134.5 39.5,-153.5 122.5,-153.5 122.5,-134.5 39.5,-134.5"/>
<text text-anchor="middle" x="81" y="-141.5" font-family="Helvetica,sans-Serif" font-size="10.00">ExampleBase</text>
</a>
</g>
</g>
<!-- Node1&#45;&gt;Node0 -->
<g id="edge1" class="edge">
<title>Node1&#45;&gt;Node0</title>
<path fill="none" stroke="midnightblue" d="M81,-124.23C81,-115.59 81,-105.5 81,-97.52"/>
<polygon fill="midnightblue" stroke="midnightblue" points="77.5,-124.48 81,-134.48 84.5,-124.48 77.5,-124.48"/>
</g>
</g>
</svg>
