<?xml version="1.0" encoding="UTF-8" standalone="no"?>
<!DOCTYPE svg PUBLIC "-//W3C//DTD SVG 1.1//EN"
 "http://www.w3.org/Graphics/SVG/1.1/DTD/svg11.dtd">
<!-- Generated by graphviz version 2.43.0 (0)
 -->
<!-- Title: FiftyOne.DeviceDetection.Hash.Engine.OnPremise.Wrappers.ComponentCollectionSwigWrapper Pages: 1 -->
<svg width="274pt" height="184pt"
 viewBox="0.00 0.00 273.50 184.00" xmlns="http://www.w3.org/2000/svg" xmlns:xlink="http://www.w3.org/1999/xlink">
<g id="graph0" class="graph" transform="scale(1 1) rotate(0) translate(4 180)">
<title>FiftyOne.DeviceDetection.Hash.Engine.OnPremise.Wrappers.ComponentCollectionSwigWrapper</title>
<!-- Node4 -->
<g id="node1" class="node">
<title>Node4</title>
<g id="a_node1"><a xlink:title=" ">
<polygon fill="#bfbfbf" stroke="black" points="15,-0.5 15,-41.5 201,-41.5 201,-0.5 15,-0.5"/>
<text text-anchor="start" x="23" y="-29.5" font-family="Helvetica,sans-Serif" font-size="10.00">FiftyOne.DeviceDetection.</text>
<text text-anchor="start" x="23" y="-18.5" font-family="Helvetica,sans-Serif" font-size="10.00">Hash.Engine.OnPremise.Wrappers.</text>
<text text-anchor="middle" x="108" y="-7.5" font-family="Helvetica,sans-Serif" font-size="10.00">ComponentCollectionSwigWrapper</text>
</a>
</g>
</g>
<!-- Node5 -->
<g id="node2" class="node">
<title>Node5</title>
<g id="a_node2"><a xlink:href="interface_fifty_one_1_1_device_detection_1_1_hash_1_1_engine_1_1_on_premise_1_1_wrappers_1_1_i_c646a1eccf4c348cdb41c225bbd8d74d0.html" target="_top" xlink:title=" ">
<polygon fill="none" stroke="black" points="34,-78.5 34,-108.5 182,-108.5 182,-78.5 34,-78.5"/>
<text text-anchor="start" x="42" y="-96.5" font-family="Helvetica,sans-Serif" font-size="10.00">IComponentCollectionSwig</text>
<text text-anchor="middle" x="108" y="-85.5" font-family="Helvetica,sans-Serif" font-size="10.00">Wrapper</text>
</a>
</g>
</g>
<!-- Node5&#45;&gt;Node4 -->
<g id="edge1" class="edge">
<title>Node5&#45;&gt;Node4</title>
<path fill="none" stroke="midnightblue" d="M108,-67.98C108,-59.35 108,-49.76 108,-41.59"/>
<polygon fill="midnightblue" stroke="midnightblue" points="104.5,-68.23 108,-78.23 111.5,-68.23 104.5,-68.23"/>
</g>
<!-- Node6 -->
<g id="node3" class="node">
<title>Node6</title>
<g id="a_node3"><a xlink:title=" ">
<polygon fill="none" stroke="#bfbfbf" points="0,-151 0,-170 74,-170 74,-151 0,-151"/>
<text text-anchor="middle" x="37" y="-158" font-family="Helvetica,sans-Serif" font-size="10.00">IDisposable</text>
</a>
</g>
</g>
<!-- Node6&#45;&gt;Node5 -->
<g id="edge2" class="edge">
<title>Node6&#45;&gt;Node5</title>
<path fill="none" stroke="midnightblue" d="M54.01,-143.93C65.75,-133.18 81.24,-119 92.61,-108.59"/>
<polygon fill="midnightblue" stroke="midnightblue" points="51.59,-141.4 46.58,-150.73 56.31,-146.56 51.59,-141.4"/>
</g>
<!-- Node7 -->
<g id="node4" class="node">
<title>Node7</title>
<g id="a_node4"><a xlink:title=" ">
<polygon fill="none" stroke="#bfbfbf" points="92.5,-145.5 92.5,-175.5 265.5,-175.5 265.5,-145.5 92.5,-145.5"/>
<text text-anchor="start" x="100.5" y="-163.5" font-family="Helvetica,sans-Serif" font-size="10.00">IEnumerable&lt; IComponentMeta</text>
<text text-anchor="middle" x="179" y="-152.5" font-family="Helvetica,sans-Serif" font-size="10.00">Data &gt;</text>
</a>
</g>
</g>
<!-- Node7&#45;&gt;Node5 -->
<g id="edge3" class="edge">
<title>Node7&#45;&gt;Node5</title>
<path fill="none" stroke="midnightblue" d="M156.17,-138.6C145.45,-128.78 132.95,-117.34 123.38,-108.58"/>
<polygon fill="midnightblue" stroke="midnightblue" points="153.85,-141.22 163.59,-145.4 158.58,-136.06 153.85,-141.22"/>
</g>
</g>
</svg>
