<?xml version="1.0" encoding="UTF-8" standalone="no"?>
<!DOCTYPE svg PUBLIC "-//W3C//DTD SVG 1.1//EN"
 "http://www.w3.org/Graphics/SVG/1.1/DTD/svg11.dtd">
<!-- Generated by graphviz version 2.43.0 (0)
 -->
<!-- Title: FiftyOne.DeviceDetection.Hash.Engine.OnPremise.Data.PropertyMetaDataHash Pages: 1 -->
<svg width="282pt" height="106pt"
 viewBox="0.00 0.00 282.00 106.00" xmlns="http://www.w3.org/2000/svg" xmlns:xlink="http://www.w3.org/1999/xlink">
<g id="graph0" class="graph" transform="scale(1 1) rotate(0) translate(4 102)">
<title>FiftyOne.DeviceDetection.Hash.Engine.OnPremise.Data.PropertyMetaDataHash</title>
<!-- Node0 -->
<g id="node1" class="node">
<title>Node0</title>
<g id="a_node1"><a xlink:title="Data class that contains meta&#45;data relating to a specific property.">
<polygon fill="#bfbfbf" stroke="black" points="62,-0.5 62,-41.5 266,-41.5 266,-0.5 62,-0.5"/>
<text text-anchor="start" x="70" y="-29.5" font-family="Helvetica,sans-Serif" font-size="10.00">FiftyOne.DeviceDetection.</text>
<text text-anchor="start" x="70" y="-18.5" font-family="Helvetica,sans-Serif" font-size="10.00">Hash.Engine.OnPremise.Data.Property</text>
<text text-anchor="middle" x="164" y="-7.5" font-family="Helvetica,sans-Serif" font-size="10.00">MetaDataHash</text>
</a>
</g>
</g>
<!-- Node1 -->
<g id="node2" class="node">
<title>Node1</title>
<g id="a_node2"><a xlink:title=" ">
<polygon fill="none" stroke="#bfbfbf" points="0,-78.5 0,-97.5 182,-97.5 182,-78.5 0,-78.5"/>
<text text-anchor="middle" x="91" y="-85.5" font-family="Helvetica,sans-Serif" font-size="10.00">IFiftyOneAspectPropertyMetaData</text>
</a>
</g>
</g>
<!-- Node1&#45;&gt;Node0 -->
<g id="edge1" class="edge">
<title>Node1&#45;&gt;Node0</title>
<path fill="none" stroke="midnightblue" d="M108.57,-71.36C118.63,-62.4 131.34,-51.08 142.05,-41.54"/>
<polygon fill="midnightblue" stroke="midnightblue" points="105.99,-68.97 100.85,-78.23 110.64,-74.2 105.99,-68.97"/>
</g>
<!-- Node2 -->
<g id="node3" class="node">
<title>Node2</title>
<g id="a_node3"><a xlink:title=" ">
<polygon fill="none" stroke="#bfbfbf" points="200,-78.5 200,-97.5 274,-97.5 274,-78.5 200,-78.5"/>
<text text-anchor="middle" x="237" y="-85.5" font-family="Helvetica,sans-Serif" font-size="10.00">IDisposable</text>
</a>
</g>
</g>
<!-- Node2&#45;&gt;Node0 -->
<g id="edge2" class="edge">
<title>Node2&#45;&gt;Node0</title>
<path fill="none" stroke="midnightblue" d="M219.43,-71.36C209.37,-62.4 196.66,-51.08 185.95,-41.54"/>
<polygon fill="midnightblue" stroke="midnightblue" points="217.36,-74.2 227.15,-78.23 222.01,-68.97 217.36,-74.2"/>
</g>
</g>
</svg>
