<?xml version="1.0" encoding="UTF-8" standalone="no"?>
<!DOCTYPE svg PUBLIC "-//W3C//DTD SVG 1.1//EN"
 "http://www.w3.org/Graphics/SVG/1.1/DTD/svg11.dtd">
<!-- Generated by graphviz version 2.43.0 (0)
 -->
<!-- Title: FiftyOne.DeviceDetection.Hash.Engine.OnPremise.Data.DeviceDataHash Pages: 1 -->
<svg width="371pt" height="173pt"
 viewBox="0.00 0.00 370.50 173.00" xmlns="http://www.w3.org/2000/svg" xmlns:xlink="http://www.w3.org/1999/xlink">
<g id="graph0" class="graph" transform="scale(1 1) rotate(0) translate(4 169)">
<title>FiftyOne.DeviceDetection.Hash.Engine.OnPremise.Data.DeviceDataHash</title>
<!-- Node0 -->
<g id="node1" class="node">
<title>Node0</title>
<g id="a_node1"><a xlink:title=" ">
<polygon fill="#bfbfbf" stroke="black" points="121,-0.5 121,-41.5 318,-41.5 318,-0.5 121,-0.5"/>
<text text-anchor="start" x="129" y="-29.5" font-family="Helvetica,sans-Serif" font-size="10.00">FiftyOne.DeviceDetection.</text>
<text text-anchor="start" x="129" y="-18.5" font-family="Helvetica,sans-Serif" font-size="10.00">Hash.Engine.OnPremise.Data.Device</text>
<text text-anchor="middle" x="219.5" y="-7.5" font-family="Helvetica,sans-Serif" font-size="10.00">DataHash</text>
</a>
</g>
</g>
<!-- Node1 -->
<g id="node2" class="node">
<title>Node1</title>
<g id="a_node2"><a xlink:title=" ">
<polygon fill="none" stroke="#bfbfbf" points="0,-78.5 0,-108.5 151,-108.5 151,-78.5 0,-78.5"/>
<text text-anchor="start" x="8" y="-96.5" font-family="Helvetica,sans-Serif" font-size="10.00">DeviceDataBaseOnPremise</text>
<text text-anchor="middle" x="75.5" y="-85.5" font-family="Helvetica,sans-Serif" font-size="10.00">&lt; IResultsSwigWrapper &gt;</text>
</a>
</g>
</g>
<!-- Node1&#45;&gt;Node0 -->
<g id="edge1" class="edge">
<title>Node1&#45;&gt;Node0</title>
<path fill="none" stroke="midnightblue" d="M113.3,-74C133.69,-64.01 158.86,-51.69 179.58,-41.55"/>
<polygon fill="midnightblue" stroke="midnightblue" points="111.74,-70.86 104.29,-78.4 114.81,-77.15 111.74,-70.86"/>
</g>
<!-- Node2 -->
<g id="node3" class="node">
<title>Node2</title>
<g id="a_node3"><a xlink:href="interface_fifty_one_1_1_device_detection_1_1_hash_1_1_engine_1_1_on_premise_1_1_data_1_1_i_device_data_hash.html" target="_top" xlink:title="Represents a data class that contains device data from an on&#45;premise device detection engine.">
<polygon fill="none" stroke="black" points="169,-84 169,-103 270,-103 270,-84 169,-84"/>
<text text-anchor="middle" x="219.5" y="-91" font-family="Helvetica,sans-Serif" font-size="10.00">IDeviceDataHash</text>
</a>
</g>
</g>
<!-- Node2&#45;&gt;Node0 -->
<g id="edge2" class="edge">
<title>Node2&#45;&gt;Node0</title>
<path fill="none" stroke="midnightblue" d="M219.5,-73.85C219.5,-63.93 219.5,-51.73 219.5,-41.66"/>
<polygon fill="midnightblue" stroke="midnightblue" points="216,-73.86 219.5,-83.86 223,-73.86 216,-73.86"/>
</g>
<!-- Node3 -->
<g id="node4" class="node">
<title>Node3</title>
<g id="a_node4"><a xlink:title=" ">
<polygon fill="none" stroke="#bfbfbf" points="181,-145.5 181,-164.5 258,-164.5 258,-145.5 181,-145.5"/>
<text text-anchor="middle" x="219.5" y="-152.5" font-family="Helvetica,sans-Serif" font-size="10.00">IDeviceData</text>
</a>
</g>
</g>
<!-- Node3&#45;&gt;Node2 -->
<g id="edge3" class="edge">
<title>Node3&#45;&gt;Node2</title>
<path fill="none" stroke="midnightblue" d="M219.5,-135.32C219.5,-124.5 219.5,-111.4 219.5,-103.01"/>
<polygon fill="midnightblue" stroke="midnightblue" points="216,-135.48 219.5,-145.48 223,-135.48 216,-135.48"/>
</g>
<!-- Node4 -->
<g id="node5" class="node">
<title>Node4</title>
<g id="a_node5"><a xlink:title=" ">
<polygon fill="none" stroke="#bfbfbf" points="288.5,-84 288.5,-103 362.5,-103 362.5,-84 288.5,-84"/>
<text text-anchor="middle" x="325.5" y="-91" font-family="Helvetica,sans-Serif" font-size="10.00">IDisposable</text>
</a>
</g>
</g>
<!-- Node4&#45;&gt;Node0 -->
<g id="edge4" class="edge">
<title>Node4&#45;&gt;Node0</title>
<path fill="none" stroke="midnightblue" d="M303.95,-78.17C288.14,-67.65 266.48,-53.25 249.06,-41.66"/>
<polygon fill="midnightblue" stroke="midnightblue" points="302.24,-81.23 312.5,-83.86 306.11,-75.4 302.24,-81.23"/>
</g>
</g>
</svg>
