<?xml version="1.0" encoding="UTF-8" standalone="no"?>
<!DOCTYPE svg PUBLIC "-//W3C//DTD SVG 1.1//EN"
 "http://www.w3.org/Graphics/SVG/1.1/DTD/svg11.dtd">
<!-- Generated by graphviz version 2.43.0 (0)
 -->
<!-- Title: FiftyOne.DeviceDetection.Hash.Engine.OnPremise.Wrappers.BoolValueSwigWrapper Pages: 1 -->
<svg width="194pt" height="264pt"
 viewBox="0.00 0.00 194.00 264.00" xmlns="http://www.w3.org/2000/svg" xmlns:xlink="http://www.w3.org/1999/xlink">
<g id="graph0" class="graph" transform="scale(1 1) rotate(0) translate(4 260)">
<title>FiftyOne.DeviceDetection.Hash.Engine.OnPremise.Wrappers.BoolValueSwigWrapper</title>
<!-- Node4 -->
<g id="node1" class="node">
<title>Node4</title>
<g id="a_node1"><a xlink:title=" ">
<polygon fill="#bfbfbf" stroke="black" points="0,-0.5 0,-41.5 186,-41.5 186,-0.5 0,-0.5"/>
<text text-anchor="start" x="8" y="-29.5" font-family="Helvetica,sans-Serif" font-size="10.00">FiftyOne.DeviceDetection.</text>
<text text-anchor="start" x="8" y="-18.5" font-family="Helvetica,sans-Serif" font-size="10.00">Hash.Engine.OnPremise.Wrappers.</text>
<text text-anchor="middle" x="93" y="-7.5" font-family="Helvetica,sans-Serif" font-size="10.00">BoolValueSwigWrapper</text>
</a>
</g>
</g>
<!-- Node5 -->
<g id="node2" class="node">
<title>Node5</title>
<g id="a_node2"><a xlink:href="interface_fifty_one_1_1_device_detection_1_1_hash_1_1_engine_1_1_on_premise_1_1_wrappers_1_1_i_value_swig_wrapper.html" target="_top" xlink:title=" ">
<polygon fill="none" stroke="black" points="33.5,-79.5 33.5,-109.5 152.5,-109.5 152.5,-79.5 33.5,-79.5"/>
<text text-anchor="start" x="41.5" y="-97.5" font-family="Helvetica,sans-Serif" font-size="10.00">IValueSwigWrapper&lt;</text>
<text text-anchor="middle" x="93" y="-86.5" font-family="Helvetica,sans-Serif" font-size="10.00"> bool &gt;</text>
</a>
</g>
</g>
<!-- Node5&#45;&gt;Node4 -->
<g id="edge1" class="edge">
<title>Node5&#45;&gt;Node4</title>
<path fill="none" stroke="midnightblue" d="M93,-69.1C93,-60.1 93,-50.02 93,-41.51"/>
<polygon fill="midnightblue" stroke="midnightblue" points="89.5,-69.37 93,-79.37 96.5,-69.37 89.5,-69.37"/>
</g>
<!-- Node6 -->
<g id="node3" class="node">
<title>Node6</title>
<g id="a_node3"><a xlink:href="interface_fifty_one_1_1_device_detection_1_1_hash_1_1_engine_1_1_on_premise_1_1_wrappers_1_1_i_value_swig_wrapper.html" target="_top" xlink:title=" ">
<polygon fill="none" stroke="black" points="0,-157.5 0,-198.5 186,-198.5 186,-157.5 0,-157.5"/>
<text text-anchor="start" x="8" y="-186.5" font-family="Helvetica,sans-Serif" font-size="10.00">FiftyOne.DeviceDetection.</text>
<text text-anchor="start" x="8" y="-175.5" font-family="Helvetica,sans-Serif" font-size="10.00">Hash.Engine.OnPremise.Wrappers.</text>
<text text-anchor="middle" x="93" y="-164.5" font-family="Helvetica,sans-Serif" font-size="10.00">IValueSwigWrapper&lt; T &gt;</text>
</a>
</g>
</g>
<!-- Node6&#45;&gt;Node5 -->
<g id="edge2" class="edge">
<title>Node6&#45;&gt;Node5</title>
<path fill="none" stroke="orange" stroke-dasharray="5,2" d="M93,-147.03C93,-134.26 93,-119.97 93,-109.68"/>
<polygon fill="orange" stroke="orange" points="89.5,-147.27 93,-157.27 96.5,-147.27 89.5,-147.27"/>
<text text-anchor="middle" x="116.5" y="-131" font-family="Helvetica,sans-Serif" font-size="10.00"> &lt; bool &gt;</text>
</g>
<!-- Node7 -->
<g id="node4" class="node">
<title>Node7</title>
<g id="a_node4"><a xlink:title=" ">
<polygon fill="none" stroke="#bfbfbf" points="56,-236.5 56,-255.5 130,-255.5 130,-236.5 56,-236.5"/>
<text text-anchor="middle" x="93" y="-243.5" font-family="Helvetica,sans-Serif" font-size="10.00">IDisposable</text>
</a>
</g>
</g>
<!-- Node7&#45;&gt;Node6 -->
<g id="edge3" class="edge">
<title>Node7&#45;&gt;Node6</title>
<path fill="none" stroke="midnightblue" d="M93,-226.25C93,-217.65 93,-207.45 93,-198.74"/>
<polygon fill="midnightblue" stroke="midnightblue" points="89.5,-226.37 93,-236.37 96.5,-226.37 89.5,-226.37"/>
</g>
</g>
</svg>
