<?xml version="1.0" encoding="UTF-8" standalone="no"?>
<!DOCTYPE svg PUBLIC "-//W3C//DTD SVG 1.1//EN"
 "http://www.w3.org/Graphics/SVG/1.1/DTD/svg11.dtd">
<!-- Generated by graphviz version 2.43.0 (0)
 -->
<!-- Title: FiftyOne.DeviceDetection.Apple.AppleProfileData Pages: 1 -->
<svg width="224pt" height="151pt"
 viewBox="0.00 0.00 224.00 151.00" xmlns="http://www.w3.org/2000/svg" xmlns:xlink="http://www.w3.org/1999/xlink">
<g id="graph0" class="graph" transform="scale(1 1) rotate(0) translate(4 147)">
<title>FiftyOne.DeviceDetection.Apple.AppleProfileData</title>
<!-- Node0 -->
<g id="node1" class="node">
<title>Node0</title>
<g id="a_node1"><a xlink:title="The data populated by AppleProfileEngine">
<polygon fill="#bfbfbf" stroke="black" points="34.5,-0.5 34.5,-30.5 178.5,-30.5 178.5,-0.5 34.5,-0.5"/>
<text text-anchor="start" x="42.5" y="-18.5" font-family="Helvetica,sans-Serif" font-size="10.00">FiftyOne.DeviceDetection.</text>
<text text-anchor="middle" x="106.5" y="-7.5" font-family="Helvetica,sans-Serif" font-size="10.00">Apple.AppleProfileData</text>
</a>
</g>
</g>
<!-- Node1 -->
<g id="node2" class="node">
<title>Node1</title>
<g id="a_node2"><a xlink:title=" ">
<polygon fill="none" stroke="#bfbfbf" points="0,-67.5 0,-86.5 97,-86.5 97,-67.5 0,-67.5"/>
<text text-anchor="middle" x="48.5" y="-74.5" font-family="Helvetica,sans-Serif" font-size="10.00">AspectDataBase</text>
</a>
</g>
</g>
<!-- Node1&#45;&gt;Node0 -->
<g id="edge1" class="edge">
<title>Node1&#45;&gt;Node0</title>
<path fill="none" stroke="midnightblue" d="M64.01,-60.09C72.99,-50.88 84.18,-39.39 92.83,-30.52"/>
<polygon fill="midnightblue" stroke="midnightblue" points="61.28,-57.87 56.81,-67.48 66.3,-62.76 61.28,-57.87"/>
</g>
<!-- Node2 -->
<g id="node3" class="node">
<title>Node2</title>
<g id="a_node3"><a xlink:href="interface_fifty_one_1_1_device_detection_1_1_apple_1_1_i_apple_profile_data.html" target="_top" xlink:title="The data interface populated by AppleProfileEngine">
<polygon fill="none" stroke="black" points="115,-67.5 115,-86.5 216,-86.5 216,-67.5 115,-67.5"/>
<text text-anchor="middle" x="165.5" y="-74.5" font-family="Helvetica,sans-Serif" font-size="10.00">IAppleProfileData</text>
</a>
</g>
</g>
<!-- Node2&#45;&gt;Node0 -->
<g id="edge2" class="edge">
<title>Node2&#45;&gt;Node0</title>
<path fill="none" stroke="midnightblue" d="M150,-60.37C140.82,-51.11 129.29,-39.48 120.41,-30.52"/>
<polygon fill="midnightblue" stroke="midnightblue" points="147.52,-62.84 157.05,-67.48 152.49,-57.91 147.52,-62.84"/>
</g>
<!-- Node3 -->
<g id="node4" class="node">
<title>Node3</title>
<g id="a_node4"><a xlink:title=" ">
<polygon fill="none" stroke="#bfbfbf" points="127.5,-123.5 127.5,-142.5 203.5,-142.5 203.5,-123.5 127.5,-123.5"/>
<text text-anchor="middle" x="165.5" y="-130.5" font-family="Helvetica,sans-Serif" font-size="10.00">IAspectData</text>
</a>
</g>
</g>
<!-- Node3&#45;&gt;Node2 -->
<g id="edge3" class="edge">
<title>Node3&#45;&gt;Node2</title>
<path fill="none" stroke="midnightblue" d="M165.5,-112.8C165.5,-103.91 165.5,-93.78 165.5,-86.75"/>
<polygon fill="midnightblue" stroke="midnightblue" points="162,-113.08 165.5,-123.08 169,-113.08 162,-113.08"/>
</g>
</g>
</svg>
