<?xml version="1.0" encoding="UTF-8" standalone="no"?>
<!DOCTYPE svg PUBLIC "-//W3C//DTD SVG 1.1//EN"
 "http://www.w3.org/Graphics/SVG/1.1/DTD/svg11.dtd">
<!-- Generated by graphviz version 2.43.0 (0)
 -->
<!-- Title: FiftyOne.DeviceDetection.Hash.Engine.OnPremise.Interop.EngineHashSwig Pages: 1 -->
<svg width="182pt" height="218pt"
 viewBox="0.00 0.00 182.00 218.00" xmlns="http://www.w3.org/2000/svg" xmlns:xlink="http://www.w3.org/1999/xlink">
<g id="graph0" class="graph" transform="scale(1 1) rotate(0) translate(4 214)">
<title>FiftyOne.DeviceDetection.Hash.Engine.OnPremise.Interop.EngineHashSwig</title>
<!-- Node0 -->
<g id="node1" class="node">
<title>Node0</title>
<g id="a_node1"><a xlink:title=" ">
<polygon fill="#bfbfbf" stroke="black" points="0,-0.5 0,-41.5 174,-41.5 174,-0.5 0,-0.5"/>
<text text-anchor="start" x="8" y="-29.5" font-family="Helvetica,sans-Serif" font-size="10.00">FiftyOne.DeviceDetection.</text>
<text text-anchor="start" x="8" y="-18.5" font-family="Helvetica,sans-Serif" font-size="10.00">Hash.Engine.OnPremise.Interop.</text>
<text text-anchor="middle" x="87" y="-7.5" font-family="Helvetica,sans-Serif" font-size="10.00">EngineHashSwig</text>
</a>
</g>
</g>
<!-- Node1 -->
<g id="node2" class="node">
<title>Node1</title>
<g id="a_node2"><a xlink:href="class_fifty_one_1_1_device_detection_1_1_hash_1_1_engine_1_1_on_premise_1_1_interop_1_1_engine_device_detection_swig.html" target="_top" xlink:title=" ">
<polygon fill="none" stroke="black" points="10,-78.5 10,-97.5 164,-97.5 164,-78.5 10,-78.5"/>
<text text-anchor="middle" x="87" y="-85.5" font-family="Helvetica,sans-Serif" font-size="10.00">EngineDeviceDetectionSwig</text>
</a>
</g>
</g>
<!-- Node1&#45;&gt;Node0 -->
<g id="edge1" class="edge">
<title>Node1&#45;&gt;Node0</title>
<path fill="none" stroke="midnightblue" d="M87,-68.04C87,-59.71 87,-49.94 87,-41.54"/>
<polygon fill="midnightblue" stroke="midnightblue" points="83.5,-68.23 87,-78.23 90.5,-68.23 83.5,-68.23"/>
</g>
<!-- Node2 -->
<g id="node3" class="node">
<title>Node2</title>
<g id="a_node3"><a xlink:href="class_fifty_one_1_1_device_detection_1_1_hash_1_1_engine_1_1_on_premise_1_1_interop_1_1_engine_base_swig.html" target="_top" xlink:title=" ">
<polygon fill="none" stroke="black" points="38.5,-134.5 38.5,-153.5 135.5,-153.5 135.5,-134.5 38.5,-134.5"/>
<text text-anchor="middle" x="87" y="-141.5" font-family="Helvetica,sans-Serif" font-size="10.00">EngineBaseSwig</text>
</a>
</g>
</g>
<!-- Node2&#45;&gt;Node1 -->
<g id="edge2" class="edge">
<title>Node2&#45;&gt;Node1</title>
<path fill="none" stroke="midnightblue" d="M87,-123.8C87,-114.91 87,-104.78 87,-97.75"/>
<polygon fill="midnightblue" stroke="midnightblue" points="83.5,-124.08 87,-134.08 90.5,-124.08 83.5,-124.08"/>
</g>
<!-- Node3 -->
<g id="node4" class="node">
<title>Node3</title>
<g id="a_node4"><a xlink:title=" ">
<polygon fill="none" stroke="#bfbfbf" points="14,-190.5 14,-209.5 160,-209.5 160,-190.5 14,-190.5"/>
<text text-anchor="middle" x="87" y="-197.5" font-family="Helvetica,sans-Serif" font-size="10.00">global::SystemIDisposable</text>
</a>
</g>
</g>
<!-- Node3&#45;&gt;Node2 -->
<g id="edge3" class="edge">
<title>Node3&#45;&gt;Node2</title>
<path fill="none" stroke="midnightblue" d="M87,-179.8C87,-170.91 87,-160.78 87,-153.75"/>
<polygon fill="midnightblue" stroke="midnightblue" points="83.5,-180.08 87,-190.08 90.5,-180.08 83.5,-180.08"/>
</g>
</g>
</svg>
