<?xml version="1.0" encoding="UTF-8" standalone="no"?>
<!DOCTYPE svg PUBLIC "-//W3C//DTD SVG 1.1//EN"
 "http://www.w3.org/Graphics/SVG/1.1/DTD/svg11.dtd">
<!-- Generated by graphviz version 2.43.0 (0)
 -->
<!-- Title: FiftyOne.DeviceDetection.Hash.Engine.OnPremise.Interop.EvidenceBaseSwig Pages: 1 -->
<svg width="728pt" height="88pt"
 viewBox="0.00 0.00 728.00 88.00" xmlns="http://www.w3.org/2000/svg" xmlns:xlink="http://www.w3.org/1999/xlink">
<g id="graph0" class="graph" transform="scale(1 1) rotate(0) translate(4 84)">
<title>FiftyOne.DeviceDetection.Hash.Engine.OnPremise.Interop.EvidenceBaseSwig</title>
<!-- Node0 -->
<g id="node1" class="node">
<title>Node0</title>
<g id="a_node1"><a xlink:title=" ">
<polygon fill="#bfbfbf" stroke="black" points="336,-24.5 336,-65.5 510,-65.5 510,-24.5 336,-24.5"/>
<text text-anchor="start" x="344" y="-53.5" font-family="Helvetica,sans-Serif" font-size="10.00">FiftyOne.DeviceDetection.</text>
<text text-anchor="start" x="344" y="-42.5" font-family="Helvetica,sans-Serif" font-size="10.00">Hash.Engine.OnPremise.Interop.</text>
<text text-anchor="middle" x="423" y="-31.5" font-family="Helvetica,sans-Serif" font-size="10.00">EvidenceBaseSwig</text>
</a>
</g>
</g>
<!-- Node4 -->
<g id="node5" class="node">
<title>Node4</title>
<g id="a_node5"><a xlink:href="class_fifty_one_1_1_device_detection_1_1_hash_1_1_engine_1_1_on_premise_1_1_interop_1_1_evidence_device_detection_swig.html" target="_top" xlink:title=" ">
<polygon fill="none" stroke="black" points="546,-24.5 546,-65.5 720,-65.5 720,-24.5 546,-24.5"/>
<text text-anchor="start" x="554" y="-53.5" font-family="Helvetica,sans-Serif" font-size="10.00">FiftyOne.DeviceDetection.</text>
<text text-anchor="start" x="554" y="-42.5" font-family="Helvetica,sans-Serif" font-size="10.00">Hash.Engine.OnPremise.Interop.</text>
<text text-anchor="middle" x="633" y="-31.5" font-family="Helvetica,sans-Serif" font-size="10.00">EvidenceDeviceDetectionSwig</text>
</a>
</g>
</g>
<!-- Node0&#45;&gt;Node4 -->
<g id="edge4" class="edge">
<title>Node0&#45;&gt;Node4</title>
<path fill="none" stroke="midnightblue" d="M520.16,-45C528.77,-45 537.45,-45 545.96,-45"/>
<polygon fill="midnightblue" stroke="midnightblue" points="520.1,-41.5 510.1,-45 520.1,-48.5 520.1,-41.5"/>
</g>
<!-- Node1 -->
<g id="node2" class="node">
<title>Node1</title>
<g id="a_node2"><a xlink:href="class_fifty_one_1_1_device_detection_1_1_hash_1_1_engine_1_1_on_premise_1_1_interop_1_1_map_string_string_swig.html" target="_top" xlink:title=" ">
<polygon fill="none" stroke="black" points="182,-35.5 182,-54.5 300,-54.5 300,-35.5 182,-35.5"/>
<text text-anchor="middle" x="241" y="-42.5" font-family="Helvetica,sans-Serif" font-size="10.00">MapStringStringSwig</text>
</a>
</g>
</g>
<!-- Node1&#45;&gt;Node0 -->
<g id="edge1" class="edge">
<title>Node1&#45;&gt;Node0</title>
<path fill="none" stroke="midnightblue" d="M310.68,-45C318.88,-45 327.33,-45 335.75,-45"/>
<polygon fill="midnightblue" stroke="midnightblue" points="310.44,-41.5 300.44,-45 310.44,-48.5 310.44,-41.5"/>
</g>
<!-- Node2 -->
<g id="node3" class="node">
<title>Node2</title>
<g id="a_node3"><a xlink:title=" ">
<polygon fill="none" stroke="#bfbfbf" points="0,-60.5 0,-79.5 146,-79.5 146,-60.5 0,-60.5"/>
<text text-anchor="middle" x="73" y="-67.5" font-family="Helvetica,sans-Serif" font-size="10.00">global::SystemIDisposable</text>
</a>
</g>
</g>
<!-- Node2&#45;&gt;Node1 -->
<g id="edge2" class="edge">
<title>Node2&#45;&gt;Node1</title>
<path fill="none" stroke="midnightblue" d="M147.31,-58.96C158.87,-57.22 170.69,-55.44 181.85,-53.76"/>
<polygon fill="midnightblue" stroke="midnightblue" points="146.6,-55.53 137.23,-60.48 147.64,-62.45 146.6,-55.53"/>
</g>
<!-- Node3 -->
<g id="node4" class="node">
<title>Node3</title>
<g id="a_node4"><a xlink:title=" ">
<polygon fill="none" stroke="#bfbfbf" points="1.5,-0.5 1.5,-41.5 144.5,-41.5 144.5,-0.5 1.5,-0.5"/>
<text text-anchor="start" x="9.5" y="-29.5" font-family="Helvetica,sans-Serif" font-size="10.00">global::SystemCollections</text>
<text text-anchor="start" x="9.5" y="-18.5" font-family="Helvetica,sans-Serif" font-size="10.00">::Generic::IDictionary</text>
<text text-anchor="middle" x="73" y="-7.5" font-family="Helvetica,sans-Serif" font-size="10.00">&lt; string, string &gt;</text>
</a>
</g>
</g>
<!-- Node3&#45;&gt;Node1 -->
<g id="edge3" class="edge">
<title>Node3&#45;&gt;Node1</title>
<path fill="none" stroke="midnightblue" d="M155.06,-32.72C164.11,-34.03 173.19,-35.34 181.86,-36.59"/>
<polygon fill="midnightblue" stroke="midnightblue" points="155.28,-29.21 144.88,-31.25 154.28,-36.14 155.28,-29.21"/>
</g>
</g>
</svg>
