<?xml version="1.0" encoding="UTF-8" standalone="no"?>
<!DOCTYPE svg PUBLIC "-//W3C//DTD SVG 1.1//EN"
 "http://www.w3.org/Graphics/SVG/1.1/DTD/svg11.dtd">
<!-- Generated by graphviz version 2.43.0 (0)
 -->
<!-- Title: FiftyOne.DeviceDetection.Hash.Engine.OnPremise.Wrappers.ValueCollectionSwigWrapper Pages: 1 -->
<svg width="280pt" height="162pt"
 viewBox="0.00 0.00 279.50 162.00" xmlns="http://www.w3.org/2000/svg" xmlns:xlink="http://www.w3.org/1999/xlink">
<g id="graph0" class="graph" transform="scale(1 1) rotate(0) translate(4 158)">
<title>FiftyOne.DeviceDetection.Hash.Engine.OnPremise.Wrappers.ValueCollectionSwigWrapper</title>
<!-- Node0 -->
<g id="node1" class="node">
<title>Node0</title>
<g id="a_node1"><a xlink:title=" ">
<polygon fill="#bfbfbf" stroke="black" points="16,-0.5 16,-41.5 202,-41.5 202,-0.5 16,-0.5"/>
<text text-anchor="start" x="24" y="-29.5" font-family="Helvetica,sans-Serif" font-size="10.00">FiftyOne.DeviceDetection.</text>
<text text-anchor="start" x="24" y="-18.5" font-family="Helvetica,sans-Serif" font-size="10.00">Hash.Engine.OnPremise.Wrappers.</text>
<text text-anchor="middle" x="109" y="-7.5" font-family="Helvetica,sans-Serif" font-size="10.00">ValueCollectionSwigWrapper</text>
</a>
</g>
</g>
<!-- Node1 -->
<g id="node2" class="node">
<title>Node1</title>
<g id="a_node2"><a xlink:href="interface_fifty_one_1_1_device_detection_1_1_hash_1_1_engine_1_1_on_premise_1_1_wrappers_1_1_i_value_collection_swig_wrapper.html" target="_top" xlink:title=" ">
<polygon fill="none" stroke="black" points="29,-78.5 29,-97.5 189,-97.5 189,-78.5 29,-78.5"/>
<text text-anchor="middle" x="109" y="-85.5" font-family="Helvetica,sans-Serif" font-size="10.00">IValueCollectionSwigWrapper</text>
</a>
</g>
</g>
<!-- Node1&#45;&gt;Node0 -->
<g id="edge1" class="edge">
<title>Node1&#45;&gt;Node0</title>
<path fill="none" stroke="midnightblue" d="M109,-68.04C109,-59.71 109,-49.94 109,-41.54"/>
<polygon fill="midnightblue" stroke="midnightblue" points="105.5,-68.23 109,-78.23 112.5,-68.23 105.5,-68.23"/>
</g>
<!-- Node2 -->
<g id="node3" class="node">
<title>Node2</title>
<g id="a_node3"><a xlink:title=" ">
<polygon fill="none" stroke="#bfbfbf" points="0,-134.5 0,-153.5 74,-153.5 74,-134.5 0,-134.5"/>
<text text-anchor="middle" x="37" y="-141.5" font-family="Helvetica,sans-Serif" font-size="10.00">IDisposable</text>
</a>
</g>
</g>
<!-- Node2&#45;&gt;Node1 -->
<g id="edge2" class="edge">
<title>Node2&#45;&gt;Node1</title>
<path fill="none" stroke="midnightblue" d="M56.87,-128.1C69.82,-118.38 86.3,-106.03 97.22,-97.83"/>
<polygon fill="midnightblue" stroke="midnightblue" points="54.47,-125.52 48.57,-134.32 58.67,-131.12 54.47,-125.52"/>
</g>
<!-- Node3 -->
<g id="node4" class="node">
<title>Node3</title>
<g id="a_node4"><a xlink:title=" ">
<polygon fill="none" stroke="#bfbfbf" points="92.5,-134.5 92.5,-153.5 271.5,-153.5 271.5,-134.5 92.5,-134.5"/>
<text text-anchor="middle" x="182" y="-141.5" font-family="Helvetica,sans-Serif" font-size="10.00">IEnumerable&lt; IValueMetaData &gt;</text>
</a>
</g>
</g>
<!-- Node3&#45;&gt;Node1 -->
<g id="edge3" class="edge">
<title>Node3&#45;&gt;Node1</title>
<path fill="none" stroke="midnightblue" d="M161.86,-128.1C148.72,-118.38 132.02,-106.03 120.94,-97.83"/>
<polygon fill="midnightblue" stroke="midnightblue" points="160.15,-131.19 170.27,-134.32 164.31,-125.56 160.15,-131.19"/>
</g>
</g>
</svg>
