<?xml version="1.0" encoding="UTF-8" standalone="no"?>
<!DOCTYPE svg PUBLIC "-//W3C//DTD SVG 1.1//EN"
 "http://www.w3.org/Graphics/SVG/1.1/DTD/svg11.dtd">
<!-- Generated by graphviz version 2.43.0 (0)
 -->
<!-- Title: FiftyOne.DeviceDetection.Apple.AppleDecisionTreeNodeBase Pages: 1 -->
<svg width="596pt" height="88pt"
 viewBox="0.00 0.00 596.00 88.00" xmlns="http://www.w3.org/2000/svg" xmlns:xlink="http://www.w3.org/1999/xlink">
<g id="graph0" class="graph" transform="scale(1 1) rotate(0) translate(4 84)">
<title>FiftyOne.DeviceDetection.Apple.AppleDecisionTreeNodeBase</title>
<!-- Node0 -->
<g id="node1" class="node">
<title>Node0</title>
<g id="a_node1"><a xlink:title="Base class for nodes in the decision tree used by AppleDecisionTree.">
<polygon fill="#bfbfbf" stroke="black" points="171,-24.5 171,-54.5 358,-54.5 358,-24.5 171,-24.5"/>
<text text-anchor="start" x="179" y="-42.5" font-family="Helvetica,sans-Serif" font-size="10.00">FiftyOne.DeviceDetection.</text>
<text text-anchor="middle" x="264.5" y="-31.5" font-family="Helvetica,sans-Serif" font-size="10.00">Apple.AppleDecisionTreeNodeBase</text>
</a>
</g>
</g>
<!-- Node2 -->
<g id="node3" class="node">
<title>Node2</title>
<g id="a_node3"><a xlink:href="class_fifty_one_1_1_device_detection_1_1_apple_1_1_apple_decision_tree_node.html" target="_top" xlink:title="A node in the decision tree that matches an evidence value against a single expected value">
<polygon fill="none" stroke="black" points="409.5,-49.5 409.5,-79.5 572.5,-79.5 572.5,-49.5 409.5,-49.5"/>
<text text-anchor="start" x="417.5" y="-67.5" font-family="Helvetica,sans-Serif" font-size="10.00">FiftyOne.DeviceDetection.</text>
<text text-anchor="middle" x="491" y="-56.5" font-family="Helvetica,sans-Serif" font-size="10.00">Apple.AppleDecisionTreeNode</text>
</a>
</g>
</g>
<!-- Node0&#45;&gt;Node2 -->
<g id="edge2" class="edge">
<title>Node0&#45;&gt;Node2</title>
<path fill="none" stroke="midnightblue" d="M368.15,-50.93C382,-52.47 396.04,-54.04 409.43,-55.53"/>
<polygon fill="midnightblue" stroke="midnightblue" points="368.43,-47.44 358.11,-49.81 367.66,-54.4 368.43,-47.44"/>
</g>
<!-- Node3 -->
<g id="node4" class="node">
<title>Node3</title>
<g id="a_node4"><a xlink:href="class_fifty_one_1_1_device_detection_1_1_apple_1_1_apple_decision_tree_node_range.html" target="_top" xlink:title="A node in the decision tree that matches an evidence value against an expected range of values.">
<polygon fill="none" stroke="black" points="394,-0.5 394,-30.5 588,-30.5 588,-0.5 394,-0.5"/>
<text text-anchor="start" x="402" y="-18.5" font-family="Helvetica,sans-Serif" font-size="10.00">FiftyOne.DeviceDetection.</text>
<text text-anchor="middle" x="491" y="-7.5" font-family="Helvetica,sans-Serif" font-size="10.00">Apple.AppleDecisionTreeNodeRange</text>
</a>
</g>
</g>
<!-- Node0&#45;&gt;Node3 -->
<g id="edge3" class="edge">
<title>Node0&#45;&gt;Node3</title>
<path fill="none" stroke="midnightblue" d="M368.16,-28.53C376.75,-27.61 385.43,-26.68 393.97,-25.77"/>
<polygon fill="midnightblue" stroke="midnightblue" points="367.68,-25.06 358.11,-29.6 368.42,-32.02 367.68,-25.06"/>
</g>
<!-- Node1 -->
<g id="node2" class="node">
<title>Node1</title>
<g id="a_node2"><a xlink:href="interface_fifty_one_1_1_device_detection_1_1_apple_1_1_i_apple_decision_tree_node.html" target="_top" xlink:title=" ">
<polygon fill="none" stroke="black" points="0,-30 0,-49 135,-49 135,-30 0,-30"/>
<text text-anchor="middle" x="67.5" y="-37" font-family="Helvetica,sans-Serif" font-size="10.00">IAppleDecisionTreeNode</text>
</a>
</g>
</g>
<!-- Node1&#45;&gt;Node0 -->
<g id="edge1" class="edge">
<title>Node1&#45;&gt;Node0</title>
<path fill="none" stroke="midnightblue" d="M145.16,-39.5C153.53,-39.5 162.12,-39.5 170.67,-39.5"/>
<polygon fill="midnightblue" stroke="midnightblue" points="145.06,-36 135.06,-39.5 145.06,-43 145.06,-36"/>
</g>
</g>
</svg>
