<?xml version="1.0" encoding="UTF-8" standalone="no"?>
<!DOCTYPE svg PUBLIC "-//W3C//DTD SVG 1.1//EN"
 "http://www.w3.org/Graphics/SVG/1.1/DTD/svg11.dtd">
<!-- Generated by graphviz version 2.43.0 (0)
 -->
<!-- Title: FiftyOne.DeviceDetection.Apple.AppleDecisionTreeNodeRange Pages: 1 -->
<svg width="202pt" height="151pt"
 viewBox="0.00 0.00 202.00 151.00" xmlns="http://www.w3.org/2000/svg" xmlns:xlink="http://www.w3.org/1999/xlink">
<g id="graph0" class="graph" transform="scale(1 1) rotate(0) translate(4 147)">
<title>FiftyOne.DeviceDetection.Apple.AppleDecisionTreeNodeRange</title>
<!-- Node0 -->
<g id="node1" class="node">
<title>Node0</title>
<g id="a_node1"><a xlink:title="A node in the decision tree that matches an evidence value against an expected range of values.">
<polygon fill="#bfbfbf" stroke="black" points="0,-0.5 0,-30.5 194,-30.5 194,-0.5 0,-0.5"/>
<text text-anchor="start" x="8" y="-18.5" font-family="Helvetica,sans-Serif" font-size="10.00">FiftyOne.DeviceDetection.</text>
<text text-anchor="middle" x="97" y="-7.5" font-family="Helvetica,sans-Serif" font-size="10.00">Apple.AppleDecisionTreeNodeRange</text>
</a>
</g>
</g>
<!-- Node1 -->
<g id="node2" class="node">
<title>Node1</title>
<g id="a_node2"><a xlink:href="class_fifty_one_1_1_device_detection_1_1_apple_1_1_apple_decision_tree_node_base.html" target="_top" xlink:title="Base class for nodes in the decision tree used by AppleDecisionTree.">
<polygon fill="none" stroke="black" points="19,-67.5 19,-86.5 175,-86.5 175,-67.5 19,-67.5"/>
<text text-anchor="middle" x="97" y="-74.5" font-family="Helvetica,sans-Serif" font-size="10.00">AppleDecisionTreeNodeBase</text>
</a>
</g>
</g>
<!-- Node1&#45;&gt;Node0 -->
<g id="edge1" class="edge">
<title>Node1&#45;&gt;Node0</title>
<path fill="none" stroke="midnightblue" d="M97,-57.23C97,-48.59 97,-38.5 97,-30.52"/>
<polygon fill="midnightblue" stroke="midnightblue" points="93.5,-57.48 97,-67.48 100.5,-57.48 93.5,-57.48"/>
</g>
<!-- Node2 -->
<g id="node3" class="node">
<title>Node2</title>
<g id="a_node3"><a xlink:href="interface_fifty_one_1_1_device_detection_1_1_apple_1_1_i_apple_decision_tree_node.html" target="_top" xlink:title=" ">
<polygon fill="none" stroke="black" points="29.5,-123.5 29.5,-142.5 164.5,-142.5 164.5,-123.5 29.5,-123.5"/>
<text text-anchor="middle" x="97" y="-130.5" font-family="Helvetica,sans-Serif" font-size="10.00">IAppleDecisionTreeNode</text>
</a>
</g>
</g>
<!-- Node2&#45;&gt;Node1 -->
<g id="edge2" class="edge">
<title>Node2&#45;&gt;Node1</title>
<path fill="none" stroke="midnightblue" d="M97,-112.8C97,-103.91 97,-93.78 97,-86.75"/>
<polygon fill="midnightblue" stroke="midnightblue" points="93.5,-113.08 97,-123.08 100.5,-113.08 93.5,-113.08"/>
</g>
</g>
</svg>
