<?xml version="1.0" encoding="UTF-8" standalone="no"?>
<!DOCTYPE svg PUBLIC "-//W3C//DTD SVG 1.1//EN"
 "http://www.w3.org/Graphics/SVG/1.1/DTD/svg11.dtd">
<!-- Generated by graphviz version 2.43.0 (0)
 -->
<!-- Title: FiftyOne.DeviceDetection.Hash.Engine.OnPremise.Wrappers.RequiredPropertiesConfigSwigWrapper Pages: 1 -->
<svg width="641pt" height="100pt"
 viewBox="0.00 0.00 641.00 99.50" xmlns="http://www.w3.org/2000/svg" xmlns:xlink="http://www.w3.org/1999/xlink">
<g id="graph0" class="graph" transform="scale(1 1) rotate(0) translate(4 95.5)">
<title>FiftyOne.DeviceDetection.Hash.Engine.OnPremise.Wrappers.RequiredPropertiesConfigSwigWrapper</title>
<!-- Node2 -->
<g id="node1" class="node">
<title>Node2</title>
<g id="a_node1"><a xlink:title=" ">
<polygon fill="#bfbfbf" stroke="black" points="428,-28.5 428,-69.5 633,-69.5 633,-28.5 428,-28.5"/>
<text text-anchor="start" x="436" y="-57.5" font-family="Helvetica,sans-Serif" font-size="10.00">FiftyOne.DeviceDetection.</text>
<text text-anchor="start" x="436" y="-46.5" font-family="Helvetica,sans-Serif" font-size="10.00">Hash.Engine.OnPremise.Wrappers.</text>
<text text-anchor="middle" x="530.5" y="-35.5" font-family="Helvetica,sans-Serif" font-size="10.00">RequiredPropertiesConfigSwigWrapper</text>
</a>
</g>
</g>
<!-- Node3 -->
<g id="node2" class="node">
<title>Node3</title>
<g id="a_node2"><a xlink:href="interface_fifty_one_1_1_device_detection_1_1_hash_1_1_engine_1_1_on_premise_1_1_wrappers_1_1_i_re0819eb954f319e44e33a877f17993bb.html" target="_top" xlink:title=" ">
<polygon fill="none" stroke="black" points="198.5,-61 198.5,-91 341.5,-91 341.5,-61 198.5,-61"/>
<text text-anchor="start" x="206.5" y="-79" font-family="Helvetica,sans-Serif" font-size="10.00">IRequiredPropertiesConfig</text>
<text text-anchor="middle" x="270" y="-68" font-family="Helvetica,sans-Serif" font-size="10.00">SwigWrapper</text>
</a>
</g>
</g>
<!-- Node3&#45;&gt;Node2 -->
<g id="edge1" class="edge">
<title>Node3&#45;&gt;Node2</title>
<path fill="none" stroke="midnightblue" d="M351.8,-67.56C375.92,-65.04 402.67,-62.25 427.94,-59.61"/>
<polygon fill="midnightblue" stroke="midnightblue" points="351.22,-64.1 341.64,-68.62 351.95,-71.06 351.22,-64.1"/>
</g>
<!-- Node4 -->
<g id="node3" class="node">
<title>Node4</title>
<g id="a_node3"><a xlink:href="class_fifty_one_1_1_device_detection_1_1_hash_1_1_engine_1_1_on_premise_1_1_interop_1_1_required_properties_config_swig.html" target="_top" xlink:title=" ">
<polygon fill="none" stroke="black" points="183,-0.5 183,-41.5 357,-41.5 357,-0.5 183,-0.5"/>
<text text-anchor="start" x="191" y="-29.5" font-family="Helvetica,sans-Serif" font-size="10.00">FiftyOne.DeviceDetection.</text>
<text text-anchor="start" x="191" y="-18.5" font-family="Helvetica,sans-Serif" font-size="10.00">Hash.Engine.OnPremise.Interop.</text>
<text text-anchor="middle" x="270" y="-7.5" font-family="Helvetica,sans-Serif" font-size="10.00">RequiredPropertiesConfigSwig</text>
</a>
</g>
</g>
<!-- Node4&#45;&gt;Node2 -->
<g id="edge2" class="edge">
<title>Node4&#45;&gt;Node2</title>
<path fill="none" stroke="#9a32cd" stroke-dasharray="5,2" d="M367.27,-31.43C386.97,-33.56 407.77,-35.81 427.66,-37.97"/>
<polygon fill="#9a32cd" stroke="#9a32cd" points="367.4,-27.92 357.08,-30.32 366.64,-34.88 367.4,-27.92"/>
<text text-anchor="middle" x="392.5" y="-39" font-family="Helvetica,sans-Serif" font-size="10.00"> Object</text>
</g>
<!-- Node5 -->
<g id="node4" class="node">
<title>Node5</title>
<g id="a_node4"><a xlink:title=" ">
<polygon fill="none" stroke="#bfbfbf" points="0,-11.5 0,-30.5 146,-30.5 146,-11.5 0,-11.5"/>
<text text-anchor="middle" x="73" y="-18.5" font-family="Helvetica,sans-Serif" font-size="10.00">global::SystemIDisposable</text>
</a>
</g>
</g>
<!-- Node5&#45;&gt;Node4 -->
<g id="edge3" class="edge">
<title>Node5&#45;&gt;Node4</title>
<path fill="none" stroke="midnightblue" d="M156.24,-21C164.99,-21 173.92,-21 182.71,-21"/>
<polygon fill="midnightblue" stroke="midnightblue" points="156.06,-17.5 146.06,-21 156.06,-24.5 156.06,-17.5"/>
</g>
</g>
</svg>
