<?xml version="1.0" encoding="UTF-8" standalone="no"?>
<!DOCTYPE svg PUBLIC "-//W3C//DTD SVG 1.1//EN"
 "http://www.w3.org/Graphics/SVG/1.1/DTD/svg11.dtd">
<!-- Generated by graphviz version 2.43.0 (0)
 -->
<!-- Title: AppleServerSide_Console.Program.Example Pages: 1 -->
<svg width="152pt" height="151pt"
 viewBox="0.00 0.00 152.00 151.00" xmlns="http://www.w3.org/2000/svg" xmlns:xlink="http://www.w3.org/1999/xlink">
<g id="graph0" class="graph" transform="scale(1 1) rotate(0) translate(4 147)">
<title>AppleServerSide_Console.Program.Example</title>
<!-- Node3 -->
<g id="node1" class="node">
<title>Node3</title>
<g id="a_node1"><a xlink:title=" ">
<polygon fill="#bfbfbf" stroke="black" points="0,-0.5 0,-30.5 144,-30.5 144,-0.5 0,-0.5"/>
<text text-anchor="start" x="8" y="-18.5" font-family="Helvetica,sans-Serif" font-size="10.00">AppleServerSide_Console.</text>
<text text-anchor="middle" x="72" y="-7.5" font-family="Helvetica,sans-Serif" font-size="10.00">Program.Example</text>
</a>
</g>
</g>
<!-- Node4 -->
<g id="node2" class="node">
<title>Node4</title>
<g id="a_node2"><a xlink:href="class_fifty_one_1_1_device_detection_1_1_examples_1_1_apple_example_base.html" target="_top" xlink:title=" ">
<polygon fill="none" stroke="black" points="16.5,-67.5 16.5,-86.5 127.5,-86.5 127.5,-67.5 16.5,-67.5"/>
<text text-anchor="middle" x="72" y="-74.5" font-family="Helvetica,sans-Serif" font-size="10.00">AppleExampleBase</text>
</a>
</g>
</g>
<!-- Node4&#45;&gt;Node3 -->
<g id="edge1" class="edge">
<title>Node4&#45;&gt;Node3</title>
<path fill="none" stroke="midnightblue" d="M65.7,-57.53C64.97,-48.81 65.13,-38.59 66.17,-30.52"/>
<polygon fill="midnightblue" stroke="midnightblue" points="62.24,-58.06 67.1,-67.48 69.17,-57.09 62.24,-58.06"/>
</g>
<!-- Node4&#45;&gt;Node3 -->
<g id="edge3" class="edge">
<title>Node4&#45;&gt;Node3</title>
<path fill="none" stroke="midnightblue" d="M78.3,-57.53C79.03,-48.81 78.87,-38.59 77.83,-30.52"/>
<polygon fill="midnightblue" stroke="midnightblue" points="74.83,-57.09 76.9,-67.48 81.76,-58.06 74.83,-57.09"/>
</g>
<!-- Node5 -->
<g id="node3" class="node">
<title>Node5</title>
<g id="a_node3"><a xlink:href="class_fifty_one_1_1_device_detection_1_1_examples_1_1_example_base.html" target="_top" xlink:title=" ">
<polygon fill="none" stroke="black" points="30.5,-123.5 30.5,-142.5 113.5,-142.5 113.5,-123.5 30.5,-123.5"/>
<text text-anchor="middle" x="72" y="-130.5" font-family="Helvetica,sans-Serif" font-size="10.00">ExampleBase</text>
</a>
</g>
</g>
<!-- Node5&#45;&gt;Node4 -->
<g id="edge2" class="edge">
<title>Node5&#45;&gt;Node4</title>
<path fill="none" stroke="midnightblue" d="M72,-112.8C72,-103.91 72,-93.78 72,-86.75"/>
<polygon fill="midnightblue" stroke="midnightblue" points="68.5,-113.08 72,-123.08 75.5,-113.08 68.5,-113.08"/>
</g>
</g>
</svg>
