<?xml version="1.0" encoding="UTF-8" standalone="no"?>
<!DOCTYPE svg PUBLIC "-//W3C//DTD SVG 1.1//EN"
 "http://www.w3.org/Graphics/SVG/1.1/DTD/svg11.dtd">
<!-- Generated by graphviz version 2.43.0 (0)
 -->
<!-- Title: FiftyOne.DeviceDetection.Examples.ExampleBase Pages: 1 -->
<svg width="406pt" height="410pt"
 viewBox="0.00 0.00 406.00 410.00" xmlns="http://www.w3.org/2000/svg" xmlns:xlink="http://www.w3.org/1999/xlink">
<g id="graph0" class="graph" transform="scale(1 1) rotate(0) translate(4 406)">
<title>FiftyOne.DeviceDetection.Examples.ExampleBase</title>
<!-- Node0 -->
<g id="node1" class="node">
<title>Node0</title>
<g id="a_node1"><a xlink:title=" ">
<polygon fill="#bfbfbf" stroke="black" points="0,-186 0,-216 144,-216 144,-186 0,-186"/>
<text text-anchor="start" x="8" y="-204" font-family="Helvetica,sans-Serif" font-size="10.00">FiftyOne.DeviceDetection.</text>
<text text-anchor="middle" x="72" y="-193" font-family="Helvetica,sans-Serif" font-size="10.00">Examples.ExampleBase</text>
</a>
</g>
</g>
<!-- Node1 -->
<g id="node2" class="node">
<title>Node1</title>
<g id="a_node2"><a xlink:href="class_fifty_one_1_1_device_detection_1_1_examples_1_1_cloud_1_1_metadata_1_1_program_1_1_example.html" target="_top" xlink:title=" ">
<polygon fill="none" stroke="black" points="193,-360.5 193,-401.5 385,-401.5 385,-360.5 193,-360.5"/>
<text text-anchor="start" x="201" y="-389.5" font-family="Helvetica,sans-Serif" font-size="10.00">FiftyOne.DeviceDetection.</text>
<text text-anchor="start" x="201" y="-378.5" font-family="Helvetica,sans-Serif" font-size="10.00">Examples.Cloud.Metadata.Program.</text>
<text text-anchor="middle" x="289" y="-367.5" font-family="Helvetica,sans-Serif" font-size="10.00">Example</text>
</a>
</g>
</g>
<!-- Node0&#45;&gt;Node1 -->
<g id="edge1" class="edge">
<title>Node0&#45;&gt;Node1</title>
<path fill="none" stroke="midnightblue" d="M83.9,-225.48C100.05,-258.92 133.5,-318.43 180,-351 185.1,-354.57 190.61,-357.72 196.36,-360.5"/>
<polygon fill="midnightblue" stroke="midnightblue" points="87.05,-223.96 79.63,-216.4 80.71,-226.93 87.05,-223.96"/>
</g>
<!-- Node2 -->
<g id="node3" class="node">
<title>Node2</title>
<g id="a_node3"><a xlink:href="class_fifty_one_1_1_device_detection_1_1_examples_1_1_on_premise_1_1_getting_started_console_1_1_program_1_1_example.html" target="_top" xlink:title=" ">
<polygon fill="none" stroke="black" points="191.5,-300.5 191.5,-341.5 386.5,-341.5 386.5,-300.5 191.5,-300.5"/>
<text text-anchor="start" x="199.5" y="-329.5" font-family="Helvetica,sans-Serif" font-size="10.00">FiftyOne.DeviceDetection.</text>
<text text-anchor="start" x="199.5" y="-318.5" font-family="Helvetica,sans-Serif" font-size="10.00">Examples.OnPremise.GettingStarted</text>
<text text-anchor="middle" x="289" y="-307.5" font-family="Helvetica,sans-Serif" font-size="10.00">Console.Program.Example</text>
</a>
</g>
</g>
<!-- Node0&#45;&gt;Node2 -->
<g id="edge2" class="edge">
<title>Node0&#45;&gt;Node2</title>
<path fill="none" stroke="midnightblue" d="M93.87,-223.36C114.07,-243.76 146.49,-273.33 180,-291 186.63,-294.49 193.7,-297.62 200.95,-300.4"/>
<polygon fill="midnightblue" stroke="midnightblue" points="96.23,-220.77 86.74,-216.04 91.21,-225.65 96.23,-220.77"/>
</g>
<!-- Node3 -->
<g id="node4" class="node">
<title>Node3</title>
<g id="a_node4"><a xlink:href="class_fifty_one_1_1_device_detection_1_1_examples_1_1_on_premise_1_1_match_metrics_1_1_program_1_1_example.html" target="_top" xlink:title=" ">
<polygon fill="none" stroke="black" points="192.5,-240.5 192.5,-281.5 385.5,-281.5 385.5,-240.5 192.5,-240.5"/>
<text text-anchor="start" x="200.5" y="-269.5" font-family="Helvetica,sans-Serif" font-size="10.00">FiftyOne.DeviceDetection.</text>
<text text-anchor="start" x="200.5" y="-258.5" font-family="Helvetica,sans-Serif" font-size="10.00">Examples.OnPremise.MatchMetrics.</text>
<text text-anchor="middle" x="289" y="-247.5" font-family="Helvetica,sans-Serif" font-size="10.00">Program.Example</text>
</a>
</g>
</g>
<!-- Node0&#45;&gt;Node3 -->
<g id="edge3" class="edge">
<title>Node0&#45;&gt;Node3</title>
<path fill="none" stroke="midnightblue" d="M136.38,-218.8C150.72,-222.82 165.88,-227.06 180,-231 190.97,-234.06 202.56,-237.29 213.92,-240.45"/>
<polygon fill="midnightblue" stroke="midnightblue" points="137.18,-215.39 126.6,-216.06 135.29,-222.13 137.18,-215.39"/>
</g>
<!-- Node4 -->
<g id="node5" class="node">
<title>Node4</title>
<g id="a_node5"><a xlink:href="class_fifty_one_1_1_device_detection_1_1_examples_1_1_on_premise_1_1_metadata_1_1_program_1_1_example.html" target="_top" xlink:title=" ">
<polygon fill="none" stroke="black" points="180,-180.5 180,-221.5 398,-221.5 398,-180.5 180,-180.5"/>
<text text-anchor="start" x="188" y="-209.5" font-family="Helvetica,sans-Serif" font-size="10.00">FiftyOne.DeviceDetection.</text>
<text text-anchor="start" x="188" y="-198.5" font-family="Helvetica,sans-Serif" font-size="10.00">Examples.OnPremise.Metadata.Program.</text>
<text text-anchor="middle" x="289" y="-187.5" font-family="Helvetica,sans-Serif" font-size="10.00">Example</text>
</a>
</g>
</g>
<!-- Node0&#45;&gt;Node4 -->
<g id="edge4" class="edge">
<title>Node0&#45;&gt;Node4</title>
<path fill="none" stroke="midnightblue" d="M154.56,-201C162.78,-201 171.2,-201 179.63,-201"/>
<polygon fill="midnightblue" stroke="midnightblue" points="154.29,-197.5 144.29,-201 154.29,-204.5 154.29,-197.5"/>
</g>
<!-- Node5 -->
<g id="node6" class="node">
<title>Node5</title>
<g id="a_node6"><a xlink:href="class_fifty_one_1_1_device_detection_1_1_examples_1_1_on_premise_1_1_offline_processing_1_1_program_1_1_example.html" target="_top" xlink:title=" ">
<polygon fill="none" stroke="black" points="183,-120.5 183,-161.5 395,-161.5 395,-120.5 183,-120.5"/>
<text text-anchor="start" x="191" y="-149.5" font-family="Helvetica,sans-Serif" font-size="10.00">FiftyOne.DeviceDetection.</text>
<text text-anchor="start" x="191" y="-138.5" font-family="Helvetica,sans-Serif" font-size="10.00">Examples.OnPremise.OfflineProcessing.</text>
<text text-anchor="middle" x="289" y="-127.5" font-family="Helvetica,sans-Serif" font-size="10.00">Program.Example</text>
</a>
</g>
</g>
<!-- Node0&#45;&gt;Node5 -->
<g id="edge5" class="edge">
<title>Node0&#45;&gt;Node5</title>
<path fill="none" stroke="midnightblue" d="M136.38,-183.2C150.72,-179.18 165.88,-174.94 180,-171 190.97,-167.94 202.56,-164.71 213.92,-161.55"/>
<polygon fill="midnightblue" stroke="midnightblue" points="135.29,-179.87 126.6,-185.94 137.18,-186.61 135.29,-179.87"/>
</g>
<!-- Node6 -->
<g id="node7" class="node">
<title>Node6</title>
<g id="a_node7"><a xlink:href="class_fifty_one_1_1_device_detection_1_1_examples_1_1_on_premise_1_1_performance_1_1_program_1_1_example.html" target="_top" xlink:title=" ">
<polygon fill="none" stroke="black" points="194.5,-60.5 194.5,-101.5 383.5,-101.5 383.5,-60.5 194.5,-60.5"/>
<text text-anchor="start" x="202.5" y="-89.5" font-family="Helvetica,sans-Serif" font-size="10.00">FiftyOne.DeviceDetection.</text>
<text text-anchor="start" x="202.5" y="-78.5" font-family="Helvetica,sans-Serif" font-size="10.00">Examples.OnPremise.Performance.</text>
<text text-anchor="middle" x="289" y="-67.5" font-family="Helvetica,sans-Serif" font-size="10.00">Program.Example</text>
</a>
</g>
</g>
<!-- Node0&#45;&gt;Node6 -->
<g id="edge6" class="edge">
<title>Node0&#45;&gt;Node6</title>
<path fill="none" stroke="midnightblue" d="M93.87,-178.64C114.07,-158.24 146.49,-128.67 180,-111 186.63,-107.51 193.7,-104.38 200.95,-101.6"/>
<polygon fill="midnightblue" stroke="midnightblue" points="91.21,-176.35 86.74,-185.96 96.23,-181.23 91.21,-176.35"/>
</g>
<!-- Node7 -->
<g id="node8" class="node">
<title>Node7</title>
<g id="a_node8"><a xlink:href="class_fifty_one_1_1_device_detection_1_1_examples_1_1_on_premise_1_1_update_data_file_1_1_program_1_1_example.html" target="_top" xlink:title=" ">
<polygon fill="none" stroke="black" points="187.5,-0.5 187.5,-41.5 390.5,-41.5 390.5,-0.5 187.5,-0.5"/>
<text text-anchor="start" x="195.5" y="-29.5" font-family="Helvetica,sans-Serif" font-size="10.00">FiftyOne.DeviceDetection.</text>
<text text-anchor="start" x="195.5" y="-18.5" font-family="Helvetica,sans-Serif" font-size="10.00">Examples.OnPremise.UpdateDataFile.</text>
<text text-anchor="middle" x="289" y="-7.5" font-family="Helvetica,sans-Serif" font-size="10.00">Program.Example</text>
</a>
</g>
</g>
<!-- Node0&#45;&gt;Node7 -->
<g id="edge7" class="edge">
<title>Node0&#45;&gt;Node7</title>
<path fill="none" stroke="midnightblue" d="M83.9,-176.52C100.05,-143.08 133.5,-83.57 180,-51 185.1,-47.43 190.61,-44.28 196.36,-41.5"/>
<polygon fill="midnightblue" stroke="midnightblue" points="80.71,-175.07 79.63,-185.6 87.05,-178.04 80.71,-175.07"/>
</g>
</g>
</svg>
