<?xml version="1.0" encoding="UTF-8" standalone="no"?>
<!DOCTYPE svg PUBLIC "-//W3C//DTD SVG 1.1//EN"
 "http://www.w3.org/Graphics/SVG/1.1/DTD/svg11.dtd">
<!-- Generated by graphviz version 2.43.0 (0)
 -->
<!-- Title: FiftyOne.DeviceDetection.Hash.Engine.OnPremise.Interop.ResultsDeviceDetectionSwig Pages: 1 -->
<svg width="182pt" height="240pt"
 viewBox="0.00 0.00 182.00 240.00" xmlns="http://www.w3.org/2000/svg" xmlns:xlink="http://www.w3.org/1999/xlink">
<g id="graph0" class="graph" transform="scale(1 1) rotate(0) translate(4 236)">
<title>FiftyOne.DeviceDetection.Hash.Engine.OnPremise.Interop.ResultsDeviceDetectionSwig</title>
<!-- Node0 -->
<g id="node1" class="node">
<title>Node0</title>
<g id="a_node1"><a xlink:title=" ">
<polygon fill="#bfbfbf" stroke="black" points="0,-78.5 0,-119.5 174,-119.5 174,-78.5 0,-78.5"/>
<text text-anchor="start" x="8" y="-107.5" font-family="Helvetica,sans-Serif" font-size="10.00">FiftyOne.DeviceDetection.</text>
<text text-anchor="start" x="8" y="-96.5" font-family="Helvetica,sans-Serif" font-size="10.00">Hash.Engine.OnPremise.Interop.</text>
<text text-anchor="middle" x="87" y="-85.5" font-family="Helvetica,sans-Serif" font-size="10.00">ResultsDeviceDetectionSwig</text>
</a>
</g>
</g>
<!-- Node3 -->
<g id="node4" class="node">
<title>Node3</title>
<g id="a_node4"><a xlink:href="class_fifty_one_1_1_device_detection_1_1_hash_1_1_engine_1_1_on_premise_1_1_interop_1_1_results_hash_swig.html" target="_top" xlink:title=" ">
<polygon fill="none" stroke="black" points="0,-0.5 0,-41.5 174,-41.5 174,-0.5 0,-0.5"/>
<text text-anchor="start" x="8" y="-29.5" font-family="Helvetica,sans-Serif" font-size="10.00">FiftyOne.DeviceDetection.</text>
<text text-anchor="start" x="8" y="-18.5" font-family="Helvetica,sans-Serif" font-size="10.00">Hash.Engine.OnPremise.Interop.</text>
<text text-anchor="middle" x="87" y="-7.5" font-family="Helvetica,sans-Serif" font-size="10.00">ResultsHashSwig</text>
</a>
</g>
</g>
<!-- Node0&#45;&gt;Node3 -->
<g id="edge3" class="edge">
<title>Node0&#45;&gt;Node3</title>
<path fill="none" stroke="midnightblue" d="M87,-68.3C87,-59.3 87,-49.65 87,-41.51"/>
<polygon fill="midnightblue" stroke="midnightblue" points="83.5,-68.43 87,-78.43 90.5,-68.43 83.5,-68.43"/>
</g>
<!-- Node1 -->
<g id="node2" class="node">
<title>Node1</title>
<g id="a_node2"><a xlink:href="class_fifty_one_1_1_device_detection_1_1_hash_1_1_engine_1_1_on_premise_1_1_interop_1_1_results_base_swig.html" target="_top" xlink:title=" ">
<polygon fill="none" stroke="black" points="37,-156.5 37,-175.5 137,-175.5 137,-156.5 37,-156.5"/>
<text text-anchor="middle" x="87" y="-163.5" font-family="Helvetica,sans-Serif" font-size="10.00">ResultsBaseSwig</text>
</a>
</g>
</g>
<!-- Node1&#45;&gt;Node0 -->
<g id="edge1" class="edge">
<title>Node1&#45;&gt;Node0</title>
<path fill="none" stroke="midnightblue" d="M87,-146.04C87,-137.71 87,-127.94 87,-119.54"/>
<polygon fill="midnightblue" stroke="midnightblue" points="83.5,-146.23 87,-156.23 90.5,-146.23 83.5,-146.23"/>
</g>
<!-- Node2 -->
<g id="node3" class="node">
<title>Node2</title>
<g id="a_node3"><a xlink:title=" ">
<polygon fill="none" stroke="#bfbfbf" points="14,-212.5 14,-231.5 160,-231.5 160,-212.5 14,-212.5"/>
<text text-anchor="middle" x="87" y="-219.5" font-family="Helvetica,sans-Serif" font-size="10.00">global::SystemIDisposable</text>
</a>
</g>
</g>
<!-- Node2&#45;&gt;Node1 -->
<g id="edge2" class="edge">
<title>Node2&#45;&gt;Node1</title>
<path fill="none" stroke="midnightblue" d="M87,-201.8C87,-192.91 87,-182.78 87,-175.75"/>
<polygon fill="midnightblue" stroke="midnightblue" points="83.5,-202.08 87,-212.08 90.5,-202.08 83.5,-202.08"/>
</g>
</g>
</svg>
