<?xml version="1.0" encoding="UTF-8" standalone="no"?>
<!DOCTYPE svg PUBLIC "-//W3C//DTD SVG 1.1//EN"
 "http://www.w3.org/Graphics/SVG/1.1/DTD/svg11.dtd">
<!-- Generated by graphviz version 2.43.0 (0)
 -->
<!-- Title: FiftyOne.DeviceDetection.Uach.UachJsConversionElement Pages: 1 -->
<svg width="312pt" height="106pt"
 viewBox="0.00 0.00 312.00 106.00" xmlns="http://www.w3.org/2000/svg" xmlns:xlink="http://www.w3.org/1999/xlink">
<g id="graph0" class="graph" transform="scale(1 1) rotate(0) translate(4 102)">
<title>FiftyOne.DeviceDetection.Uach.UachJsConversionElement</title>
<!-- Node3 -->
<g id="node1" class="node">
<title>Node3</title>
<g id="a_node1"><a xlink:title="This is an IFlowElement implementation that converts evidence values from the User&#45;Agent Client Hints...">
<polygon fill="#bfbfbf" stroke="black" points="95,-0.5 95,-30.5 268,-30.5 268,-0.5 95,-0.5"/>
<text text-anchor="start" x="103" y="-18.5" font-family="Helvetica,sans-Serif" font-size="10.00">FiftyOne.DeviceDetection.</text>
<text text-anchor="middle" x="181.5" y="-7.5" font-family="Helvetica,sans-Serif" font-size="10.00">Uach.UachJsConversionElement</text>
</a>
</g>
</g>
<!-- Node4 -->
<g id="node2" class="node">
<title>Node4</title>
<g id="a_node2"><a xlink:title=" ">
<polygon fill="none" stroke="#bfbfbf" points="0,-67.5 0,-97.5 203,-97.5 203,-67.5 0,-67.5"/>
<text text-anchor="start" x="8" y="-85.5" font-family="Helvetica,sans-Serif" font-size="10.00">FlowElementBase&lt; UachJsConversion</text>
<text text-anchor="middle" x="101.5" y="-74.5" font-family="Helvetica,sans-Serif" font-size="10.00">Data, IElementPropertyMetaData &gt;</text>
</a>
</g>
</g>
<!-- Node4&#45;&gt;Node3 -->
<g id="edge1" class="edge">
<title>Node4&#45;&gt;Node3</title>
<path fill="none" stroke="midnightblue" d="M126.87,-60.88C139.03,-51.01 153.28,-39.43 164.18,-30.58"/>
<polygon fill="midnightblue" stroke="midnightblue" points="124.41,-58.37 118.86,-67.4 128.83,-63.81 124.41,-58.37"/>
</g>
<!-- Node5 -->
<g id="node3" class="node">
<title>Node5</title>
<g id="a_node3"><a xlink:title=" ">
<polygon fill="none" stroke="#bfbfbf" points="221,-73 221,-92 304,-92 304,-73 221,-73"/>
<text text-anchor="middle" x="262.5" y="-80" font-family="Helvetica,sans-Serif" font-size="10.00">IFlowElement</text>
</a>
</g>
</g>
<!-- Node5&#45;&gt;Node3 -->
<g id="edge2" class="edge">
<title>Node5&#45;&gt;Node3</title>
<path fill="none" stroke="midnightblue" d="M243.48,-66.24C230.04,-55.45 212.16,-41.1 199.06,-30.59"/>
<polygon fill="midnightblue" stroke="midnightblue" points="241.59,-69.2 251.58,-72.73 245.97,-63.75 241.59,-69.2"/>
</g>
</g>
</svg>
