<?xml version="1.0" encoding="UTF-8" standalone="no"?>
<!DOCTYPE svg PUBLIC "-//W3C//DTD SVG 1.1//EN"
 "http://www.w3.org/Graphics/SVG/1.1/DTD/svg11.dtd">
<!-- Generated by graphviz version 2.43.0 (0)
 -->
<!-- Title: Graphical Class Hierarchy Pages: 1 -->
<svg width="483pt" height="116pt"
 viewBox="0.00 0.00 483.00 115.50" xmlns="http://www.w3.org/2000/svg" xmlns:xlink="http://www.w3.org/1999/xlink">
<g id="graph0" class="graph" transform="scale(1 1) rotate(0) translate(4 111.5)">
<title>Graphical Class Hierarchy</title>
<!-- Node217 -->
<g id="node1" class="node">
<title>Node217</title>
<g id="a_node1"><a xlink:title=" ">
<polygon fill="none" stroke="#bfbfbf" points="135.5,-38.5 135.5,-57.5 232.5,-57.5 232.5,-38.5 135.5,-38.5"/>
<text text-anchor="middle" x="184" y="-45.5" font-family="Helvetica,sans-Serif" font-size="10.00">AspectDataBase</text>
</a>
</g>
</g>
<!-- Node151 -->
<g id="node2" class="node">
<title>Node151</title>
<g id="a_node2"><a xlink:href="class_fifty_one_1_1_device_detection_1_1_apple_1_1_apple_profile_data.html" target="_top" xlink:title="The data populated by AppleProfileEngine">
<polygon fill="none" stroke="black" points="311.5,-68 311.5,-98 455.5,-98 455.5,-68 311.5,-68"/>
<text text-anchor="start" x="319.5" y="-86" font-family="Helvetica,sans-Serif" font-size="10.00">FiftyOne.DeviceDetection.</text>
<text text-anchor="middle" x="383.5" y="-75" font-family="Helvetica,sans-Serif" font-size="10.00">Apple.AppleProfileData</text>
</a>
</g>
</g>
<!-- Node217&#45;&gt;Node151 -->
<g id="edge1" class="edge">
<title>Node217&#45;&gt;Node151</title>
<path fill="none" stroke="midnightblue" d="M242.53,-58.2C264.07,-62.01 288.8,-66.39 311.42,-70.4"/>
<polygon fill="midnightblue" stroke="midnightblue" points="243.01,-54.73 232.56,-56.43 241.79,-61.62 243.01,-54.73"/>
</g>
<!-- Node0 -->
<g id="node3" class="node">
<title>Node0</title>
<g id="a_node3"><a xlink:href="class_fifty_one_1_1_device_detection_1_1_cloud_1_1_data_1_1_multi_device_data_cloud.html" target="_top" xlink:title="A data class that is used to access details of cloud responses that contain multiple device data reco...">
<polygon fill="none" stroke="black" points="292,-11 292,-41 475,-41 475,-11 292,-11"/>
<text text-anchor="start" x="300" y="-29" font-family="Helvetica,sans-Serif" font-size="10.00">FiftyOne.DeviceDetection.</text>
<text text-anchor="middle" x="383.5" y="-18" font-family="Helvetica,sans-Serif" font-size="10.00">Cloud.Data.MultiDeviceDataCloud</text>
</a>
</g>
</g>
<!-- Node217&#45;&gt;Node0 -->
<g id="edge2" class="edge">
<title>Node217&#45;&gt;Node0</title>
<path fill="none" stroke="midnightblue" d="M242.87,-41.55C258.18,-39.85 275.07,-37.97 291.66,-36.12"/>
<polygon fill="midnightblue" stroke="midnightblue" points="242.11,-38.12 232.56,-42.7 242.88,-45.07 242.11,-38.12"/>
</g>
<!-- Node149 -->
<g id="node4" class="node">
<title>Node149</title>
<g id="a_node4"><a xlink:title=" ">
<polygon fill="none" stroke="#bfbfbf" points="0,-82.5 0,-101.5 76,-101.5 76,-82.5 0,-82.5"/>
<text text-anchor="middle" x="38" y="-89.5" font-family="Helvetica,sans-Serif" font-size="10.00">IAspectData</text>
</a>
</g>
</g>
<!-- Node150 -->
<g id="node5" class="node">
<title>Node150</title>
<g id="a_node5"><a xlink:href="interface_fifty_one_1_1_device_detection_1_1_apple_1_1_i_apple_profile_data.html" target="_top" xlink:title="The data interface populated by AppleProfileEngine">
<polygon fill="none" stroke="black" points="112,-77 112,-107 256,-107 256,-77 112,-77"/>
<text text-anchor="start" x="120" y="-95" font-family="Helvetica,sans-Serif" font-size="10.00">FiftyOne.DeviceDetection.</text>
<text text-anchor="middle" x="184" y="-84" font-family="Helvetica,sans-Serif" font-size="10.00">Apple.IAppleProfileData</text>
</a>
</g>
</g>
<!-- Node149&#45;&gt;Node150 -->
<g id="edge3" class="edge">
<title>Node149&#45;&gt;Node150</title>
<path fill="none" stroke="midnightblue" d="M86.22,-92C94.46,-92 103.2,-92 111.92,-92"/>
<polygon fill="midnightblue" stroke="midnightblue" points="86.08,-88.5 76.08,-92 86.08,-95.5 86.08,-88.5"/>
</g>
<!-- Node150&#45;&gt;Node151 -->
<g id="edge4" class="edge">
<title>Node150&#45;&gt;Node151</title>
<path fill="none" stroke="midnightblue" d="M266.29,-88.3C281.26,-87.61 296.8,-86.91 311.44,-86.24"/>
<polygon fill="midnightblue" stroke="midnightblue" points="265.85,-84.81 256.02,-88.76 266.17,-91.8 265.85,-84.81"/>
</g>
<!-- Node109 -->
<g id="node6" class="node">
<title>Node109</title>
<g id="a_node6"><a xlink:title=" ">
<polygon fill="none" stroke="#bfbfbf" points="135,-0.5 135,-19.5 233,-19.5 233,-0.5 135,-0.5"/>
<text text-anchor="middle" x="184" y="-7.5" font-family="Helvetica,sans-Serif" font-size="10.00">IMultiProfileData</text>
</a>
</g>
</g>
<!-- Node109&#45;&gt;Node0 -->
<g id="edge5" class="edge">
<title>Node109&#45;&gt;Node0</title>
<path fill="none" stroke="midnightblue" d="M243.31,-14.72C258.5,-15.95 275.23,-17.31 291.67,-18.64"/>
<polygon fill="midnightblue" stroke="midnightblue" points="243.31,-11.21 233.06,-13.89 242.75,-18.19 243.31,-11.21"/>
</g>
</g>
</svg>
