<?xml version="1.0" encoding="UTF-8" standalone="no"?>
<!DOCTYPE svg PUBLIC "-//W3C//DTD SVG 1.1//EN"
 "http://www.w3.org/Graphics/SVG/1.1/DTD/svg11.dtd">
<!-- Generated by graphviz version 2.43.0 (0)
 -->
<!-- Title: Graphical Class Hierarchy Pages: 1 -->
<svg width="309pt" height="220pt"
 viewBox="0.00 0.00 309.00 219.50" xmlns="http://www.w3.org/2000/svg" xmlns:xlink="http://www.w3.org/1999/xlink">
<g id="graph0" class="graph" transform="scale(1 1) rotate(0) translate(4 215.5)">
<title>Graphical Class Hierarchy</title>
<!-- Node29 -->
<g id="node1" class="node">
<title>Node29</title>
<g id="a_node1"><a xlink:title=" ">
<polygon fill="none" stroke="#bfbfbf" points="0,-91 0,-110 70,-110 70,-91 0,-91"/>
<text text-anchor="middle" x="35" y="-98" font-family="Helvetica,sans-Serif" font-size="10.00">PageModel</text>
</a>
</g>
</g>
<!-- Node0 -->
<g id="node2" class="node">
<title>Node0</title>
<g id="a_node2"><a xlink:href="class_fifty_one_1_1_device_detection_1_1_examples_1_1_cloud_1_1_getting_started_web_1_1_client_only_1_1_pages_1_1_model.html" target="_top" xlink:title=" ">
<polygon fill="none" stroke="black" points="106.5,-170 106.5,-211 300.5,-211 300.5,-170 106.5,-170"/>
<text text-anchor="start" x="114.5" y="-199" font-family="Helvetica,sans-Serif" font-size="10.00">FiftyOne.DeviceDetection.</text>
<text text-anchor="start" x="114.5" y="-188" font-family="Helvetica,sans-Serif" font-size="10.00">Examples.Cloud.GettingStartedWeb.</text>
<text text-anchor="middle" x="203.5" y="-177" font-family="Helvetica,sans-Serif" font-size="10.00">ClientOnly.Pages.Model</text>
</a>
</g>
</g>
<!-- Node29&#45;&gt;Node0 -->
<g id="edge1" class="edge">
<title>Node29&#45;&gt;Node0</title>
<path fill="none" stroke="midnightblue" d="M52.03,-117.64C65.35,-130.99 85.39,-149.11 106,-160.5 112.3,-163.98 119.05,-167.12 125.95,-169.93"/>
<polygon fill="midnightblue" stroke="midnightblue" points="54.49,-115.15 45.01,-110.42 49.47,-120.03 54.49,-115.15"/>
</g>
<!-- Node31 -->
<g id="node3" class="node">
<title>Node31</title>
<g id="a_node3"><a xlink:href="class_fifty_one_1_1_device_detection_1_1_examples_1_1_cloud_1_1_getting_started_web_1_1_pages_1_1_index_model.html" target="_top" xlink:title=" ">
<polygon fill="none" stroke="black" points="106.5,-110 106.5,-151 300.5,-151 300.5,-110 106.5,-110"/>
<text text-anchor="start" x="114.5" y="-139" font-family="Helvetica,sans-Serif" font-size="10.00">FiftyOne.DeviceDetection.</text>
<text text-anchor="start" x="114.5" y="-128" font-family="Helvetica,sans-Serif" font-size="10.00">Examples.Cloud.GettingStartedWeb.</text>
<text text-anchor="middle" x="203.5" y="-117" font-family="Helvetica,sans-Serif" font-size="10.00">Pages.IndexModel</text>
</a>
</g>
</g>
<!-- Node29&#45;&gt;Node31 -->
<g id="edge2" class="edge">
<title>Node29&#45;&gt;Node31</title>
<path fill="none" stroke="midnightblue" d="M80.09,-108.44C88.28,-109.92 97.13,-111.51 106.18,-113.15"/>
<polygon fill="midnightblue" stroke="midnightblue" points="80.56,-104.97 70.1,-106.64 79.32,-111.86 80.56,-104.97"/>
</g>
<!-- Node32 -->
<g id="node4" class="node">
<title>Node32</title>
<g id="a_node4"><a xlink:href="class_fifty_one_1_1_device_detection_1_1_examples_1_1_on_premise_1_1_getting_started_web_1_1_pages_1_1_index_model.html" target="_top" xlink:title=" ">
<polygon fill="none" stroke="black" points="106,-50 106,-91 301,-91 301,-50 106,-50"/>
<text text-anchor="start" x="114" y="-79" font-family="Helvetica,sans-Serif" font-size="10.00">FiftyOne.DeviceDetection.</text>
<text text-anchor="start" x="114" y="-68" font-family="Helvetica,sans-Serif" font-size="10.00">Examples.OnPremise.GettingStarted</text>
<text text-anchor="middle" x="203.5" y="-57" font-family="Helvetica,sans-Serif" font-size="10.00">Web.Pages.IndexModel</text>
</a>
</g>
</g>
<!-- Node29&#45;&gt;Node32 -->
<g id="edge3" class="edge">
<title>Node29&#45;&gt;Node32</title>
<path fill="none" stroke="midnightblue" d="M80,-92.57C88.11,-91.11 96.87,-89.53 105.84,-87.92"/>
<polygon fill="midnightblue" stroke="midnightblue" points="79.32,-89.14 70.1,-94.36 80.56,-96.03 79.32,-89.14"/>
</g>
<!-- Node33 -->
<g id="node5" class="node">
<title>Node33</title>
<g id="a_node5"><a xlink:href="class_getting_started___web___client_only_1_1_pages_1_1_error_model.html" target="_top" xlink:title=" ">
<polygon fill="none" stroke="black" points="124,-0.5 124,-30.5 283,-30.5 283,-0.5 124,-0.5"/>
<text text-anchor="start" x="132" y="-18.5" font-family="Helvetica,sans-Serif" font-size="10.00">GettingStarted_Web</text>
<text text-anchor="middle" x="203.5" y="-7.5" font-family="Helvetica,sans-Serif" font-size="10.00">_ClientOnly.Pages.ErrorModel</text>
</a>
</g>
</g>
<!-- Node29&#45;&gt;Node33 -->
<g id="edge4" class="edge">
<title>Node29&#45;&gt;Node33</title>
<path fill="none" stroke="midnightblue" d="M51.44,-83.54C64.67,-70 84.89,-51.52 106,-40.5 113.36,-36.66 121.36,-33.37 129.49,-30.58"/>
<polygon fill="midnightblue" stroke="midnightblue" points="48.84,-81.19 44.5,-90.86 53.92,-86.01 48.84,-81.19"/>
</g>
</g>
</svg>
