<?xml version="1.0" encoding="UTF-8" standalone="no"?>
<!DOCTYPE svg PUBLIC "-//W3C//DTD SVG 1.1//EN"
 "http://www.w3.org/Graphics/SVG/1.1/DTD/svg11.dtd">
<!-- Generated by graphviz version 2.43.0 (0)
 -->
<!-- Title: Graphical Class Hierarchy Pages: 1 -->
<svg width="385pt" height="110pt"
 viewBox="0.00 0.00 385.00 110.00" xmlns="http://www.w3.org/2000/svg" xmlns:xlink="http://www.w3.org/1999/xlink">
<g id="graph0" class="graph" transform="scale(1 1) rotate(0) translate(4 106)">
<title>Graphical Class Hierarchy</title>
<!-- Node212 -->
<g id="node1" class="node">
<title>Node212</title>
<g id="a_node1"><a xlink:title=" ">
<polygon fill="none" stroke="#bfbfbf" points="0,-41.5 0,-60.5 141,-60.5 141,-41.5 0,-41.5"/>
<text text-anchor="middle" x="70.5" y="-48.5" font-family="Helvetica,sans-Serif" font-size="10.00">AspectEngineBuilderBase</text>
</a>
</g>
</g>
<!-- Node0 -->
<g id="node2" class="node">
<title>Node0</title>
<g id="a_node2"><a xlink:href="class_fifty_one_1_1_device_detection_1_1_cloud_1_1_flow_elements_1_1_device_detection_cloud_engine_builder.html" target="_top" xlink:title="Fluent builder used to create a cloud&#45;based device detection engine.">
<polygon fill="none" stroke="black" points="177,-60.5 177,-101.5 377,-101.5 377,-60.5 177,-60.5"/>
<text text-anchor="start" x="185" y="-89.5" font-family="Helvetica,sans-Serif" font-size="10.00">FiftyOne.DeviceDetection.</text>
<text text-anchor="start" x="185" y="-78.5" font-family="Helvetica,sans-Serif" font-size="10.00">Cloud.FlowElements.DeviceDetection</text>
<text text-anchor="middle" x="277" y="-67.5" font-family="Helvetica,sans-Serif" font-size="10.00">CloudEngineBuilder</text>
</a>
</g>
</g>
<!-- Node212&#45;&gt;Node0 -->
<g id="edge1" class="edge">
<title>Node212&#45;&gt;Node0</title>
<path fill="none" stroke="midnightblue" d="M146.6,-62.02C156.45,-63.46 166.66,-64.96 176.83,-66.45"/>
<polygon fill="midnightblue" stroke="midnightblue" points="146.89,-58.52 136.49,-60.53 145.87,-65.45 146.89,-58.52"/>
</g>
<!-- Node214 -->
<g id="node3" class="node">
<title>Node214</title>
<g id="a_node3"><a xlink:href="class_fifty_one_1_1_device_detection_1_1_cloud_1_1_flow_elements_1_1_hardware_profile_cloud_engine_builder.html" target="_top" xlink:title="Fluent builder used to create a cloud&#45;based engine that can return multiple hardware profiles from a ...">
<polygon fill="none" stroke="black" points="178.5,-0.5 178.5,-41.5 375.5,-41.5 375.5,-0.5 178.5,-0.5"/>
<text text-anchor="start" x="186.5" y="-29.5" font-family="Helvetica,sans-Serif" font-size="10.00">FiftyOne.DeviceDetection.</text>
<text text-anchor="start" x="186.5" y="-18.5" font-family="Helvetica,sans-Serif" font-size="10.00">Cloud.FlowElements.HardwareProfile</text>
<text text-anchor="middle" x="277" y="-7.5" font-family="Helvetica,sans-Serif" font-size="10.00">CloudEngineBuilder</text>
</a>
</g>
</g>
<!-- Node212&#45;&gt;Node214 -->
<g id="edge2" class="edge">
<title>Node212&#45;&gt;Node214</title>
<path fill="none" stroke="midnightblue" d="M146.65,-39.98C156.97,-38.46 167.68,-36.89 178.33,-35.33"/>
<polygon fill="midnightblue" stroke="midnightblue" points="145.87,-36.55 136.49,-41.47 146.89,-43.48 145.87,-36.55"/>
</g>
</g>
</svg>
