<?xml version="1.0" encoding="UTF-8" standalone="no"?>
<!DOCTYPE svg PUBLIC "-//W3C//DTD SVG 1.1//EN"
 "http://www.w3.org/Graphics/SVG/1.1/DTD/svg11.dtd">
<!-- Generated by graphviz version 2.43.0 (0)
 -->
<!-- Title: Graphical Class Hierarchy Pages: 1 -->
<svg width="819pt" height="760pt"
 viewBox="0.00 0.00 819.00 759.50" xmlns="http://www.w3.org/2000/svg" xmlns:xlink="http://www.w3.org/1999/xlink">
<g id="graph0" class="graph" transform="scale(1 1) rotate(0) translate(4 755.5)">
<title>Graphical Class Hierarchy</title>
<!-- Node213 -->
<g id="node1" class="node">
<title>Node213</title>
<g id="a_node1"><a xlink:title=" ">
<polygon fill="none" stroke="#bfbfbf" points="164.5,-726.5 164.5,-745.5 303.5,-745.5 303.5,-726.5 164.5,-726.5"/>
<text text-anchor="middle" x="234" y="-733.5" font-family="Helvetica,sans-Serif" font-size="10.00">AspectPropertyMetaData</text>
</a>
</g>
</g>
<!-- Node117 -->
<g id="node2" class="node">
<title>Node117</title>
<g id="a_node2"><a xlink:href="class_fifty_one_1_1_device_detection_1_1_apple_1_1_apple_property_meta_data.html" target="_top" xlink:title="Property meta data class used by AppleProfileEngine">
<polygon fill="none" stroke="black" points="397.5,-721 397.5,-751 561.5,-751 561.5,-721 397.5,-721"/>
<text text-anchor="start" x="405.5" y="-739" font-family="Helvetica,sans-Serif" font-size="10.00">FiftyOne.DeviceDetection.</text>
<text text-anchor="middle" x="479.5" y="-728" font-family="Helvetica,sans-Serif" font-size="10.00">Apple.ApplePropertyMetaData</text>
</a>
</g>
</g>
<!-- Node213&#45;&gt;Node117 -->
<g id="edge1" class="edge">
<title>Node213&#45;&gt;Node117</title>
<path fill="none" stroke="midnightblue" d="M313.87,-736C340.6,-736 370.48,-736 397.37,-736"/>
<polygon fill="midnightblue" stroke="midnightblue" points="313.8,-732.5 303.8,-736 313.8,-739.5 313.8,-732.5"/>
</g>
<!-- Node190 -->
<g id="node3" class="node">
<title>Node190</title>
<g id="a_node3"><a xlink:title=" ">
<polygon fill="none" stroke="#bfbfbf" points="0,-507.5 0,-526.5 98,-526.5 98,-507.5 0,-507.5"/>
<text text-anchor="middle" x="49" y="-514.5" font-family="Helvetica,sans-Serif" font-size="10.00">DeviceDataBase</text>
</a>
</g>
</g>
<!-- Node142 -->
<g id="node4" class="node">
<title>Node142</title>
<g id="a_node4"><a xlink:href="class_fifty_one_1_1_device_detection_1_1_cloud_1_1_data_1_1_device_data_cloud.html" target="_top" xlink:title="A data class that makes working with device data from cloud services easier for the user.">
<polygon fill="none" stroke="black" points="155,-502 155,-532 313,-532 313,-502 155,-502"/>
<text text-anchor="start" x="163" y="-520" font-family="Helvetica,sans-Serif" font-size="10.00">FiftyOne.DeviceDetection.</text>
<text text-anchor="middle" x="234" y="-509" font-family="Helvetica,sans-Serif" font-size="10.00">Cloud.Data.DeviceDataCloud</text>
</a>
</g>
</g>
<!-- Node190&#45;&gt;Node142 -->
<g id="edge2" class="edge">
<title>Node190&#45;&gt;Node142</title>
<path fill="none" stroke="midnightblue" d="M108.11,-517C122.95,-517 139.15,-517 154.81,-517"/>
<polygon fill="midnightblue" stroke="midnightblue" points="108.08,-513.5 98.08,-517 108.08,-520.5 108.08,-513.5"/>
</g>
<!-- Node189 -->
<g id="node5" class="node">
<title>Node189</title>
<g id="a_node5"><a xlink:title=" ">
<polygon fill="none" stroke="#bfbfbf" points="158.5,-649.5 158.5,-668.5 309.5,-668.5 309.5,-649.5 158.5,-649.5"/>
<text text-anchor="middle" x="234" y="-656.5" font-family="Helvetica,sans-Serif" font-size="10.00">DeviceDataBaseOnPremise</text>
</a>
</g>
</g>
<!-- Node134 -->
<g id="node6" class="node">
<title>Node134</title>
<g id="a_node6"><a xlink:href="class_fifty_one_1_1_device_detection_1_1_hash_1_1_engine_1_1_on_premise_1_1_data_1_1_device_data_hash.html" target="_top" xlink:title="Device data class See the Specification">
<polygon fill="none" stroke="black" points="381,-600.5 381,-641.5 578,-641.5 578,-600.5 381,-600.5"/>
<text text-anchor="start" x="389" y="-629.5" font-family="Helvetica,sans-Serif" font-size="10.00">FiftyOne.DeviceDetection.</text>
<text text-anchor="start" x="389" y="-618.5" font-family="Helvetica,sans-Serif" font-size="10.00">Hash.Engine.OnPremise.Data.Device</text>
<text text-anchor="middle" x="479.5" y="-607.5" font-family="Helvetica,sans-Serif" font-size="10.00">DataHash</text>
</a>
</g>
</g>
<!-- Node189&#45;&gt;Node134 -->
<g id="edge3" class="edge">
<title>Node189&#45;&gt;Node134</title>
<path fill="none" stroke="midnightblue" d="M306.27,-647.88C329.59,-644.24 355.91,-640.13 380.83,-636.24"/>
<polygon fill="midnightblue" stroke="midnightblue" points="305.47,-644.46 296.13,-649.46 306.55,-651.38 305.47,-644.46"/>
</g>
<!-- Node148 -->
<g id="node7" class="node">
<title>Node148</title>
<g id="a_node7"><a xlink:title=" ">
<polygon fill="none" stroke="#bfbfbf" points="172,-551.5 172,-570.5 296,-570.5 296,-551.5 172,-551.5"/>
<text text-anchor="middle" x="234" y="-558.5" font-family="Helvetica,sans-Serif" font-size="10.00">IComponentMetaData</text>
</a>
</g>
</g>
<!-- Node133 -->
<g id="node8" class="node">
<title>Node133</title>
<g id="a_node8"><a xlink:href="class_fifty_one_1_1_device_detection_1_1_hash_1_1_engine_1_1_on_premise_1_1_data_1_1_component_meta_data.html" target="_top" xlink:title="Data class that contains meta&#45;data relating to a specific component.">
<polygon fill="none" stroke="black" points="370,-540.5 370,-581.5 589,-581.5 589,-540.5 370,-540.5"/>
<text text-anchor="start" x="378" y="-569.5" font-family="Helvetica,sans-Serif" font-size="10.00">FiftyOne.DeviceDetection.</text>
<text text-anchor="start" x="378" y="-558.5" font-family="Helvetica,sans-Serif" font-size="10.00">Hash.Engine.OnPremise.Data.Component</text>
<text text-anchor="middle" x="479.5" y="-547.5" font-family="Helvetica,sans-Serif" font-size="10.00">MetaData</text>
</a>
</g>
</g>
<!-- Node148&#45;&gt;Node133 -->
<g id="edge4" class="edge">
<title>Node148&#45;&gt;Node133</title>
<path fill="none" stroke="midnightblue" d="M306.33,-561C326.25,-561 348.36,-561 369.91,-561"/>
<polygon fill="midnightblue" stroke="midnightblue" points="306.13,-557.5 296.13,-561 306.13,-564.5 306.13,-557.5"/>
</g>
<!-- Node141 -->
<g id="node9" class="node">
<title>Node141</title>
<g id="a_node9"><a xlink:title=" ">
<polygon fill="none" stroke="#bfbfbf" points="10.5,-572.5 10.5,-591.5 87.5,-591.5 87.5,-572.5 10.5,-572.5"/>
<text text-anchor="middle" x="49" y="-579.5" font-family="Helvetica,sans-Serif" font-size="10.00">IDeviceData</text>
</a>
</g>
</g>
<!-- Node141&#45;&gt;Node142 -->
<g id="edge5" class="edge">
<title>Node141&#45;&gt;Node142</title>
<path fill="none" stroke="midnightblue" d="M76.51,-567.72C92.76,-559.39 114.18,-549.14 134,-542 144.17,-538.33 155.12,-535 165.89,-532.04"/>
<polygon fill="midnightblue" stroke="midnightblue" points="74.84,-564.64 67.59,-572.37 78.07,-570.85 74.84,-564.64"/>
</g>
<!-- Node143 -->
<g id="node10" class="node">
<title>Node143</title>
<g id="a_node10"><a xlink:href="interface_fifty_one_1_1_device_detection_1_1_hash_1_1_engine_1_1_on_premise_1_1_data_1_1_i_device_data_hash.html" target="_top" xlink:title="Represents a data class that contains device data from an on&#45;premise device detection engine.">
<polygon fill="none" stroke="black" points="134,-589.5 134,-630.5 334,-630.5 334,-589.5 134,-589.5"/>
<text text-anchor="start" x="142" y="-618.5" font-family="Helvetica,sans-Serif" font-size="10.00">FiftyOne.DeviceDetection.</text>
<text text-anchor="start" x="142" y="-607.5" font-family="Helvetica,sans-Serif" font-size="10.00">Hash.Engine.OnPremise.Data.IDevice</text>
<text text-anchor="middle" x="234" y="-596.5" font-family="Helvetica,sans-Serif" font-size="10.00">DataHash</text>
</a>
</g>
</g>
<!-- Node141&#45;&gt;Node143 -->
<g id="edge6" class="edge">
<title>Node141&#45;&gt;Node143</title>
<path fill="none" stroke="midnightblue" d="M97.86,-589.32C109.07,-591.04 121.42,-592.93 133.96,-594.85"/>
<polygon fill="midnightblue" stroke="midnightblue" points="98.33,-585.85 87.92,-587.8 97.27,-592.77 98.33,-585.85"/>
</g>
<!-- Node143&#45;&gt;Node134 -->
<g id="edge7" class="edge">
<title>Node143&#45;&gt;Node134</title>
<path fill="none" stroke="midnightblue" d="M344.21,-614.93C356.38,-615.48 368.72,-616.04 380.73,-616.58"/>
<polygon fill="midnightblue" stroke="midnightblue" points="344.19,-611.43 334.04,-614.47 343.87,-618.42 344.19,-611.43"/>
</g>
<!-- Node132 -->
<g id="node11" class="node">
<title>Node132</title>
<g id="a_node11"><a xlink:title=" ">
<polygon fill="none" stroke="#bfbfbf" points="197,-360.5 197,-379.5 271,-379.5 271,-360.5 197,-360.5"/>
<text text-anchor="middle" x="234" y="-367.5" font-family="Helvetica,sans-Serif" font-size="10.00">IDisposable</text>
</a>
</g>
</g>
<!-- Node132&#45;&gt;Node134 -->
<g id="edge9" class="edge">
<title>Node132&#45;&gt;Node134</title>
<path fill="none" stroke="midnightblue" d="M251.86,-387.13C273.36,-409.74 310.56,-451.57 334,-493 356.85,-533.39 335.87,-559.57 370,-591 373.81,-594.51 377.99,-597.61 382.43,-600.36"/>
<polygon fill="midnightblue" stroke="midnightblue" points="254.16,-384.47 244.7,-379.7 249.12,-389.33 254.16,-384.47"/>
</g>
<!-- Node132&#45;&gt;Node133 -->
<g id="edge8" class="edge">
<title>Node132&#45;&gt;Node133</title>
<path fill="none" stroke="midnightblue" d="M248.97,-387.84C280.29,-427.66 354.6,-521.1 370,-531 375.51,-534.54 381.43,-537.67 387.57,-540.43"/>
<polygon fill="midnightblue" stroke="midnightblue" points="251.57,-385.49 242.64,-379.78 246.07,-389.81 251.57,-385.49"/>
</g>
<!-- Node106 -->
<g id="node12" class="node">
<title>Node106</title>
<g id="a_node12"><a xlink:href="class_fifty_one_1_1_device_detection_1_1_hash_1_1_engine_1_1_on_premise_1_1_data_1_1_profile_meta_data.html" target="_top" xlink:title="Data class that contains meta&#45;data relating to a specific profile.">
<polygon fill="none" stroke="black" points="382.5,-300.5 382.5,-341.5 576.5,-341.5 576.5,-300.5 382.5,-300.5"/>
<text text-anchor="start" x="390.5" y="-329.5" font-family="Helvetica,sans-Serif" font-size="10.00">FiftyOne.DeviceDetection.</text>
<text text-anchor="start" x="390.5" y="-318.5" font-family="Helvetica,sans-Serif" font-size="10.00">Hash.Engine.OnPremise.Data.Profile</text>
<text text-anchor="middle" x="479.5" y="-307.5" font-family="Helvetica,sans-Serif" font-size="10.00">MetaData</text>
</a>
</g>
</g>
<!-- Node132&#45;&gt;Node106 -->
<g id="edge10" class="edge">
<title>Node132&#45;&gt;Node106</title>
<path fill="none" stroke="midnightblue" d="M281.28,-360.69C309.84,-354.94 347.56,-347.35 382.36,-340.35"/>
<polygon fill="midnightblue" stroke="midnightblue" points="280.3,-357.31 271.19,-362.72 281.69,-364.18 280.3,-357.31"/>
</g>
<!-- Node118 -->
<g id="node13" class="node">
<title>Node118</title>
<g id="a_node13"><a xlink:href="class_fifty_one_1_1_device_detection_1_1_hash_1_1_engine_1_1_on_premise_1_1_data_1_1_property_meta_data_hash.html" target="_top" xlink:title="Data class that contains meta&#45;data relating to a specific property.">
<polygon fill="none" stroke="black" points="377.5,-660.5 377.5,-701.5 581.5,-701.5 581.5,-660.5 377.5,-660.5"/>
<text text-anchor="start" x="385.5" y="-689.5" font-family="Helvetica,sans-Serif" font-size="10.00">FiftyOne.DeviceDetection.</text>
<text text-anchor="start" x="385.5" y="-678.5" font-family="Helvetica,sans-Serif" font-size="10.00">Hash.Engine.OnPremise.Data.Property</text>
<text text-anchor="middle" x="479.5" y="-667.5" font-family="Helvetica,sans-Serif" font-size="10.00">MetaDataHash</text>
</a>
</g>
</g>
<!-- Node132&#45;&gt;Node118 -->
<g id="edge11" class="edge">
<title>Node132&#45;&gt;Node118</title>
<path fill="none" stroke="midnightblue" d="M252.75,-386.74C275.15,-408.89 313.27,-450.18 334,-493 365.38,-557.82 320.25,-598.92 370,-651 373.37,-654.53 377.13,-657.66 381.15,-660.43"/>
<polygon fill="midnightblue" stroke="midnightblue" points="255.14,-384.18 245.53,-379.73 250.26,-389.21 255.14,-384.18"/>
</g>
<!-- Node0 -->
<g id="node14" class="node">
<title>Node0</title>
<g id="a_node14"><a xlink:href="class_fifty_one_1_1_device_detection_1_1_hash_1_1_engine_1_1_on_premise_1_1_data_1_1_value_meta_data.html" target="_top" xlink:title="Data class that contains meta&#45;data relating to a specific value.">
<polygon fill="none" stroke="black" points="384.5,-240.5 384.5,-281.5 574.5,-281.5 574.5,-240.5 384.5,-240.5"/>
<text text-anchor="start" x="392.5" y="-269.5" font-family="Helvetica,sans-Serif" font-size="10.00">FiftyOne.DeviceDetection.</text>
<text text-anchor="start" x="392.5" y="-258.5" font-family="Helvetica,sans-Serif" font-size="10.00">Hash.Engine.OnPremise.Data.Value</text>
<text text-anchor="middle" x="479.5" y="-247.5" font-family="Helvetica,sans-Serif" font-size="10.00">MetaData</text>
</a>
</g>
</g>
<!-- Node132&#45;&gt;Node0 -->
<g id="edge12" class="edge">
<title>Node132&#45;&gt;Node0</title>
<path fill="none" stroke="midnightblue" d="M281.47,-362.41C299.06,-357.94 318.56,-350.92 334,-340 356.06,-324.39 347.75,-306.34 370,-291 375.15,-287.45 380.71,-284.32 386.49,-281.56"/>
<polygon fill="midnightblue" stroke="midnightblue" points="280.32,-359.08 271.37,-364.76 281.9,-365.9 280.32,-359.08"/>
</g>
<!-- Node124 -->
<g id="node15" class="node">
<title>Node124</title>
<g id="a_node15"><a xlink:href="interface_fifty_one_1_1_device_detection_1_1_hash_1_1_engine_1_1_on_premise_1_1_wrappers_1_1_i_c646a1eccf4c348cdb41c225bbd8d74d0.html" target="_top" xlink:title=" ">
<polygon fill="none" stroke="black" points="385,-180.5 385,-221.5 574,-221.5 574,-180.5 385,-180.5"/>
<text text-anchor="start" x="393" y="-209.5" font-family="Helvetica,sans-Serif" font-size="10.00">FiftyOne.DeviceDetection.</text>
<text text-anchor="start" x="393" y="-198.5" font-family="Helvetica,sans-Serif" font-size="10.00">Hash.Engine.OnPremise.Wrappers.</text>
<text text-anchor="middle" x="479.5" y="-187.5" font-family="Helvetica,sans-Serif" font-size="10.00">IComponentCollectionSwigWrapper</text>
</a>
</g>
</g>
<!-- Node132&#45;&gt;Node124 -->
<g id="edge13" class="edge">
<title>Node132&#45;&gt;Node124</title>
<path fill="none" stroke="midnightblue" d="M281.23,-365.28C299.71,-361.23 319.9,-353.76 334,-340 370.52,-304.37 333.05,-266.18 370,-231 374.46,-226.76 379.46,-223.1 384.81,-219.96"/>
<polygon fill="midnightblue" stroke="midnightblue" points="280.36,-361.89 271.19,-367.2 281.67,-368.76 280.36,-361.89"/>
</g>
<!-- Node135 -->
<g id="node17" class="node">
<title>Node135</title>
<g id="a_node17"><a xlink:href="interface_fifty_one_1_1_device_detection_1_1_hash_1_1_engine_1_1_on_premise_1_1_wrappers_1_1_i_engine_swig_wrapper.html" target="_top" xlink:title=" ">
<polygon fill="none" stroke="black" points="386.5,-480.5 386.5,-521.5 572.5,-521.5 572.5,-480.5 386.5,-480.5"/>
<text text-anchor="start" x="394.5" y="-509.5" font-family="Helvetica,sans-Serif" font-size="10.00">FiftyOne.DeviceDetection.</text>
<text text-anchor="start" x="394.5" y="-498.5" font-family="Helvetica,sans-Serif" font-size="10.00">Hash.Engine.OnPremise.Wrappers.</text>
<text text-anchor="middle" x="479.5" y="-487.5" font-family="Helvetica,sans-Serif" font-size="10.00">IEngineSwigWrapper</text>
</a>
</g>
</g>
<!-- Node132&#45;&gt;Node135 -->
<g id="edge15" class="edge">
<title>Node132&#45;&gt;Node135</title>
<path fill="none" stroke="midnightblue" d="M252.35,-386.4C276.76,-408.64 323.49,-448.18 370,-471 377.11,-474.49 384.68,-477.62 392.39,-480.43"/>
<polygon fill="midnightblue" stroke="midnightblue" points="254.68,-383.79 244.96,-379.57 249.93,-388.93 254.68,-383.79"/>
</g>
<!-- Node126 -->
<g id="node19" class="node">
<title>Node126</title>
<g id="a_node19"><a xlink:href="interface_fifty_one_1_1_device_detection_1_1_hash_1_1_engine_1_1_on_premise_1_1_wrappers_1_1_i_profile_collection_swig_wrapper.html" target="_top" xlink:title=" ">
<polygon fill="none" stroke="black" points="386.5,-120.5 386.5,-161.5 572.5,-161.5 572.5,-120.5 386.5,-120.5"/>
<text text-anchor="start" x="394.5" y="-149.5" font-family="Helvetica,sans-Serif" font-size="10.00">FiftyOne.DeviceDetection.</text>
<text text-anchor="start" x="394.5" y="-138.5" font-family="Helvetica,sans-Serif" font-size="10.00">Hash.Engine.OnPremise.Wrappers.</text>
<text text-anchor="middle" x="479.5" y="-127.5" font-family="Helvetica,sans-Serif" font-size="10.00">IProfileCollectionSwigWrapper</text>
</a>
</g>
</g>
<!-- Node132&#45;&gt;Node126 -->
<g id="edge17" class="edge">
<title>Node132&#45;&gt;Node126</title>
<path fill="none" stroke="midnightblue" d="M281.3,-366.16C300.09,-362.27 320.51,-354.68 334,-340 385.97,-283.46 317.35,-226.9 370,-171 374.76,-165.95 380.28,-161.72 386.27,-158.19"/>
<polygon fill="midnightblue" stroke="midnightblue" points="280.61,-362.73 271.37,-367.92 281.83,-369.62 280.61,-362.73"/>
</g>
<!-- Node128 -->
<g id="node21" class="node">
<title>Node128</title>
<g id="a_node21"><a xlink:href="interface_fifty_one_1_1_device_detection_1_1_hash_1_1_engine_1_1_on_premise_1_1_wrappers_1_1_i_property_collection_swig_wrapper.html" target="_top" xlink:title=" ">
<polygon fill="none" stroke="black" points="386.5,-60.5 386.5,-101.5 572.5,-101.5 572.5,-60.5 386.5,-60.5"/>
<text text-anchor="start" x="394.5" y="-89.5" font-family="Helvetica,sans-Serif" font-size="10.00">FiftyOne.DeviceDetection.</text>
<text text-anchor="start" x="394.5" y="-78.5" font-family="Helvetica,sans-Serif" font-size="10.00">Hash.Engine.OnPremise.Wrappers.</text>
<text text-anchor="middle" x="479.5" y="-67.5" font-family="Helvetica,sans-Serif" font-size="10.00">IPropertyCollectionSwigWrapper</text>
</a>
</g>
</g>
<!-- Node132&#45;&gt;Node128 -->
<g id="edge19" class="edge">
<title>Node132&#45;&gt;Node128</title>
<path fill="none" stroke="midnightblue" d="M281.25,-366.59C300.23,-362.8 320.81,-355.16 334,-340 401.64,-262.29 301.41,-187.88 370,-111 374.75,-105.68 380.35,-101.26 386.46,-97.6"/>
<polygon fill="midnightblue" stroke="midnightblue" points="280.5,-363.17 271.23,-368.29 281.67,-370.07 280.5,-363.17"/>
</g>
<!-- Node137 -->
<g id="node23" class="node">
<title>Node137</title>
<g id="a_node23"><a xlink:href="interface_fifty_one_1_1_device_detection_1_1_hash_1_1_engine_1_1_on_premise_1_1_wrappers_1_1_i_results_swig_wrapper.html" target="_top" xlink:title=" ">
<polygon fill="none" stroke="black" points="386.5,-420.5 386.5,-461.5 572.5,-461.5 572.5,-420.5 386.5,-420.5"/>
<text text-anchor="start" x="394.5" y="-449.5" font-family="Helvetica,sans-Serif" font-size="10.00">FiftyOne.DeviceDetection.</text>
<text text-anchor="start" x="394.5" y="-438.5" font-family="Helvetica,sans-Serif" font-size="10.00">Hash.Engine.OnPremise.Wrappers.</text>
<text text-anchor="middle" x="479.5" y="-427.5" font-family="Helvetica,sans-Serif" font-size="10.00">IResultsSwigWrapper</text>
</a>
</g>
</g>
<!-- Node132&#45;&gt;Node137 -->
<g id="edge21" class="edge">
<title>Node132&#45;&gt;Node137</title>
<path fill="none" stroke="midnightblue" d="M275.29,-382.52C302.08,-390.78 338.08,-401.74 370,-411 380.7,-414.1 392.01,-417.31 403.14,-420.43"/>
<polygon fill="midnightblue" stroke="midnightblue" points="276.08,-379.11 265.5,-379.5 274.02,-385.8 276.08,-379.11"/>
</g>
<!-- Node130 -->
<g id="node25" class="node">
<title>Node130</title>
<g id="a_node25"><a xlink:href="interface_fifty_one_1_1_device_detection_1_1_hash_1_1_engine_1_1_on_premise_1_1_wrappers_1_1_i_value_collection_swig_wrapper.html" target="_top" xlink:title=" ">
<polygon fill="none" stroke="black" points="386.5,-0.5 386.5,-41.5 572.5,-41.5 572.5,-0.5 386.5,-0.5"/>
<text text-anchor="start" x="394.5" y="-29.5" font-family="Helvetica,sans-Serif" font-size="10.00">FiftyOne.DeviceDetection.</text>
<text text-anchor="start" x="394.5" y="-18.5" font-family="Helvetica,sans-Serif" font-size="10.00">Hash.Engine.OnPremise.Wrappers.</text>
<text text-anchor="middle" x="479.5" y="-7.5" font-family="Helvetica,sans-Serif" font-size="10.00">IValueCollectionSwigWrapper</text>
</a>
</g>
</g>
<!-- Node132&#45;&gt;Node130 -->
<g id="edge23" class="edge">
<title>Node132&#45;&gt;Node130</title>
<path fill="none" stroke="midnightblue" d="M281.49,-366.79C300.51,-363.03 321.05,-355.37 334,-340 417.41,-241.02 285.38,-148.95 370,-51 374.66,-45.6 380.2,-41.13 386.27,-37.44"/>
<polygon fill="midnightblue" stroke="midnightblue" points="280.72,-363.37 271.43,-368.46 281.87,-370.28 280.72,-363.37"/>
</g>
<!-- Node139 -->
<g id="node27" class="node">
<title>Node139</title>
<g id="a_node27"><a xlink:href="interface_fifty_one_1_1_device_detection_1_1_hash_1_1_engine_1_1_on_premise_1_1_wrappers_1_1_i_value_swig_wrapper.html" target="_top" xlink:title=" ">
<polygon fill="none" stroke="black" points="386.5,-360.5 386.5,-401.5 572.5,-401.5 572.5,-360.5 386.5,-360.5"/>
<text text-anchor="start" x="394.5" y="-389.5" font-family="Helvetica,sans-Serif" font-size="10.00">FiftyOne.DeviceDetection.</text>
<text text-anchor="start" x="394.5" y="-378.5" font-family="Helvetica,sans-Serif" font-size="10.00">Hash.Engine.OnPremise.Wrappers.</text>
<text text-anchor="middle" x="479.5" y="-367.5" font-family="Helvetica,sans-Serif" font-size="10.00">IValueSwigWrapper&lt; T &gt;</text>
</a>
</g>
</g>
<!-- Node132&#45;&gt;Node139 -->
<g id="edge25" class="edge">
<title>Node132&#45;&gt;Node139</title>
<path fill="none" stroke="midnightblue" d="M281.25,-372.09C310.9,-373.43 350.43,-375.21 386.31,-376.84"/>
<polygon fill="midnightblue" stroke="midnightblue" points="281.34,-368.59 271.19,-371.63 281.02,-375.58 281.34,-368.59"/>
</g>
<!-- Node125 -->
<g id="node16" class="node">
<title>Node125</title>
<g id="a_node16"><a xlink:href="class_fifty_one_1_1_device_detection_1_1_hash_1_1_engine_1_1_on_premise_1_1_wrappers_1_1_component_collection_swig_wrapper.html" target="_top" xlink:title=" ">
<polygon fill="none" stroke="black" points="625,-180.5 625,-221.5 811,-221.5 811,-180.5 625,-180.5"/>
<text text-anchor="start" x="633" y="-209.5" font-family="Helvetica,sans-Serif" font-size="10.00">FiftyOne.DeviceDetection.</text>
<text text-anchor="start" x="633" y="-198.5" font-family="Helvetica,sans-Serif" font-size="10.00">Hash.Engine.OnPremise.Wrappers.</text>
<text text-anchor="middle" x="718" y="-187.5" font-family="Helvetica,sans-Serif" font-size="10.00">ComponentCollectionSwigWrapper</text>
</a>
</g>
</g>
<!-- Node124&#45;&gt;Node125 -->
<g id="edge14" class="edge">
<title>Node124&#45;&gt;Node125</title>
<path fill="none" stroke="midnightblue" d="M584.52,-201C597.95,-201 611.63,-201 624.85,-201"/>
<polygon fill="midnightblue" stroke="midnightblue" points="584.31,-197.5 574.31,-201 584.31,-204.5 584.31,-197.5"/>
</g>
<!-- Node136 -->
<g id="node18" class="node">
<title>Node136</title>
<g id="a_node18"><a xlink:href="class_fifty_one_1_1_device_detection_1_1_hash_1_1_engine_1_1_on_premise_1_1_wrappers_1_1_engine_swig_wrapper.html" target="_top" xlink:title=" ">
<polygon fill="none" stroke="black" points="625,-480.5 625,-521.5 811,-521.5 811,-480.5 625,-480.5"/>
<text text-anchor="start" x="633" y="-509.5" font-family="Helvetica,sans-Serif" font-size="10.00">FiftyOne.DeviceDetection.</text>
<text text-anchor="start" x="633" y="-498.5" font-family="Helvetica,sans-Serif" font-size="10.00">Hash.Engine.OnPremise.Wrappers.</text>
<text text-anchor="middle" x="718" y="-487.5" font-family="Helvetica,sans-Serif" font-size="10.00">EngineSwigWrapper</text>
</a>
</g>
</g>
<!-- Node135&#45;&gt;Node136 -->
<g id="edge16" class="edge">
<title>Node135&#45;&gt;Node136</title>
<path fill="none" stroke="midnightblue" d="M582.72,-501C596.69,-501 610.97,-501 624.75,-501"/>
<polygon fill="midnightblue" stroke="midnightblue" points="582.61,-497.5 572.61,-501 582.61,-504.5 582.61,-497.5"/>
</g>
<!-- Node127 -->
<g id="node20" class="node">
<title>Node127</title>
<g id="a_node20"><a xlink:href="class_fifty_one_1_1_device_detection_1_1_hash_1_1_engine_1_1_on_premise_1_1_wrappers_1_1_profile_collection_swig_wrapper.html" target="_top" xlink:title=" ">
<polygon fill="none" stroke="black" points="625,-120.5 625,-161.5 811,-161.5 811,-120.5 625,-120.5"/>
<text text-anchor="start" x="633" y="-149.5" font-family="Helvetica,sans-Serif" font-size="10.00">FiftyOne.DeviceDetection.</text>
<text text-anchor="start" x="633" y="-138.5" font-family="Helvetica,sans-Serif" font-size="10.00">Hash.Engine.OnPremise.Wrappers.</text>
<text text-anchor="middle" x="718" y="-127.5" font-family="Helvetica,sans-Serif" font-size="10.00">ProfileCollectionSwigWrapper</text>
</a>
</g>
</g>
<!-- Node126&#45;&gt;Node127 -->
<g id="edge18" class="edge">
<title>Node126&#45;&gt;Node127</title>
<path fill="none" stroke="midnightblue" d="M582.72,-141C596.69,-141 610.97,-141 624.75,-141"/>
<polygon fill="midnightblue" stroke="midnightblue" points="582.61,-137.5 572.61,-141 582.61,-144.5 582.61,-137.5"/>
</g>
<!-- Node129 -->
<g id="node22" class="node">
<title>Node129</title>
<g id="a_node22"><a xlink:href="class_fifty_one_1_1_device_detection_1_1_hash_1_1_engine_1_1_on_premise_1_1_wrappers_1_1_property_collection_swig_wrapper.html" target="_top" xlink:title=" ">
<polygon fill="none" stroke="black" points="625,-60.5 625,-101.5 811,-101.5 811,-60.5 625,-60.5"/>
<text text-anchor="start" x="633" y="-89.5" font-family="Helvetica,sans-Serif" font-size="10.00">FiftyOne.DeviceDetection.</text>
<text text-anchor="start" x="633" y="-78.5" font-family="Helvetica,sans-Serif" font-size="10.00">Hash.Engine.OnPremise.Wrappers.</text>
<text text-anchor="middle" x="718" y="-67.5" font-family="Helvetica,sans-Serif" font-size="10.00">PropertyCollectionSwigWrapper</text>
</a>
</g>
</g>
<!-- Node128&#45;&gt;Node129 -->
<g id="edge20" class="edge">
<title>Node128&#45;&gt;Node129</title>
<path fill="none" stroke="midnightblue" d="M582.72,-81C596.69,-81 610.97,-81 624.75,-81"/>
<polygon fill="midnightblue" stroke="midnightblue" points="582.61,-77.5 572.61,-81 582.61,-84.5 582.61,-77.5"/>
</g>
<!-- Node138 -->
<g id="node24" class="node">
<title>Node138</title>
<g id="a_node24"><a xlink:href="class_fifty_one_1_1_device_detection_1_1_hash_1_1_engine_1_1_on_premise_1_1_wrappers_1_1_results_swig_wrapper.html" target="_top" xlink:title=" ">
<polygon fill="none" stroke="black" points="625,-420.5 625,-461.5 811,-461.5 811,-420.5 625,-420.5"/>
<text text-anchor="start" x="633" y="-449.5" font-family="Helvetica,sans-Serif" font-size="10.00">FiftyOne.DeviceDetection.</text>
<text text-anchor="start" x="633" y="-438.5" font-family="Helvetica,sans-Serif" font-size="10.00">Hash.Engine.OnPremise.Wrappers.</text>
<text text-anchor="middle" x="718" y="-427.5" font-family="Helvetica,sans-Serif" font-size="10.00">ResultsSwigWrapper</text>
</a>
</g>
</g>
<!-- Node137&#45;&gt;Node138 -->
<g id="edge22" class="edge">
<title>Node137&#45;&gt;Node138</title>
<path fill="none" stroke="midnightblue" d="M582.72,-441C596.69,-441 610.97,-441 624.75,-441"/>
<polygon fill="midnightblue" stroke="midnightblue" points="582.61,-437.5 572.61,-441 582.61,-444.5 582.61,-437.5"/>
</g>
<!-- Node131 -->
<g id="node26" class="node">
<title>Node131</title>
<g id="a_node26"><a xlink:href="class_fifty_one_1_1_device_detection_1_1_hash_1_1_engine_1_1_on_premise_1_1_wrappers_1_1_value_collection_swig_wrapper.html" target="_top" xlink:title=" ">
<polygon fill="none" stroke="black" points="625,-0.5 625,-41.5 811,-41.5 811,-0.5 625,-0.5"/>
<text text-anchor="start" x="633" y="-29.5" font-family="Helvetica,sans-Serif" font-size="10.00">FiftyOne.DeviceDetection.</text>
<text text-anchor="start" x="633" y="-18.5" font-family="Helvetica,sans-Serif" font-size="10.00">Hash.Engine.OnPremise.Wrappers.</text>
<text text-anchor="middle" x="718" y="-7.5" font-family="Helvetica,sans-Serif" font-size="10.00">ValueCollectionSwigWrapper</text>
</a>
</g>
</g>
<!-- Node130&#45;&gt;Node131 -->
<g id="edge24" class="edge">
<title>Node130&#45;&gt;Node131</title>
<path fill="none" stroke="midnightblue" d="M582.72,-21C596.69,-21 610.97,-21 624.75,-21"/>
<polygon fill="midnightblue" stroke="midnightblue" points="582.61,-17.5 572.61,-21 582.61,-24.5 582.61,-17.5"/>
</g>
<!-- Node123 -->
<g id="node28" class="node">
<title>Node123</title>
<g id="a_node28"><a xlink:title=" ">
<polygon fill="none" stroke="#bfbfbf" points="195,-101.5 195,-120.5 273,-120.5 273,-101.5 195,-101.5"/>
<text text-anchor="middle" x="234" y="-108.5" font-family="Helvetica,sans-Serif" font-size="10.00">IEnumerable</text>
</a>
</g>
</g>
<!-- Node123&#45;&gt;Node124 -->
<g id="edge26" class="edge">
<title>Node123&#45;&gt;Node124</title>
<path fill="none" stroke="midnightblue" d="M263.54,-125.17C290.52,-138.21 332.37,-157.52 370,-171 379.29,-174.33 389.14,-177.51 398.96,-180.48"/>
<polygon fill="midnightblue" stroke="midnightblue" points="264.83,-121.91 254.3,-120.67 261.76,-128.2 264.83,-121.91"/>
</g>
<!-- Node123&#45;&gt;Node126 -->
<g id="edge27" class="edge">
<title>Node123&#45;&gt;Node126</title>
<path fill="none" stroke="midnightblue" d="M283.06,-116.92C312.51,-120.55 351.19,-125.31 386.36,-129.65"/>
<polygon fill="midnightblue" stroke="midnightblue" points="283.4,-113.44 273.05,-115.69 282.54,-120.38 283.4,-113.44"/>
</g>
<!-- Node123&#45;&gt;Node128 -->
<g id="edge28" class="edge">
<title>Node123&#45;&gt;Node128</title>
<path fill="none" stroke="midnightblue" d="M283.06,-105.08C312.51,-101.45 351.19,-96.69 386.36,-92.35"/>
<polygon fill="midnightblue" stroke="midnightblue" points="282.54,-101.62 273.05,-106.31 283.4,-108.56 282.54,-101.62"/>
</g>
<!-- Node123&#45;&gt;Node130 -->
<g id="edge29" class="edge">
<title>Node123&#45;&gt;Node130</title>
<path fill="none" stroke="midnightblue" d="M263.54,-96.83C290.52,-83.79 332.37,-64.48 370,-51 379.29,-47.67 389.14,-44.49 398.96,-41.52"/>
<polygon fill="midnightblue" stroke="midnightblue" points="261.76,-93.8 254.3,-101.33 264.83,-100.09 261.76,-93.8"/>
</g>
<!-- Node116 -->
<g id="node29" class="node">
<title>Node116</title>
<g id="a_node29"><a xlink:title=" ">
<polygon fill="none" stroke="#bfbfbf" points="143,-688.5 143,-707.5 325,-707.5 325,-688.5 143,-688.5"/>
<text text-anchor="middle" x="234" y="-695.5" font-family="Helvetica,sans-Serif" font-size="10.00">IFiftyOneAspectPropertyMetaData</text>
</a>
</g>
</g>
<!-- Node116&#45;&gt;Node117 -->
<g id="edge30" class="edge">
<title>Node116&#45;&gt;Node117</title>
<path fill="none" stroke="midnightblue" d="M306.02,-709.08C334.54,-713.53 367.59,-718.69 397.09,-723.29"/>
<polygon fill="midnightblue" stroke="midnightblue" points="306.55,-705.62 296.13,-707.54 305.47,-712.54 306.55,-705.62"/>
</g>
<!-- Node116&#45;&gt;Node118 -->
<g id="edge31" class="edge">
<title>Node116&#45;&gt;Node118</title>
<path fill="none" stroke="midnightblue" d="M335.33,-691C349.17,-690.03 363.39,-689.04 377.25,-688.07"/>
<polygon fill="midnightblue" stroke="midnightblue" points="335.06,-687.51 325.32,-691.69 335.54,-694.49 335.06,-687.51"/>
</g>
<!-- Node105 -->
<g id="node30" class="node">
<title>Node105</title>
<g id="a_node30"><a xlink:title=" ">
<polygon fill="none" stroke="#bfbfbf" points="185,-311.5 185,-330.5 283,-330.5 283,-311.5 185,-311.5"/>
<text text-anchor="middle" x="234" y="-318.5" font-family="Helvetica,sans-Serif" font-size="10.00">IProfileMetaData</text>
</a>
</g>
</g>
<!-- Node105&#45;&gt;Node106 -->
<g id="edge32" class="edge">
<title>Node105&#45;&gt;Node106</title>
<path fill="none" stroke="midnightblue" d="M293.38,-321C319.96,-321 352.13,-321 382.14,-321"/>
<polygon fill="midnightblue" stroke="midnightblue" points="293.11,-317.5 283.11,-321 293.11,-324.5 293.11,-317.5"/>
</g>
<!-- Node99 -->
<g id="node31" class="node">
<title>Node99</title>
<g id="a_node31"><a xlink:title=" ">
<polygon fill="none" stroke="#bfbfbf" points="186.5,-251.5 186.5,-270.5 281.5,-270.5 281.5,-251.5 186.5,-251.5"/>
<text text-anchor="middle" x="234" y="-258.5" font-family="Helvetica,sans-Serif" font-size="10.00">IValueMetaData</text>
</a>
</g>
</g>
<!-- Node99&#45;&gt;Node0 -->
<g id="edge33" class="edge">
<title>Node99&#45;&gt;Node0</title>
<path fill="none" stroke="midnightblue" d="M291.88,-261C319.4,-261 353.15,-261 384.36,-261"/>
<polygon fill="midnightblue" stroke="midnightblue" points="291.66,-257.5 281.66,-261 291.66,-264.5 291.66,-257.5"/>
</g>
</g>
</svg>
