<?xml version="1.0" encoding="UTF-8" standalone="no"?>
<!DOCTYPE svg PUBLIC "-//W3C//DTD SVG 1.1//EN"
 "http://www.w3.org/Graphics/SVG/1.1/DTD/svg11.dtd">
<!-- Generated by graphviz version 2.43.0 (0)
 -->
<!-- Title: Graphical Class Hierarchy Pages: 1 -->
<svg width="771pt" height="1360pt"
 viewBox="0.00 0.00 771.00 1360.00" xmlns="http://www.w3.org/2000/svg" xmlns:xlink="http://www.w3.org/1999/xlink">
<g id="graph0" class="graph" transform="scale(1 1) rotate(0) translate(4 1356)">
<title>Graphical Class Hierarchy</title>
<!-- Node140 -->
<g id="node1" class="node">
<title>Node140</title>
<g id="a_node1"><a xlink:title=" ">
<polygon fill="none" stroke="#bfbfbf" points="20,-1321.5 20,-1340.5 90,-1340.5 90,-1321.5 20,-1321.5"/>
<text text-anchor="middle" x="55" y="-1328.5" font-family="Helvetica,sans-Serif" font-size="10.00">IDictionary</text>
</a>
</g>
</g>
<!-- Node18 -->
<g id="node2" class="node">
<title>Node18</title>
<g id="a_node2"><a xlink:href="class_fifty_one_1_1_device_detection_1_1_hash_1_1_engine_1_1_on_premise_1_1_interop_1_1_map_string_string_swig.html" target="_top" xlink:title=" ">
<polygon fill="none" stroke="black" points="157.5,-1310.5 157.5,-1351.5 331.5,-1351.5 331.5,-1310.5 157.5,-1310.5"/>
<text text-anchor="start" x="165.5" y="-1339.5" font-family="Helvetica,sans-Serif" font-size="10.00">FiftyOne.DeviceDetection.</text>
<text text-anchor="start" x="165.5" y="-1328.5" font-family="Helvetica,sans-Serif" font-size="10.00">Hash.Engine.OnPremise.Interop.</text>
<text text-anchor="middle" x="244.5" y="-1317.5" font-family="Helvetica,sans-Serif" font-size="10.00">MapStringStringSwig</text>
</a>
</g>
</g>
<!-- Node140&#45;&gt;Node18 -->
<g id="edge1" class="edge">
<title>Node140&#45;&gt;Node18</title>
<path fill="none" stroke="midnightblue" d="M100.6,-1331C117.68,-1331 137.8,-1331 157.46,-1331"/>
<polygon fill="midnightblue" stroke="midnightblue" points="100.39,-1327.5 90.39,-1331 100.39,-1334.5 100.39,-1327.5"/>
</g>
<!-- Node19 -->
<g id="node3" class="node">
<title>Node19</title>
<g id="a_node3"><a xlink:href="class_fifty_one_1_1_device_detection_1_1_hash_1_1_engine_1_1_on_premise_1_1_interop_1_1_evidence_base_swig.html" target="_top" xlink:title=" ">
<polygon fill="none" stroke="black" points="379,-1310.5 379,-1351.5 553,-1351.5 553,-1310.5 379,-1310.5"/>
<text text-anchor="start" x="387" y="-1339.5" font-family="Helvetica,sans-Serif" font-size="10.00">FiftyOne.DeviceDetection.</text>
<text text-anchor="start" x="387" y="-1328.5" font-family="Helvetica,sans-Serif" font-size="10.00">Hash.Engine.OnPremise.Interop.</text>
<text text-anchor="middle" x="466" y="-1317.5" font-family="Helvetica,sans-Serif" font-size="10.00">EvidenceBaseSwig</text>
</a>
</g>
</g>
<!-- Node18&#45;&gt;Node19 -->
<g id="edge2" class="edge">
<title>Node18&#45;&gt;Node19</title>
<path fill="none" stroke="midnightblue" d="M341.87,-1331C354.15,-1331 366.66,-1331 378.77,-1331"/>
<polygon fill="midnightblue" stroke="midnightblue" points="341.62,-1327.5 331.62,-1331 341.62,-1334.5 341.62,-1327.5"/>
</g>
<!-- Node20 -->
<g id="node4" class="node">
<title>Node20</title>
<g id="a_node4"><a xlink:href="class_fifty_one_1_1_device_detection_1_1_hash_1_1_engine_1_1_on_premise_1_1_interop_1_1_evidence_device_detection_swig.html" target="_top" xlink:title=" ">
<polygon fill="none" stroke="black" points="589,-1310.5 589,-1351.5 763,-1351.5 763,-1310.5 589,-1310.5"/>
<text text-anchor="start" x="597" y="-1339.5" font-family="Helvetica,sans-Serif" font-size="10.00">FiftyOne.DeviceDetection.</text>
<text text-anchor="start" x="597" y="-1328.5" font-family="Helvetica,sans-Serif" font-size="10.00">Hash.Engine.OnPremise.Interop.</text>
<text text-anchor="middle" x="676" y="-1317.5" font-family="Helvetica,sans-Serif" font-size="10.00">EvidenceDeviceDetectionSwig</text>
</a>
</g>
</g>
<!-- Node19&#45;&gt;Node20 -->
<g id="edge3" class="edge">
<title>Node19&#45;&gt;Node20</title>
<path fill="none" stroke="midnightblue" d="M563.16,-1331C571.77,-1331 580.45,-1331 588.96,-1331"/>
<polygon fill="midnightblue" stroke="midnightblue" points="563.1,-1327.5 553.1,-1331 563.1,-1334.5 563.1,-1327.5"/>
</g>
<!-- Node122 -->
<g id="node5" class="node">
<title>Node122</title>
<g id="a_node5"><a xlink:title=" ">
<polygon fill="none" stroke="#bfbfbf" points="16,-1272.5 16,-1291.5 94,-1291.5 94,-1272.5 16,-1272.5"/>
<text text-anchor="middle" x="55" y="-1279.5" font-family="Helvetica,sans-Serif" font-size="10.00">IEnumerable</text>
</a>
</g>
</g>
<!-- Node34 -->
<g id="node6" class="node">
<title>Node34</title>
<g id="a_node6"><a xlink:href="class_fifty_one_1_1_device_detection_1_1_hash_1_1_engine_1_1_on_premise_1_1_interop_1_1_vector_string_swig.html" target="_top" xlink:title=" ">
<polygon fill="none" stroke="black" points="157.5,-1250.5 157.5,-1291.5 331.5,-1291.5 331.5,-1250.5 157.5,-1250.5"/>
<text text-anchor="start" x="165.5" y="-1279.5" font-family="Helvetica,sans-Serif" font-size="10.00">FiftyOne.DeviceDetection.</text>
<text text-anchor="start" x="165.5" y="-1268.5" font-family="Helvetica,sans-Serif" font-size="10.00">Hash.Engine.OnPremise.Interop.</text>
<text text-anchor="middle" x="244.5" y="-1257.5" font-family="Helvetica,sans-Serif" font-size="10.00">VectorStringSwig</text>
</a>
</g>
</g>
<!-- Node122&#45;&gt;Node34 -->
<g id="edge4" class="edge">
<title>Node122&#45;&gt;Node34</title>
<path fill="none" stroke="midnightblue" d="M104.61,-1279.15C120.7,-1278.2 139.12,-1277.12 157.17,-1276.06"/>
<polygon fill="midnightblue" stroke="midnightblue" points="104.17,-1275.67 94.4,-1279.75 104.58,-1282.66 104.17,-1275.67"/>
</g>
<!-- Node113 -->
<g id="node7" class="node">
<title>Node113</title>
<g id="a_node7"><a xlink:title=" ">
<polygon fill="none" stroke="#bfbfbf" points="36.5,-1234.5 36.5,-1253.5 73.5,-1253.5 73.5,-1234.5 36.5,-1234.5"/>
<text text-anchor="middle" x="55" y="-1241.5" font-family="Helvetica,sans-Serif" font-size="10.00">IList</text>
</a>
</g>
</g>
<!-- Node113&#45;&gt;Node34 -->
<g id="edge5" class="edge">
<title>Node113&#45;&gt;Node34</title>
<path fill="none" stroke="midnightblue" d="M83.66,-1247.98C103.24,-1250.8 130.64,-1254.75 157.24,-1258.58"/>
<polygon fill="midnightblue" stroke="midnightblue" points="84.04,-1244.5 73.64,-1246.54 83.04,-1251.43 84.04,-1244.5"/>
</g>
<!-- Node4 -->
<g id="node8" class="node">
<title>Node4</title>
<g id="a_node8"><a xlink:title=" ">
<polygon fill="none" stroke="#bfbfbf" points="0,-661.5 0,-680.5 110,-680.5 110,-661.5 0,-661.5"/>
<text text-anchor="middle" x="55" y="-668.5" font-family="Helvetica,sans-Serif" font-size="10.00">SystemIDisposable</text>
</a>
</g>
</g>
<!-- Node4&#45;&gt;Node18 -->
<g id="edge19" class="edge">
<title>Node4&#45;&gt;Node18</title>
<path fill="none" stroke="midnightblue" d="M57.56,-690.61C65.76,-791.92 105.14,-1253.18 146,-1301 149.34,-1304.9 153.17,-1308.31 157.34,-1311.28"/>
<polygon fill="midnightblue" stroke="midnightblue" points="61.04,-690.23 56.75,-680.54 54.06,-690.79 61.04,-690.23"/>
</g>
<!-- Node4&#45;&gt;Node34 -->
<g id="edge33" class="edge">
<title>Node4&#45;&gt;Node34</title>
<path fill="none" stroke="midnightblue" d="M56.4,-690.72C58.63,-781.23 72.27,-1155.99 146,-1241 149.37,-1244.88 153.22,-1248.27 157.41,-1251.22"/>
<polygon fill="midnightblue" stroke="midnightblue" points="59.9,-690.43 56.17,-680.51 52.9,-690.59 59.9,-690.43"/>
</g>
<!-- Node0 -->
<g id="node9" class="node">
<title>Node0</title>
<g id="a_node9"><a xlink:href="class_fifty_one_1_1_device_detection_1_1_hash_1_1_engine_1_1_on_premise_1_1_interop_1_1_bool_value_swig.html" target="_top" xlink:title=" ">
<polygon fill="none" stroke="black" points="157.5,-830.5 157.5,-871.5 331.5,-871.5 331.5,-830.5 157.5,-830.5"/>
<text text-anchor="start" x="165.5" y="-859.5" font-family="Helvetica,sans-Serif" font-size="10.00">FiftyOne.DeviceDetection.</text>
<text text-anchor="start" x="165.5" y="-848.5" font-family="Helvetica,sans-Serif" font-size="10.00">Hash.Engine.OnPremise.Interop.</text>
<text text-anchor="middle" x="244.5" y="-837.5" font-family="Helvetica,sans-Serif" font-size="10.00">BoolValueSwig</text>
</a>
</g>
</g>
<!-- Node4&#45;&gt;Node0 -->
<g id="edge6" class="edge">
<title>Node4&#45;&gt;Node0</title>
<path fill="none" stroke="midnightblue" d="M62.37,-690.25C73.91,-722.17 101.32,-786.01 146,-821 150.46,-824.49 155.33,-827.58 160.44,-830.32"/>
<polygon fill="midnightblue" stroke="midnightblue" points="65.65,-689.03 59.06,-680.73 59.04,-691.33 65.65,-689.03"/>
</g>
<!-- Node6 -->
<g id="node10" class="node">
<title>Node6</title>
<g id="a_node10"><a xlink:href="class_fifty_one_1_1_device_detection_1_1_hash_1_1_engine_1_1_on_premise_1_1_interop_1_1_collection_config_swig.html" target="_top" xlink:title=" ">
<polygon fill="none" stroke="black" points="157.5,-770.5 157.5,-811.5 331.5,-811.5 331.5,-770.5 157.5,-770.5"/>
<text text-anchor="start" x="165.5" y="-799.5" font-family="Helvetica,sans-Serif" font-size="10.00">FiftyOne.DeviceDetection.</text>
<text text-anchor="start" x="165.5" y="-788.5" font-family="Helvetica,sans-Serif" font-size="10.00">Hash.Engine.OnPremise.Interop.</text>
<text text-anchor="middle" x="244.5" y="-777.5" font-family="Helvetica,sans-Serif" font-size="10.00">CollectionConfigSwig</text>
</a>
</g>
</g>
<!-- Node4&#45;&gt;Node6 -->
<g id="edge7" class="edge">
<title>Node4&#45;&gt;Node6</title>
<path fill="none" stroke="midnightblue" d="M69.28,-688.76C85.33,-709.03 114.17,-741.84 146,-761 151.84,-764.52 158.13,-767.65 164.6,-770.45"/>
<polygon fill="midnightblue" stroke="midnightblue" points="71.92,-686.44 63.03,-680.67 66.38,-690.72 71.92,-686.44"/>
</g>
<!-- Node7 -->
<g id="node11" class="node">
<title>Node7</title>
<g id="a_node11"><a xlink:href="class_fifty_one_1_1_device_detection_1_1_hash_1_1_engine_1_1_on_premise_1_1_interop_1_1_component_meta_data_collection_swig.html" target="_top" xlink:title=" ">
<polygon fill="none" stroke="black" points="148,-710.5 148,-751.5 341,-751.5 341,-710.5 148,-710.5"/>
<text text-anchor="start" x="156" y="-739.5" font-family="Helvetica,sans-Serif" font-size="10.00">FiftyOne.DeviceDetection.</text>
<text text-anchor="start" x="156" y="-728.5" font-family="Helvetica,sans-Serif" font-size="10.00">Hash.Engine.OnPremise.Interop.</text>
<text text-anchor="middle" x="244.5" y="-717.5" font-family="Helvetica,sans-Serif" font-size="10.00">ComponentMetaDataCollectionSwig</text>
</a>
</g>
</g>
<!-- Node4&#45;&gt;Node7 -->
<g id="edge8" class="edge">
<title>Node4&#45;&gt;Node7</title>
<path fill="none" stroke="midnightblue" d="M93.9,-683.85C109.94,-689.23 128.85,-695.51 146,-701 155.7,-704.11 165.96,-707.33 176.04,-710.47"/>
<polygon fill="midnightblue" stroke="midnightblue" points="94.91,-680.5 84.32,-680.63 92.68,-687.13 94.91,-680.5"/>
</g>
<!-- Node8 -->
<g id="node12" class="node">
<title>Node8</title>
<g id="a_node12"><a xlink:href="class_fifty_one_1_1_device_detection_1_1_hash_1_1_engine_1_1_on_premise_1_1_interop_1_1_component_meta_data_swig.html" target="_top" xlink:title=" ">
<polygon fill="none" stroke="black" points="157.5,-650.5 157.5,-691.5 331.5,-691.5 331.5,-650.5 157.5,-650.5"/>
<text text-anchor="start" x="165.5" y="-679.5" font-family="Helvetica,sans-Serif" font-size="10.00">FiftyOne.DeviceDetection.</text>
<text text-anchor="start" x="165.5" y="-668.5" font-family="Helvetica,sans-Serif" font-size="10.00">Hash.Engine.OnPremise.Interop.</text>
<text text-anchor="middle" x="244.5" y="-657.5" font-family="Helvetica,sans-Serif" font-size="10.00">ComponentMetaDataSwig</text>
</a>
</g>
</g>
<!-- Node4&#45;&gt;Node8 -->
<g id="edge9" class="edge">
<title>Node4&#45;&gt;Node8</title>
<path fill="none" stroke="midnightblue" d="M120.45,-671C132.31,-671 144.87,-671 157.24,-671"/>
<polygon fill="midnightblue" stroke="midnightblue" points="120.23,-667.5 110.23,-671 120.23,-674.5 120.23,-667.5"/>
</g>
<!-- Node9 -->
<g id="node13" class="node">
<title>Node9</title>
<g id="a_node13"><a xlink:href="class_fifty_one_1_1_device_detection_1_1_hash_1_1_engine_1_1_on_premise_1_1_interop_1_1_config_base_swig.html" target="_top" xlink:title=" ">
<polygon fill="none" stroke="black" points="157.5,-590.5 157.5,-631.5 331.5,-631.5 331.5,-590.5 157.5,-590.5"/>
<text text-anchor="start" x="165.5" y="-619.5" font-family="Helvetica,sans-Serif" font-size="10.00">FiftyOne.DeviceDetection.</text>
<text text-anchor="start" x="165.5" y="-608.5" font-family="Helvetica,sans-Serif" font-size="10.00">Hash.Engine.OnPremise.Interop.</text>
<text text-anchor="middle" x="244.5" y="-597.5" font-family="Helvetica,sans-Serif" font-size="10.00">ConfigBaseSwig</text>
</a>
</g>
</g>
<!-- Node4&#45;&gt;Node9 -->
<g id="edge10" class="edge">
<title>Node4&#45;&gt;Node9</title>
<path fill="none" stroke="midnightblue" d="M93.9,-658.15C109.94,-652.77 128.85,-646.49 146,-641 155.7,-637.89 165.96,-634.67 176.04,-631.53"/>
<polygon fill="midnightblue" stroke="midnightblue" points="92.68,-654.87 84.32,-661.37 94.91,-661.5 92.68,-654.87"/>
</g>
<!-- Node12 -->
<g id="node16" class="node">
<title>Node12</title>
<g id="a_node16"><a xlink:href="class_fifty_one_1_1_device_detection_1_1_hash_1_1_engine_1_1_on_premise_1_1_interop_1_1_date.html" target="_top" xlink:title=" ">
<polygon fill="none" stroke="black" points="146,-541 146,-571 343,-571 343,-541 146,-541"/>
<text text-anchor="start" x="154" y="-559" font-family="Helvetica,sans-Serif" font-size="10.00">FiftyOne.DeviceDetection.</text>
<text text-anchor="middle" x="244.5" y="-548" font-family="Helvetica,sans-Serif" font-size="10.00">Hash.Engine.OnPremise.Interop.Date</text>
</a>
</g>
</g>
<!-- Node4&#45;&gt;Node12 -->
<g id="edge13" class="edge">
<title>Node4&#45;&gt;Node12</title>
<path fill="none" stroke="midnightblue" d="M68.88,-653.29C84.73,-632.79 113.56,-599.5 146,-581 152.83,-577.11 160.27,-573.81 167.9,-571.02"/>
<polygon fill="midnightblue" stroke="midnightblue" points="65.95,-651.36 62.73,-661.46 71.54,-655.57 65.95,-651.36"/>
</g>
<!-- Node13 -->
<g id="node17" class="node">
<title>Node13</title>
<g id="a_node17"><a xlink:href="class_fifty_one_1_1_device_detection_1_1_hash_1_1_engine_1_1_on_premise_1_1_interop_1_1_double_value_swig.html" target="_top" xlink:title=" ">
<polygon fill="none" stroke="black" points="157.5,-480.5 157.5,-521.5 331.5,-521.5 331.5,-480.5 157.5,-480.5"/>
<text text-anchor="start" x="165.5" y="-509.5" font-family="Helvetica,sans-Serif" font-size="10.00">FiftyOne.DeviceDetection.</text>
<text text-anchor="start" x="165.5" y="-498.5" font-family="Helvetica,sans-Serif" font-size="10.00">Hash.Engine.OnPremise.Interop.</text>
<text text-anchor="middle" x="244.5" y="-487.5" font-family="Helvetica,sans-Serif" font-size="10.00">DoubleValueSwig</text>
</a>
</g>
</g>
<!-- Node4&#45;&gt;Node13 -->
<g id="edge14" class="edge">
<title>Node4&#45;&gt;Node13</title>
<path fill="none" stroke="midnightblue" d="M63.25,-651.77C75.6,-621.57 103.58,-563.18 146,-531 150.66,-527.47 155.73,-524.35 161.04,-521.59"/>
<polygon fill="midnightblue" stroke="midnightblue" points="59.95,-650.59 59.53,-661.18 66.46,-653.16 59.95,-650.59"/>
</g>
<!-- Node14 -->
<g id="node18" class="node">
<title>Node14</title>
<g id="a_node18"><a xlink:href="class_fifty_one_1_1_device_detection_1_1_hash_1_1_engine_1_1_on_premise_1_1_interop_1_1_engine_base_swig.html" target="_top" xlink:title=" ">
<polygon fill="none" stroke="black" points="157.5,-420.5 157.5,-461.5 331.5,-461.5 331.5,-420.5 157.5,-420.5"/>
<text text-anchor="start" x="165.5" y="-449.5" font-family="Helvetica,sans-Serif" font-size="10.00">FiftyOne.DeviceDetection.</text>
<text text-anchor="start" x="165.5" y="-438.5" font-family="Helvetica,sans-Serif" font-size="10.00">Hash.Engine.OnPremise.Interop.</text>
<text text-anchor="middle" x="244.5" y="-427.5" font-family="Helvetica,sans-Serif" font-size="10.00">EngineBaseSwig</text>
</a>
</g>
</g>
<!-- Node4&#45;&gt;Node14 -->
<g id="edge15" class="edge">
<title>Node4&#45;&gt;Node14</title>
<path fill="none" stroke="midnightblue" d="M59.28,-651.39C66.99,-611.48 90.02,-520.42 146,-471 149.98,-467.48 154.37,-464.38 159.02,-461.64"/>
<polygon fill="midnightblue" stroke="midnightblue" points="55.8,-650.96 57.46,-661.42 62.69,-652.21 55.8,-650.96"/>
</g>
<!-- Node17 -->
<g id="node21" class="node">
<title>Node17</title>
<g id="a_node21"><a xlink:href="class_fifty_one_1_1_device_detection_1_1_hash_1_1_engine_1_1_on_premise_1_1_interop_1_1_integer_value_swig.html" target="_top" xlink:title=" ">
<polygon fill="none" stroke="black" points="157.5,-360.5 157.5,-401.5 331.5,-401.5 331.5,-360.5 157.5,-360.5"/>
<text text-anchor="start" x="165.5" y="-389.5" font-family="Helvetica,sans-Serif" font-size="10.00">FiftyOne.DeviceDetection.</text>
<text text-anchor="start" x="165.5" y="-378.5" font-family="Helvetica,sans-Serif" font-size="10.00">Hash.Engine.OnPremise.Interop.</text>
<text text-anchor="middle" x="244.5" y="-367.5" font-family="Helvetica,sans-Serif" font-size="10.00">IntegerValueSwig</text>
</a>
</g>
</g>
<!-- Node4&#45;&gt;Node17 -->
<g id="edge18" class="edge">
<title>Node4&#45;&gt;Node17</title>
<path fill="none" stroke="midnightblue" d="M56.97,-651.32C60.43,-603.2 76.02,-478.59 146,-411 149.69,-407.43 153.8,-404.29 158.18,-401.52"/>
<polygon fill="midnightblue" stroke="midnightblue" points="53.48,-651.16 56.35,-661.35 60.46,-651.59 53.48,-651.16"/>
</g>
<!-- Node21 -->
<g id="node22" class="node">
<title>Node21</title>
<g id="a_node22"><a xlink:href="class_fifty_one_1_1_device_detection_1_1_hash_1_1_engine_1_1_on_premise_1_1_interop_1_1_meta_data_swig.html" target="_top" xlink:title=" ">
<polygon fill="none" stroke="black" points="157.5,-300.5 157.5,-341.5 331.5,-341.5 331.5,-300.5 157.5,-300.5"/>
<text text-anchor="start" x="165.5" y="-329.5" font-family="Helvetica,sans-Serif" font-size="10.00">FiftyOne.DeviceDetection.</text>
<text text-anchor="start" x="165.5" y="-318.5" font-family="Helvetica,sans-Serif" font-size="10.00">Hash.Engine.OnPremise.Interop.</text>
<text text-anchor="middle" x="244.5" y="-307.5" font-family="Helvetica,sans-Serif" font-size="10.00">MetaDataSwig</text>
</a>
</g>
</g>
<!-- Node4&#45;&gt;Node21 -->
<g id="edge20" class="edge">
<title>Node4&#45;&gt;Node21</title>
<path fill="none" stroke="midnightblue" d="M55.47,-651.06C55.1,-595.46 61.89,-437.18 146,-351 149.46,-347.45 153.34,-344.32 157.49,-341.56"/>
<polygon fill="midnightblue" stroke="midnightblue" points="51.97,-651.36 55.63,-661.3 58.97,-651.25 51.97,-651.36"/>
</g>
<!-- Node22 -->
<g id="node23" class="node">
<title>Node22</title>
<g id="a_node23"><a xlink:href="class_fifty_one_1_1_device_detection_1_1_hash_1_1_engine_1_1_on_premise_1_1_interop_1_1_profile_meta_data_collection_swig.html" target="_top" xlink:title=" ">
<polygon fill="none" stroke="black" points="157.5,-240.5 157.5,-281.5 331.5,-281.5 331.5,-240.5 157.5,-240.5"/>
<text text-anchor="start" x="165.5" y="-269.5" font-family="Helvetica,sans-Serif" font-size="10.00">FiftyOne.DeviceDetection.</text>
<text text-anchor="start" x="165.5" y="-258.5" font-family="Helvetica,sans-Serif" font-size="10.00">Hash.Engine.OnPremise.Interop.</text>
<text text-anchor="middle" x="244.5" y="-247.5" font-family="Helvetica,sans-Serif" font-size="10.00">ProfileMetaDataCollectionSwig</text>
</a>
</g>
</g>
<!-- Node4&#45;&gt;Node22 -->
<g id="edge21" class="edge">
<title>Node4&#45;&gt;Node22</title>
<path fill="none" stroke="midnightblue" d="M58.09,-651.35C65.91,-581.26 95.64,-344.8 146,-291 149.39,-287.38 153.2,-284.19 157.31,-281.39"/>
<polygon fill="midnightblue" stroke="midnightblue" points="54.59,-651.13 56.98,-661.45 61.55,-651.89 54.59,-651.13"/>
</g>
<!-- Node23 -->
<g id="node24" class="node">
<title>Node23</title>
<g id="a_node24"><a xlink:href="class_fifty_one_1_1_device_detection_1_1_hash_1_1_engine_1_1_on_premise_1_1_interop_1_1_profile_meta_data_swig.html" target="_top" xlink:title=" ">
<polygon fill="none" stroke="black" points="157.5,-180.5 157.5,-221.5 331.5,-221.5 331.5,-180.5 157.5,-180.5"/>
<text text-anchor="start" x="165.5" y="-209.5" font-family="Helvetica,sans-Serif" font-size="10.00">FiftyOne.DeviceDetection.</text>
<text text-anchor="start" x="165.5" y="-198.5" font-family="Helvetica,sans-Serif" font-size="10.00">Hash.Engine.OnPremise.Interop.</text>
<text text-anchor="middle" x="244.5" y="-187.5" font-family="Helvetica,sans-Serif" font-size="10.00">ProfileMetaDataSwig</text>
</a>
</g>
</g>
<!-- Node4&#45;&gt;Node23 -->
<g id="edge22" class="edge">
<title>Node4&#45;&gt;Node23</title>
<path fill="none" stroke="midnightblue" d="M57.44,-650.82C63.38,-573.1 88.43,-294.43 146,-231 149.33,-227.33 153.1,-224.1 157.17,-221.26"/>
<polygon fill="midnightblue" stroke="midnightblue" points="53.93,-650.91 56.68,-661.14 60.91,-651.43 53.93,-650.91"/>
</g>
<!-- Node24 -->
<g id="node25" class="node">
<title>Node24</title>
<g id="a_node25"><a xlink:href="class_fifty_one_1_1_device_detection_1_1_hash_1_1_engine_1_1_on_premise_1_1_interop_1_1_property_meta_data_collection_swig.html" target="_top" xlink:title=" ">
<polygon fill="none" stroke="black" points="155.5,-120.5 155.5,-161.5 333.5,-161.5 333.5,-120.5 155.5,-120.5"/>
<text text-anchor="start" x="163.5" y="-149.5" font-family="Helvetica,sans-Serif" font-size="10.00">FiftyOne.DeviceDetection.</text>
<text text-anchor="start" x="163.5" y="-138.5" font-family="Helvetica,sans-Serif" font-size="10.00">Hash.Engine.OnPremise.Interop.</text>
<text text-anchor="middle" x="244.5" y="-127.5" font-family="Helvetica,sans-Serif" font-size="10.00">PropertyMetaDataCollectionSwig</text>
</a>
</g>
</g>
<!-- Node4&#45;&gt;Node24 -->
<g id="edge23" class="edge">
<title>Node4&#45;&gt;Node24</title>
<path fill="none" stroke="midnightblue" d="M56.87,-651.36C60.97,-568.02 80.91,-244.44 146,-171 149.05,-167.55 152.49,-164.5 156.21,-161.79"/>
<polygon fill="midnightblue" stroke="midnightblue" points="53.37,-651.33 56.4,-661.48 60.37,-651.66 53.37,-651.33"/>
</g>
<!-- Node25 -->
<g id="node26" class="node">
<title>Node25</title>
<g id="a_node26"><a xlink:href="class_fifty_one_1_1_device_detection_1_1_hash_1_1_engine_1_1_on_premise_1_1_interop_1_1_property_meta_data_swig.html" target="_top" xlink:title=" ">
<polygon fill="none" stroke="black" points="157.5,-60.5 157.5,-101.5 331.5,-101.5 331.5,-60.5 157.5,-60.5"/>
<text text-anchor="start" x="165.5" y="-89.5" font-family="Helvetica,sans-Serif" font-size="10.00">FiftyOne.DeviceDetection.</text>
<text text-anchor="start" x="165.5" y="-78.5" font-family="Helvetica,sans-Serif" font-size="10.00">Hash.Engine.OnPremise.Interop.</text>
<text text-anchor="middle" x="244.5" y="-67.5" font-family="Helvetica,sans-Serif" font-size="10.00">PropertyMetaDataSwig</text>
</a>
</g>
</g>
<!-- Node4&#45;&gt;Node25 -->
<g id="edge24" class="edge">
<title>Node4&#45;&gt;Node25</title>
<path fill="none" stroke="midnightblue" d="M56.47,-651.05C58.98,-561.12 73.57,-194.28 146,-111 149.37,-107.12 153.23,-103.74 157.42,-100.79"/>
<polygon fill="midnightblue" stroke="midnightblue" points="52.97,-651.14 56.2,-661.23 59.96,-651.32 52.97,-651.14"/>
</g>
<!-- Node26 -->
<g id="node27" class="node">
<title>Node26</title>
<g id="a_node27"><a xlink:href="class_fifty_one_1_1_device_detection_1_1_hash_1_1_engine_1_1_on_premise_1_1_interop_1_1_required_properties_config_swig.html" target="_top" xlink:title=" ">
<polygon fill="none" stroke="black" points="157.5,-0.5 157.5,-41.5 331.5,-41.5 331.5,-0.5 157.5,-0.5"/>
<text text-anchor="start" x="165.5" y="-29.5" font-family="Helvetica,sans-Serif" font-size="10.00">FiftyOne.DeviceDetection.</text>
<text text-anchor="start" x="165.5" y="-18.5" font-family="Helvetica,sans-Serif" font-size="10.00">Hash.Engine.OnPremise.Interop.</text>
<text text-anchor="middle" x="244.5" y="-7.5" font-family="Helvetica,sans-Serif" font-size="10.00">RequiredPropertiesConfigSwig</text>
</a>
</g>
</g>
<!-- Node4&#45;&gt;Node26 -->
<g id="edge25" class="edge">
<title>Node4&#45;&gt;Node26</title>
<path fill="none" stroke="midnightblue" d="M56.13,-651.07C57.13,-555.43 66.11,-144.28 146,-51 149.34,-47.1 153.18,-43.7 157.35,-40.73"/>
<polygon fill="midnightblue" stroke="midnightblue" points="52.63,-651.1 56.04,-661.13 59.63,-651.16 52.63,-651.1"/>
</g>
<!-- Node27 -->
<g id="node28" class="node">
<title>Node27</title>
<g id="a_node28"><a xlink:href="class_fifty_one_1_1_device_detection_1_1_hash_1_1_engine_1_1_on_premise_1_1_interop_1_1_results_base_swig.html" target="_top" xlink:title=" ">
<polygon fill="none" stroke="black" points="157.5,-1190.5 157.5,-1231.5 331.5,-1231.5 331.5,-1190.5 157.5,-1190.5"/>
<text text-anchor="start" x="165.5" y="-1219.5" font-family="Helvetica,sans-Serif" font-size="10.00">FiftyOne.DeviceDetection.</text>
<text text-anchor="start" x="165.5" y="-1208.5" font-family="Helvetica,sans-Serif" font-size="10.00">Hash.Engine.OnPremise.Interop.</text>
<text text-anchor="middle" x="244.5" y="-1197.5" font-family="Helvetica,sans-Serif" font-size="10.00">ResultsBaseSwig</text>
</a>
</g>
</g>
<!-- Node4&#45;&gt;Node27 -->
<g id="edge26" class="edge">
<title>Node4&#45;&gt;Node27</title>
<path fill="none" stroke="midnightblue" d="M56.8,-690.76C60.64,-775.35 79.71,-1105.94 146,-1181 149.4,-1184.85 153.28,-1188.21 157.49,-1191.15"/>
<polygon fill="midnightblue" stroke="midnightblue" points="60.3,-690.55 56.37,-680.71 53.31,-690.85 60.3,-690.55"/>
</g>
<!-- Node30 -->
<g id="node31" class="node">
<title>Node30</title>
<g id="a_node31"><a xlink:href="class_fifty_one_1_1_device_detection_1_1_hash_1_1_engine_1_1_on_premise_1_1_interop_1_1_string_value_swig.html" target="_top" xlink:title=" ">
<polygon fill="none" stroke="black" points="157.5,-1130.5 157.5,-1171.5 331.5,-1171.5 331.5,-1130.5 157.5,-1130.5"/>
<text text-anchor="start" x="165.5" y="-1159.5" font-family="Helvetica,sans-Serif" font-size="10.00">FiftyOne.DeviceDetection.</text>
<text text-anchor="start" x="165.5" y="-1148.5" font-family="Helvetica,sans-Serif" font-size="10.00">Hash.Engine.OnPremise.Interop.</text>
<text text-anchor="middle" x="244.5" y="-1137.5" font-family="Helvetica,sans-Serif" font-size="10.00">StringValueSwig</text>
</a>
</g>
</g>
<!-- Node4&#45;&gt;Node30 -->
<g id="edge29" class="edge">
<title>Node4&#45;&gt;Node30</title>
<path fill="none" stroke="midnightblue" d="M57.34,-691.13C62.96,-769.87 87.19,-1055.92 146,-1121 149.32,-1124.68 153.09,-1127.91 157.16,-1130.75"/>
<polygon fill="midnightblue" stroke="midnightblue" points="60.8,-690.43 56.62,-680.7 53.81,-690.91 60.8,-690.43"/>
</g>
<!-- Node31 -->
<g id="node32" class="node">
<title>Node31</title>
<g id="a_node32"><a xlink:href="class_fifty_one_1_1_device_detection_1_1_hash_1_1_engine_1_1_on_premise_1_1_interop_1_1_value_meta_data_collection_swig.html" target="_top" xlink:title=" ">
<polygon fill="none" stroke="black" points="157.5,-1070.5 157.5,-1111.5 331.5,-1111.5 331.5,-1070.5 157.5,-1070.5"/>
<text text-anchor="start" x="165.5" y="-1099.5" font-family="Helvetica,sans-Serif" font-size="10.00">FiftyOne.DeviceDetection.</text>
<text text-anchor="start" x="165.5" y="-1088.5" font-family="Helvetica,sans-Serif" font-size="10.00">Hash.Engine.OnPremise.Interop.</text>
<text text-anchor="middle" x="244.5" y="-1077.5" font-family="Helvetica,sans-Serif" font-size="10.00">ValueMetaDataCollectionSwig</text>
</a>
</g>
</g>
<!-- Node4&#45;&gt;Node31 -->
<g id="edge30" class="edge">
<title>Node4&#45;&gt;Node31</title>
<path fill="none" stroke="midnightblue" d="M58.01,-691.16C65.58,-763.07 94.54,-1005.71 146,-1061 149.38,-1064.63 153.18,-1067.82 157.28,-1070.64"/>
<polygon fill="midnightblue" stroke="midnightblue" points="61.45,-690.39 56.95,-680.8 54.49,-691.1 61.45,-690.39"/>
</g>
<!-- Node32 -->
<g id="node33" class="node">
<title>Node32</title>
<g id="a_node33"><a xlink:href="class_fifty_one_1_1_device_detection_1_1_hash_1_1_engine_1_1_on_premise_1_1_interop_1_1_value_meta_data_key_swig.html" target="_top" xlink:title=" ">
<polygon fill="none" stroke="black" points="157.5,-1010.5 157.5,-1051.5 331.5,-1051.5 331.5,-1010.5 157.5,-1010.5"/>
<text text-anchor="start" x="165.5" y="-1039.5" font-family="Helvetica,sans-Serif" font-size="10.00">FiftyOne.DeviceDetection.</text>
<text text-anchor="start" x="165.5" y="-1028.5" font-family="Helvetica,sans-Serif" font-size="10.00">Hash.Engine.OnPremise.Interop.</text>
<text text-anchor="middle" x="244.5" y="-1017.5" font-family="Helvetica,sans-Serif" font-size="10.00">ValueMetaDataKeySwig</text>
</a>
</g>
</g>
<!-- Node4&#45;&gt;Node32 -->
<g id="edge31" class="edge">
<title>Node4&#45;&gt;Node32</title>
<path fill="none" stroke="midnightblue" d="M55.26,-690.81C54.28,-747.43 59.43,-911.6 146,-1001 149.45,-1004.56 153.31,-1007.7 157.45,-1010.48"/>
<polygon fill="midnightblue" stroke="midnightblue" points="58.77,-690.79 55.53,-680.7 51.77,-690.6 58.77,-690.79"/>
</g>
<!-- Node33 -->
<g id="node34" class="node">
<title>Node33</title>
<g id="a_node34"><a xlink:href="class_fifty_one_1_1_device_detection_1_1_hash_1_1_engine_1_1_on_premise_1_1_interop_1_1_value_meta_data_swig.html" target="_top" xlink:title=" ">
<polygon fill="none" stroke="black" points="157.5,-950.5 157.5,-991.5 331.5,-991.5 331.5,-950.5 157.5,-950.5"/>
<text text-anchor="start" x="165.5" y="-979.5" font-family="Helvetica,sans-Serif" font-size="10.00">FiftyOne.DeviceDetection.</text>
<text text-anchor="start" x="165.5" y="-968.5" font-family="Helvetica,sans-Serif" font-size="10.00">Hash.Engine.OnPremise.Interop.</text>
<text text-anchor="middle" x="244.5" y="-957.5" font-family="Helvetica,sans-Serif" font-size="10.00">ValueMetaDataSwig</text>
</a>
</g>
</g>
<!-- Node4&#45;&gt;Node33 -->
<g id="edge32" class="edge">
<title>Node4&#45;&gt;Node33</title>
<path fill="none" stroke="midnightblue" d="M56.68,-690.76C59.48,-740.21 73.7,-870.36 146,-941 149.55,-944.47 153.48,-947.53 157.68,-950.24"/>
<polygon fill="midnightblue" stroke="midnightblue" points="60.18,-690.57 56.22,-680.74 53.19,-690.9 60.18,-690.57"/>
</g>
<!-- Node35 -->
<g id="node35" class="node">
<title>Node35</title>
<g id="a_node35"><a xlink:href="class_fifty_one_1_1_device_detection_1_1_hash_1_1_engine_1_1_on_premise_1_1_interop_1_1_vector_string_values_swig.html" target="_top" xlink:title=" ">
<polygon fill="none" stroke="black" points="157.5,-890.5 157.5,-931.5 331.5,-931.5 331.5,-890.5 157.5,-890.5"/>
<text text-anchor="start" x="165.5" y="-919.5" font-family="Helvetica,sans-Serif" font-size="10.00">FiftyOne.DeviceDetection.</text>
<text text-anchor="start" x="165.5" y="-908.5" font-family="Helvetica,sans-Serif" font-size="10.00">Hash.Engine.OnPremise.Interop.</text>
<text text-anchor="middle" x="244.5" y="-897.5" font-family="Helvetica,sans-Serif" font-size="10.00">VectorStringValuesSwig</text>
</a>
</g>
</g>
<!-- Node4&#45;&gt;Node35 -->
<g id="edge34" class="edge">
<title>Node4&#45;&gt;Node35</title>
<path fill="none" stroke="midnightblue" d="M58.83,-690.72C65.82,-732.14 87.76,-828.65 146,-881 149.95,-884.55 154.32,-887.68 158.94,-890.44"/>
<polygon fill="midnightblue" stroke="midnightblue" points="62.25,-689.92 57.24,-680.58 55.33,-691.01 62.25,-689.92"/>
</g>
<!-- Node10 -->
<g id="node14" class="node">
<title>Node10</title>
<g id="a_node14"><a xlink:href="class_fifty_one_1_1_device_detection_1_1_hash_1_1_engine_1_1_on_premise_1_1_interop_1_1_config_device_detection_swig.html" target="_top" xlink:title=" ">
<polygon fill="none" stroke="black" points="379,-590.5 379,-631.5 553,-631.5 553,-590.5 379,-590.5"/>
<text text-anchor="start" x="387" y="-619.5" font-family="Helvetica,sans-Serif" font-size="10.00">FiftyOne.DeviceDetection.</text>
<text text-anchor="start" x="387" y="-608.5" font-family="Helvetica,sans-Serif" font-size="10.00">Hash.Engine.OnPremise.Interop.</text>
<text text-anchor="middle" x="466" y="-597.5" font-family="Helvetica,sans-Serif" font-size="10.00">ConfigDeviceDetectionSwig</text>
</a>
</g>
</g>
<!-- Node9&#45;&gt;Node10 -->
<g id="edge11" class="edge">
<title>Node9&#45;&gt;Node10</title>
<path fill="none" stroke="midnightblue" d="M341.87,-611C354.15,-611 366.66,-611 378.77,-611"/>
<polygon fill="midnightblue" stroke="midnightblue" points="341.62,-607.5 331.62,-611 341.62,-614.5 341.62,-607.5"/>
</g>
<!-- Node11 -->
<g id="node15" class="node">
<title>Node11</title>
<g id="a_node15"><a xlink:href="class_fifty_one_1_1_device_detection_1_1_hash_1_1_engine_1_1_on_premise_1_1_interop_1_1_config_hash_swig.html" target="_top" xlink:title=" ">
<polygon fill="none" stroke="black" points="589,-590.5 589,-631.5 763,-631.5 763,-590.5 589,-590.5"/>
<text text-anchor="start" x="597" y="-619.5" font-family="Helvetica,sans-Serif" font-size="10.00">FiftyOne.DeviceDetection.</text>
<text text-anchor="start" x="597" y="-608.5" font-family="Helvetica,sans-Serif" font-size="10.00">Hash.Engine.OnPremise.Interop.</text>
<text text-anchor="middle" x="676" y="-597.5" font-family="Helvetica,sans-Serif" font-size="10.00">ConfigHashSwig</text>
</a>
</g>
</g>
<!-- Node10&#45;&gt;Node11 -->
<g id="edge12" class="edge">
<title>Node10&#45;&gt;Node11</title>
<path fill="none" stroke="midnightblue" d="M563.16,-611C571.77,-611 580.45,-611 588.96,-611"/>
<polygon fill="midnightblue" stroke="midnightblue" points="563.1,-607.5 553.1,-611 563.1,-614.5 563.1,-607.5"/>
</g>
<!-- Node15 -->
<g id="node19" class="node">
<title>Node15</title>
<g id="a_node19"><a xlink:href="class_fifty_one_1_1_device_detection_1_1_hash_1_1_engine_1_1_on_premise_1_1_interop_1_1_engine_device_detection_swig.html" target="_top" xlink:title=" ">
<polygon fill="none" stroke="black" points="379,-420.5 379,-461.5 553,-461.5 553,-420.5 379,-420.5"/>
<text text-anchor="start" x="387" y="-449.5" font-family="Helvetica,sans-Serif" font-size="10.00">FiftyOne.DeviceDetection.</text>
<text text-anchor="start" x="387" y="-438.5" font-family="Helvetica,sans-Serif" font-size="10.00">Hash.Engine.OnPremise.Interop.</text>
<text text-anchor="middle" x="466" y="-427.5" font-family="Helvetica,sans-Serif" font-size="10.00">EngineDeviceDetectionSwig</text>
</a>
</g>
</g>
<!-- Node14&#45;&gt;Node15 -->
<g id="edge16" class="edge">
<title>Node14&#45;&gt;Node15</title>
<path fill="none" stroke="midnightblue" d="M341.87,-441C354.15,-441 366.66,-441 378.77,-441"/>
<polygon fill="midnightblue" stroke="midnightblue" points="341.62,-437.5 331.62,-441 341.62,-444.5 341.62,-437.5"/>
</g>
<!-- Node16 -->
<g id="node20" class="node">
<title>Node16</title>
<g id="a_node20"><a xlink:href="class_fifty_one_1_1_device_detection_1_1_hash_1_1_engine_1_1_on_premise_1_1_interop_1_1_engine_hash_swig.html" target="_top" xlink:title=" ">
<polygon fill="none" stroke="black" points="589,-420.5 589,-461.5 763,-461.5 763,-420.5 589,-420.5"/>
<text text-anchor="start" x="597" y="-449.5" font-family="Helvetica,sans-Serif" font-size="10.00">FiftyOne.DeviceDetection.</text>
<text text-anchor="start" x="597" y="-438.5" font-family="Helvetica,sans-Serif" font-size="10.00">Hash.Engine.OnPremise.Interop.</text>
<text text-anchor="middle" x="676" y="-427.5" font-family="Helvetica,sans-Serif" font-size="10.00">EngineHashSwig</text>
</a>
</g>
</g>
<!-- Node15&#45;&gt;Node16 -->
<g id="edge17" class="edge">
<title>Node15&#45;&gt;Node16</title>
<path fill="none" stroke="midnightblue" d="M563.16,-441C571.77,-441 580.45,-441 588.96,-441"/>
<polygon fill="midnightblue" stroke="midnightblue" points="563.1,-437.5 553.1,-441 563.1,-444.5 563.1,-437.5"/>
</g>
<!-- Node28 -->
<g id="node29" class="node">
<title>Node28</title>
<g id="a_node29"><a xlink:href="class_fifty_one_1_1_device_detection_1_1_hash_1_1_engine_1_1_on_premise_1_1_interop_1_1_results_device_detection_swig.html" target="_top" xlink:title=" ">
<polygon fill="none" stroke="black" points="379,-1190.5 379,-1231.5 553,-1231.5 553,-1190.5 379,-1190.5"/>
<text text-anchor="start" x="387" y="-1219.5" font-family="Helvetica,sans-Serif" font-size="10.00">FiftyOne.DeviceDetection.</text>
<text text-anchor="start" x="387" y="-1208.5" font-family="Helvetica,sans-Serif" font-size="10.00">Hash.Engine.OnPremise.Interop.</text>
<text text-anchor="middle" x="466" y="-1197.5" font-family="Helvetica,sans-Serif" font-size="10.00">ResultsDeviceDetectionSwig</text>
</a>
</g>
</g>
<!-- Node27&#45;&gt;Node28 -->
<g id="edge27" class="edge">
<title>Node27&#45;&gt;Node28</title>
<path fill="none" stroke="midnightblue" d="M341.87,-1211C354.15,-1211 366.66,-1211 378.77,-1211"/>
<polygon fill="midnightblue" stroke="midnightblue" points="341.62,-1207.5 331.62,-1211 341.62,-1214.5 341.62,-1207.5"/>
</g>
<!-- Node29 -->
<g id="node30" class="node">
<title>Node29</title>
<g id="a_node30"><a xlink:href="class_fifty_one_1_1_device_detection_1_1_hash_1_1_engine_1_1_on_premise_1_1_interop_1_1_results_hash_swig.html" target="_top" xlink:title=" ">
<polygon fill="none" stroke="black" points="589,-1190.5 589,-1231.5 763,-1231.5 763,-1190.5 589,-1190.5"/>
<text text-anchor="start" x="597" y="-1219.5" font-family="Helvetica,sans-Serif" font-size="10.00">FiftyOne.DeviceDetection.</text>
<text text-anchor="start" x="597" y="-1208.5" font-family="Helvetica,sans-Serif" font-size="10.00">Hash.Engine.OnPremise.Interop.</text>
<text text-anchor="middle" x="676" y="-1197.5" font-family="Helvetica,sans-Serif" font-size="10.00">ResultsHashSwig</text>
</a>
</g>
</g>
<!-- Node28&#45;&gt;Node29 -->
<g id="edge28" class="edge">
<title>Node28&#45;&gt;Node29</title>
<path fill="none" stroke="midnightblue" d="M563.16,-1211C571.77,-1211 580.45,-1211 588.96,-1211"/>
<polygon fill="midnightblue" stroke="midnightblue" points="563.1,-1207.5 553.1,-1211 563.1,-1214.5 563.1,-1207.5"/>
</g>
</g>
</svg>
