<?xml version="1.0" encoding="UTF-8" standalone="no"?>
<!DOCTYPE svg PUBLIC "-//W3C//DTD SVG 1.1//EN"
 "http://www.w3.org/Graphics/SVG/1.1/DTD/svg11.dtd">
<!-- Generated by graphviz version 2.43.0 (0)
 -->
<!-- Title: Graphical Class Hierarchy Pages: 1 -->
<svg width="627pt" height="88pt"
 viewBox="0.00 0.00 627.00 88.00" xmlns="http://www.w3.org/2000/svg" xmlns:xlink="http://www.w3.org/1999/xlink">
<g id="graph0" class="graph" transform="scale(1 1) rotate(0) translate(4 84)">
<title>Graphical Class Hierarchy</title>
<!-- Node0 -->
<g id="node1" class="node">
<title>Node0</title>
<g id="a_node1"><a xlink:href="interface_fifty_one_1_1_device_detection_1_1_apple_1_1_i_apple_decision_tree_node.html" target="_top" xlink:title=" ">
<polygon fill="none" stroke="black" points="0,-24.5 0,-54.5 166,-54.5 166,-24.5 0,-24.5"/>
<text text-anchor="start" x="8" y="-42.5" font-family="Helvetica,sans-Serif" font-size="10.00">FiftyOne.DeviceDetection.</text>
<text text-anchor="middle" x="83" y="-31.5" font-family="Helvetica,sans-Serif" font-size="10.00">Apple.IAppleDecisionTreeNode</text>
</a>
</g>
</g>
<!-- Node1 -->
<g id="node2" class="node">
<title>Node1</title>
<g id="a_node2"><a xlink:href="class_fifty_one_1_1_device_detection_1_1_apple_1_1_apple_decision_tree_node_base.html" target="_top" xlink:title="Base class for nodes in the decision tree used by AppleDecisionTree.">
<polygon fill="none" stroke="black" points="202,-24.5 202,-54.5 389,-54.5 389,-24.5 202,-24.5"/>
<text text-anchor="start" x="210" y="-42.5" font-family="Helvetica,sans-Serif" font-size="10.00">FiftyOne.DeviceDetection.</text>
<text text-anchor="middle" x="295.5" y="-31.5" font-family="Helvetica,sans-Serif" font-size="10.00">Apple.AppleDecisionTreeNodeBase</text>
</a>
</g>
</g>
<!-- Node0&#45;&gt;Node1 -->
<g id="edge1" class="edge">
<title>Node0&#45;&gt;Node1</title>
<path fill="none" stroke="midnightblue" d="M176.47,-39.5C184.88,-39.5 193.39,-39.5 201.8,-39.5"/>
<polygon fill="midnightblue" stroke="midnightblue" points="176.29,-36 166.29,-39.5 176.29,-43 176.29,-36"/>
</g>
<!-- Node2 -->
<g id="node3" class="node">
<title>Node2</title>
<g id="a_node3"><a xlink:href="class_fifty_one_1_1_device_detection_1_1_apple_1_1_apple_decision_tree_node.html" target="_top" xlink:title="A node in the decision tree that matches an evidence value against a single expected value">
<polygon fill="none" stroke="black" points="440.5,-49.5 440.5,-79.5 603.5,-79.5 603.5,-49.5 440.5,-49.5"/>
<text text-anchor="start" x="448.5" y="-67.5" font-family="Helvetica,sans-Serif" font-size="10.00">FiftyOne.DeviceDetection.</text>
<text text-anchor="middle" x="522" y="-56.5" font-family="Helvetica,sans-Serif" font-size="10.00">Apple.AppleDecisionTreeNode</text>
</a>
</g>
</g>
<!-- Node1&#45;&gt;Node2 -->
<g id="edge2" class="edge">
<title>Node1&#45;&gt;Node2</title>
<path fill="none" stroke="midnightblue" d="M399.15,-50.93C413,-52.47 427.04,-54.04 440.43,-55.53"/>
<polygon fill="midnightblue" stroke="midnightblue" points="399.43,-47.44 389.11,-49.81 398.66,-54.4 399.43,-47.44"/>
</g>
<!-- Node3 -->
<g id="node4" class="node">
<title>Node3</title>
<g id="a_node4"><a xlink:href="class_fifty_one_1_1_device_detection_1_1_apple_1_1_apple_decision_tree_node_range.html" target="_top" xlink:title="A node in the decision tree that matches an evidence value against an expected range of values.">
<polygon fill="none" stroke="black" points="425,-0.5 425,-30.5 619,-30.5 619,-0.5 425,-0.5"/>
<text text-anchor="start" x="433" y="-18.5" font-family="Helvetica,sans-Serif" font-size="10.00">FiftyOne.DeviceDetection.</text>
<text text-anchor="middle" x="522" y="-7.5" font-family="Helvetica,sans-Serif" font-size="10.00">Apple.AppleDecisionTreeNodeRange</text>
</a>
</g>
</g>
<!-- Node1&#45;&gt;Node3 -->
<g id="edge3" class="edge">
<title>Node1&#45;&gt;Node3</title>
<path fill="none" stroke="midnightblue" d="M399.16,-28.53C407.75,-27.61 416.43,-26.68 424.97,-25.77"/>
<polygon fill="midnightblue" stroke="midnightblue" points="398.68,-25.06 389.11,-29.6 399.42,-32.02 398.68,-25.06"/>
</g>
</g>
</svg>
