<?xml version="1.0" encoding="UTF-8" standalone="no"?>
<!DOCTYPE svg PUBLIC "-//W3C//DTD SVG 1.1//EN"
 "http://www.w3.org/Graphics/SVG/1.1/DTD/svg11.dtd">
<!-- Generated by graphviz version 2.43.0 (0)
 -->
<!-- Title: Graphical Class Hierarchy Pages: 1 -->
<svg width="458pt" height="126pt"
 viewBox="0.00 0.00 458.00 125.50" xmlns="http://www.w3.org/2000/svg" xmlns:xlink="http://www.w3.org/1999/xlink">
<g id="graph0" class="graph" transform="scale(1 1) rotate(0) translate(4 121.5)">
<title>Graphical Class Hierarchy</title>
<!-- Node120 -->
<g id="node1" class="node">
<title>Node120</title>
<g id="a_node1"><a xlink:title=" ">
<polygon fill="none" stroke="#bfbfbf" points="47.5,-41.5 47.5,-60.5 124.5,-60.5 124.5,-41.5 47.5,-41.5"/>
<text text-anchor="middle" x="86" y="-48.5" font-family="Helvetica,sans-Serif" font-size="10.00">IEnumerator</text>
</a>
</g>
</g>
<!-- Node0 -->
<g id="node2" class="node">
<title>Node0</title>
<g id="a_node2"><a xlink:href="class_fifty_one_1_1_device_detection_1_1_hash_1_1_engine_1_1_on_premise_1_1_interop_1_1_map_stri19a059297230c4ac79470a9716a8ad77.html" target="_top" xlink:title="Note that the IEnumerator documentation requires an InvalidOperationException to be thrown whenever t...">
<polygon fill="none" stroke="black" points="229.5,-65 229.5,-117 428.5,-117 428.5,-65 229.5,-65"/>
<text text-anchor="start" x="237.5" y="-105" font-family="Helvetica,sans-Serif" font-size="10.00">FiftyOne.DeviceDetection.</text>
<text text-anchor="start" x="237.5" y="-94" font-family="Helvetica,sans-Serif" font-size="10.00">Hash.Engine.OnPremise.Interop.</text>
<text text-anchor="start" x="237.5" y="-83" font-family="Helvetica,sans-Serif" font-size="10.00">MapStringStringSwig.MapStringString</text>
<text text-anchor="middle" x="329" y="-72" font-family="Helvetica,sans-Serif" font-size="10.00">SwigEnumerator</text>
</a>
</g>
</g>
<!-- Node120&#45;&gt;Node0 -->
<g id="edge1" class="edge">
<title>Node120&#45;&gt;Node0</title>
<path fill="none" stroke="midnightblue" d="M134.62,-58.9C161.68,-63.39 196.59,-69.19 229.28,-74.62"/>
<polygon fill="midnightblue" stroke="midnightblue" points="135.09,-55.43 124.66,-57.25 133.95,-62.34 135.09,-55.43"/>
</g>
<!-- Node119 -->
<g id="node3" class="node">
<title>Node119</title>
<g id="a_node3"><a xlink:href="class_fifty_one_1_1_device_detection_1_1_hash_1_1_engine_1_1_on_premise_1_1_interop_1_1_vector_s9a2bd8ed0db617d6a28aadc4c153bebd.html" target="_top" xlink:title="Note that the IEnumerator documentation requires an InvalidOperationException to be thrown whenever t...">
<polygon fill="none" stroke="black" points="208,-0.5 208,-41.5 450,-41.5 450,-0.5 208,-0.5"/>
<text text-anchor="start" x="216" y="-29.5" font-family="Helvetica,sans-Serif" font-size="10.00">FiftyOne.DeviceDetection.</text>
<text text-anchor="start" x="216" y="-18.5" font-family="Helvetica,sans-Serif" font-size="10.00">Hash.Engine.OnPremise.Interop.</text>
<text text-anchor="middle" x="329" y="-7.5" font-family="Helvetica,sans-Serif" font-size="10.00">VectorStringSwig.VectorStringSwigEnumerator</text>
</a>
</g>
</g>
<!-- Node120&#45;&gt;Node119 -->
<g id="edge2" class="edge">
<title>Node120&#45;&gt;Node119</title>
<path fill="none" stroke="midnightblue" d="M134.66,-45.07C155.88,-42.43 181.93,-39.18 207.94,-35.95"/>
<polygon fill="midnightblue" stroke="midnightblue" points="134.15,-41.6 124.66,-46.31 135.01,-48.55 134.15,-41.6"/>
</g>
<!-- Node118 -->
<g id="node4" class="node">
<title>Node118</title>
<g id="a_node4"><a xlink:title=" ">
<polygon fill="none" stroke="#bfbfbf" points="47.5,-3.5 47.5,-22.5 124.5,-22.5 124.5,-3.5 47.5,-3.5"/>
<text text-anchor="middle" x="86" y="-10.5" font-family="Helvetica,sans-Serif" font-size="10.00">IEnumerator</text>
</a>
</g>
</g>
<!-- Node118&#45;&gt;Node119 -->
<g id="edge3" class="edge">
<title>Node118&#45;&gt;Node119</title>
<path fill="none" stroke="midnightblue" d="M134.66,-14.58C155.88,-15.29 181.93,-16.15 207.94,-17.01"/>
<polygon fill="midnightblue" stroke="midnightblue" points="134.77,-11.08 124.66,-14.25 134.53,-18.08 134.77,-11.08"/>
</g>
<!-- Node36 -->
<g id="node5" class="node">
<title>Node36</title>
<g id="a_node5"><a xlink:title=" ">
<polygon fill="none" stroke="#bfbfbf" points="0,-80 0,-110 172,-110 172,-80 0,-80"/>
<text text-anchor="start" x="8" y="-98" font-family="Helvetica,sans-Serif" font-size="10.00">System.Collections.Generic.</text>
<text text-anchor="middle" x="86" y="-87" font-family="Helvetica,sans-Serif" font-size="10.00">KeyValuePair&lt; string, string &gt;&gt;</text>
</a>
</g>
</g>
<!-- Node36&#45;&gt;Node0 -->
<g id="edge4" class="edge">
<title>Node36&#45;&gt;Node0</title>
<path fill="none" stroke="midnightblue" d="M182.34,-93.42C197.75,-93.16 213.73,-92.9 229.22,-92.64"/>
<polygon fill="midnightblue" stroke="midnightblue" points="182.25,-89.92 172.31,-93.58 182.36,-96.92 182.25,-89.92"/>
</g>
</g>
</svg>
