<?xml version="1.0" encoding="UTF-8" standalone="no"?>
<!DOCTYPE svg PUBLIC "-//W3C//DTD SVG 1.1//EN"
 "http://www.w3.org/Graphics/SVG/1.1/DTD/svg11.dtd">
<!-- Generated by graphviz version 2.43.0 (0)
 -->
<!-- Title: Graphical Class Hierarchy Pages: 1 -->
<svg width="226pt" height="66pt"
 viewBox="0.00 0.00 226.00 66.00" xmlns="http://www.w3.org/2000/svg" xmlns:xlink="http://www.w3.org/1999/xlink">
<g id="graph0" class="graph" transform="scale(1 1) rotate(0) translate(4 62)">
<title>Graphical Class Hierarchy</title>
<!-- Node77 -->
<g id="node1" class="node">
<title>Node77</title>
<g id="a_node1"><a xlink:title=" ">
<polygon fill="none" stroke="#bfbfbf" points="0,-19.5 0,-38.5 40,-38.5 40,-19.5 0,-19.5"/>
<text text-anchor="middle" x="20" y="-26.5" font-family="Helvetica,sans-Serif" font-size="10.00">Page</text>
</a>
</g>
</g>
<!-- Node0 -->
<g id="node2" class="node">
<title>Node0</title>
<g id="a_node2"><a xlink:href="class_framework___web_1_1___default.html" target="_top" xlink:title=" ">
<polygon fill="none" stroke="black" points="76,-38.5 76,-57.5 218,-57.5 218,-38.5 76,-38.5"/>
<text text-anchor="middle" x="147" y="-45.5" font-family="Helvetica,sans-Serif" font-size="10.00">Framework_Web._Default</text>
</a>
</g>
</g>
<!-- Node77&#45;&gt;Node0 -->
<g id="edge1" class="edge">
<title>Node77&#45;&gt;Node0</title>
<path fill="none" stroke="midnightblue" d="M50.36,-33.46C60.3,-34.97 71.82,-36.72 83.35,-38.48"/>
<polygon fill="midnightblue" stroke="midnightblue" points="50.67,-29.97 40.26,-31.93 49.62,-36.89 50.67,-29.97"/>
</g>
<!-- Node79 -->
<g id="node3" class="node">
<title>Node79</title>
<g id="a_node3"><a xlink:href="class_framework___web_1_1_default.html" target="_top" xlink:title=" ">
<polygon fill="none" stroke="black" points="78.5,-0.5 78.5,-19.5 215.5,-19.5 215.5,-0.5 78.5,-0.5"/>
<text text-anchor="middle" x="147" y="-7.5" font-family="Helvetica,sans-Serif" font-size="10.00">Framework_Web.Default</text>
</a>
</g>
</g>
<!-- Node77&#45;&gt;Node79 -->
<g id="edge2" class="edge">
<title>Node77&#45;&gt;Node79</title>
<path fill="none" stroke="midnightblue" d="M50.36,-24.54C60.3,-23.03 71.82,-21.28 83.35,-19.52"/>
<polygon fill="midnightblue" stroke="midnightblue" points="49.62,-21.11 40.26,-26.07 50.67,-28.03 49.62,-21.11"/>
</g>
</g>
</svg>
