<?xml version="1.0" encoding="UTF-8" standalone="no"?>
<!DOCTYPE svg PUBLIC "-//W3C//DTD SVG 1.1//EN"
 "http://www.w3.org/Graphics/SVG/1.1/DTD/svg11.dtd">
<!-- Generated by graphviz version 2.43.0 (0)
 -->
<!-- Title: Graphical Class Hierarchy Pages: 1 -->
<svg width="586pt" height="460pt"
 viewBox="0.00 0.00 586.00 459.50" xmlns="http://www.w3.org/2000/svg" xmlns:xlink="http://www.w3.org/1999/xlink">
<g id="graph0" class="graph" transform="scale(1 1) rotate(0) translate(4 455.5)">
<title>Graphical Class Hierarchy</title>
<!-- Node0 -->
<g id="node1" class="node">
<title>Node0</title>
<g id="a_node1"><a xlink:href="class_fifty_one_1_1_device_detection_1_1_examples_1_1_example_base.html" target="_top" xlink:title=" ">
<polygon fill="none" stroke="black" points="0,-216 0,-246 144,-246 144,-216 0,-216"/>
<text text-anchor="start" x="8" y="-234" font-family="Helvetica,sans-Serif" font-size="10.00">FiftyOne.DeviceDetection.</text>
<text text-anchor="middle" x="72" y="-223" font-family="Helvetica,sans-Serif" font-size="10.00">Examples.ExampleBase</text>
</a>
</g>
</g>
<!-- Node1 -->
<g id="node2" class="node">
<title>Node1</title>
<g id="a_node2"><a xlink:href="class_fifty_one_1_1_device_detection_1_1_examples_1_1_apple_example_base.html" target="_top" xlink:title=" ">
<polygon fill="none" stroke="black" points="208,-421 208,-451 370,-451 370,-421 208,-421"/>
<text text-anchor="start" x="216" y="-439" font-family="Helvetica,sans-Serif" font-size="10.00">FiftyOne.DeviceDetection.</text>
<text text-anchor="middle" x="289" y="-428" font-family="Helvetica,sans-Serif" font-size="10.00">Examples.AppleExampleBase</text>
</a>
</g>
</g>
<!-- Node0&#45;&gt;Node1 -->
<g id="edge1" class="edge">
<title>Node0&#45;&gt;Node1</title>
<path fill="none" stroke="midnightblue" d="M80.6,-255.72C94.01,-295.01 125.7,-371.33 180,-411 188.31,-417.07 197.87,-421.7 207.79,-425.22"/>
<polygon fill="midnightblue" stroke="midnightblue" points="83.89,-254.53 77.44,-246.12 77.24,-256.72 83.89,-254.53"/>
</g>
<!-- Node3 -->
<g id="node4" class="node">
<title>Node3</title>
<g id="a_node4"><a xlink:href="class_fifty_one_1_1_device_detection_1_1_examples_1_1_cloud_1_1_metadata_1_1_program_1_1_example.html" target="_top" xlink:title=" ">
<polygon fill="none" stroke="black" points="193,-360.5 193,-401.5 385,-401.5 385,-360.5 193,-360.5"/>
<text text-anchor="start" x="201" y="-389.5" font-family="Helvetica,sans-Serif" font-size="10.00">FiftyOne.DeviceDetection.</text>
<text text-anchor="start" x="201" y="-378.5" font-family="Helvetica,sans-Serif" font-size="10.00">Examples.Cloud.Metadata.Program.</text>
<text text-anchor="middle" x="289" y="-367.5" font-family="Helvetica,sans-Serif" font-size="10.00">Example</text>
</a>
</g>
</g>
<!-- Node0&#45;&gt;Node3 -->
<g id="edge3" class="edge">
<title>Node0&#45;&gt;Node3</title>
<path fill="none" stroke="midnightblue" d="M87.83,-254.57C106.19,-281.81 139.97,-326.09 180,-351 185.7,-354.55 191.82,-357.68 198.16,-360.46"/>
<polygon fill="midnightblue" stroke="midnightblue" points="90.63,-252.46 82.21,-246.03 84.79,-256.31 90.63,-252.46"/>
</g>
<!-- Node4 -->
<g id="node5" class="node">
<title>Node4</title>
<g id="a_node5"><a xlink:href="class_fifty_one_1_1_device_detection_1_1_examples_1_1_on_premise_1_1_getting_started_console_1_1_program_1_1_example.html" target="_top" xlink:title=" ">
<polygon fill="none" stroke="black" points="191.5,-300.5 191.5,-341.5 386.5,-341.5 386.5,-300.5 191.5,-300.5"/>
<text text-anchor="start" x="199.5" y="-329.5" font-family="Helvetica,sans-Serif" font-size="10.00">FiftyOne.DeviceDetection.</text>
<text text-anchor="start" x="199.5" y="-318.5" font-family="Helvetica,sans-Serif" font-size="10.00">Examples.OnPremise.GettingStarted</text>
<text text-anchor="middle" x="289" y="-307.5" font-family="Helvetica,sans-Serif" font-size="10.00">Console.Program.Example</text>
</a>
</g>
</g>
<!-- Node0&#45;&gt;Node4 -->
<g id="edge4" class="edge">
<title>Node0&#45;&gt;Node4</title>
<path fill="none" stroke="midnightblue" d="M104.7,-251.44C125.47,-264.16 153.59,-280.11 180,-291 188.28,-294.41 197.06,-297.57 205.92,-300.44"/>
<polygon fill="midnightblue" stroke="midnightblue" points="106.32,-248.33 95.98,-246.03 102.63,-254.28 106.32,-248.33"/>
</g>
<!-- Node5 -->
<g id="node6" class="node">
<title>Node5</title>
<g id="a_node6"><a xlink:href="class_fifty_one_1_1_device_detection_1_1_examples_1_1_on_premise_1_1_match_metrics_1_1_program_1_1_example.html" target="_top" xlink:title=" ">
<polygon fill="none" stroke="black" points="192.5,-240.5 192.5,-281.5 385.5,-281.5 385.5,-240.5 192.5,-240.5"/>
<text text-anchor="start" x="200.5" y="-269.5" font-family="Helvetica,sans-Serif" font-size="10.00">FiftyOne.DeviceDetection.</text>
<text text-anchor="start" x="200.5" y="-258.5" font-family="Helvetica,sans-Serif" font-size="10.00">Examples.OnPremise.MatchMetrics.</text>
<text text-anchor="middle" x="289" y="-247.5" font-family="Helvetica,sans-Serif" font-size="10.00">Program.Example</text>
</a>
</g>
</g>
<!-- Node0&#45;&gt;Node5 -->
<g id="edge5" class="edge">
<title>Node0&#45;&gt;Node5</title>
<path fill="none" stroke="midnightblue" d="M154.55,-242.38C166.91,-244.1 179.75,-245.9 192.38,-247.66"/>
<polygon fill="midnightblue" stroke="midnightblue" points="154.68,-238.86 144.29,-240.95 153.71,-245.8 154.68,-238.86"/>
</g>
<!-- Node6 -->
<g id="node7" class="node">
<title>Node6</title>
<g id="a_node7"><a xlink:href="class_fifty_one_1_1_device_detection_1_1_examples_1_1_on_premise_1_1_metadata_1_1_program_1_1_example.html" target="_top" xlink:title=" ">
<polygon fill="none" stroke="black" points="180,-180.5 180,-221.5 398,-221.5 398,-180.5 180,-180.5"/>
<text text-anchor="start" x="188" y="-209.5" font-family="Helvetica,sans-Serif" font-size="10.00">FiftyOne.DeviceDetection.</text>
<text text-anchor="start" x="188" y="-198.5" font-family="Helvetica,sans-Serif" font-size="10.00">Examples.OnPremise.Metadata.Program.</text>
<text text-anchor="middle" x="289" y="-187.5" font-family="Helvetica,sans-Serif" font-size="10.00">Example</text>
</a>
</g>
</g>
<!-- Node0&#45;&gt;Node6 -->
<g id="edge6" class="edge">
<title>Node0&#45;&gt;Node6</title>
<path fill="none" stroke="midnightblue" d="M154.29,-219.66C162.59,-218.5 171.11,-217.31 179.63,-216.12"/>
<polygon fill="midnightblue" stroke="midnightblue" points="153.71,-216.2 144.29,-221.05 154.68,-223.14 153.71,-216.2"/>
</g>
<!-- Node7 -->
<g id="node8" class="node">
<title>Node7</title>
<g id="a_node8"><a xlink:href="class_fifty_one_1_1_device_detection_1_1_examples_1_1_on_premise_1_1_offline_processing_1_1_program_1_1_example.html" target="_top" xlink:title=" ">
<polygon fill="none" stroke="black" points="183,-120.5 183,-161.5 395,-161.5 395,-120.5 183,-120.5"/>
<text text-anchor="start" x="191" y="-149.5" font-family="Helvetica,sans-Serif" font-size="10.00">FiftyOne.DeviceDetection.</text>
<text text-anchor="start" x="191" y="-138.5" font-family="Helvetica,sans-Serif" font-size="10.00">Examples.OnPremise.OfflineProcessing.</text>
<text text-anchor="middle" x="289" y="-127.5" font-family="Helvetica,sans-Serif" font-size="10.00">Program.Example</text>
</a>
</g>
</g>
<!-- Node0&#45;&gt;Node7 -->
<g id="edge7" class="edge">
<title>Node0&#45;&gt;Node7</title>
<path fill="none" stroke="midnightblue" d="M104.7,-210.56C125.47,-197.84 153.59,-181.89 180,-171 188.28,-167.59 197.06,-164.43 205.92,-161.56"/>
<polygon fill="midnightblue" stroke="midnightblue" points="102.63,-207.72 95.98,-215.97 106.32,-213.67 102.63,-207.72"/>
</g>
<!-- Node8 -->
<g id="node9" class="node">
<title>Node8</title>
<g id="a_node9"><a xlink:href="class_fifty_one_1_1_device_detection_1_1_examples_1_1_on_premise_1_1_performance_1_1_program_1_1_example.html" target="_top" xlink:title=" ">
<polygon fill="none" stroke="black" points="194.5,-60.5 194.5,-101.5 383.5,-101.5 383.5,-60.5 194.5,-60.5"/>
<text text-anchor="start" x="202.5" y="-89.5" font-family="Helvetica,sans-Serif" font-size="10.00">FiftyOne.DeviceDetection.</text>
<text text-anchor="start" x="202.5" y="-78.5" font-family="Helvetica,sans-Serif" font-size="10.00">Examples.OnPremise.Performance.</text>
<text text-anchor="middle" x="289" y="-67.5" font-family="Helvetica,sans-Serif" font-size="10.00">Program.Example</text>
</a>
</g>
</g>
<!-- Node0&#45;&gt;Node8 -->
<g id="edge8" class="edge">
<title>Node0&#45;&gt;Node8</title>
<path fill="none" stroke="midnightblue" d="M87.83,-207.43C106.19,-180.19 139.97,-135.91 180,-111 185.7,-107.45 191.82,-104.32 198.16,-101.54"/>
<polygon fill="midnightblue" stroke="midnightblue" points="84.79,-205.69 82.21,-215.97 90.63,-209.54 84.79,-205.69"/>
</g>
<!-- Node9 -->
<g id="node10" class="node">
<title>Node9</title>
<g id="a_node10"><a xlink:href="class_fifty_one_1_1_device_detection_1_1_examples_1_1_on_premise_1_1_update_data_file_1_1_program_1_1_example.html" target="_top" xlink:title=" ">
<polygon fill="none" stroke="black" points="187.5,-0.5 187.5,-41.5 390.5,-41.5 390.5,-0.5 187.5,-0.5"/>
<text text-anchor="start" x="195.5" y="-29.5" font-family="Helvetica,sans-Serif" font-size="10.00">FiftyOne.DeviceDetection.</text>
<text text-anchor="start" x="195.5" y="-18.5" font-family="Helvetica,sans-Serif" font-size="10.00">Examples.OnPremise.UpdateDataFile.</text>
<text text-anchor="middle" x="289" y="-7.5" font-family="Helvetica,sans-Serif" font-size="10.00">Program.Example</text>
</a>
</g>
</g>
<!-- Node0&#45;&gt;Node9 -->
<g id="edge9" class="edge">
<title>Node0&#45;&gt;Node9</title>
<path fill="none" stroke="midnightblue" d="M80.91,-206.26C94.65,-167.26 126.71,-91.74 180,-51 184.64,-47.45 189.67,-44.33 194.95,-41.57"/>
<polygon fill="midnightblue" stroke="midnightblue" points="77.57,-205.2 77.66,-215.79 84.2,-207.45 77.57,-205.2"/>
</g>
<!-- Node2 -->
<g id="node3" class="node">
<title>Node2</title>
<g id="a_node3"><a xlink:href="class_apple_server_side___console_1_1_program_1_1_example.html" target="_top" xlink:title=" ">
<polygon fill="none" stroke="black" points="434,-421 434,-451 578,-451 578,-421 434,-421"/>
<text text-anchor="start" x="442" y="-439" font-family="Helvetica,sans-Serif" font-size="10.00">AppleServerSide_Console.</text>
<text text-anchor="middle" x="506" y="-428" font-family="Helvetica,sans-Serif" font-size="10.00">Program.Example</text>
</a>
</g>
</g>
<!-- Node1&#45;&gt;Node2 -->
<g id="edge2" class="edge">
<title>Node1&#45;&gt;Node2</title>
<path fill="none" stroke="midnightblue" d="M380.45,-436C398.24,-436 416.67,-436 433.73,-436"/>
<polygon fill="midnightblue" stroke="midnightblue" points="380.06,-432.5 370.06,-436 380.06,-439.5 380.06,-432.5"/>
</g>
</g>
</svg>
