<?xml version="1.0" encoding="UTF-8" standalone="no"?>
<!DOCTYPE svg PUBLIC "-//W3C//DTD SVG 1.1//EN"
 "http://www.w3.org/Graphics/SVG/1.1/DTD/svg11.dtd">
<!-- Generated by graphviz version 2.43.0 (0)
 -->
<!-- Title: Graphical Class Hierarchy Pages: 1 -->
<svg width="458pt" height="126pt"
 viewBox="0.00 0.00 458.00 125.50" xmlns="http://www.w3.org/2000/svg" xmlns:xlink="http://www.w3.org/1999/xlink">
<g id="graph0" class="graph" transform="scale(1 1) rotate(0) translate(4 121.5)">
<title>Graphical Class Hierarchy</title>
<!-- Node121 -->
<g id="node1" class="node">
<title>Node121</title>
<g id="a_node1"><a xlink:title=" ">
<polygon fill="none" stroke="#bfbfbf" points="47.5,-91 47.5,-110 124.5,-110 124.5,-91 47.5,-91"/>
<text text-anchor="middle" x="86" y="-98" font-family="Helvetica,sans-Serif" font-size="10.00">IEnumerator</text>
</a>
</g>
</g>
<!-- Node120 -->
<g id="node2" class="node">
<title>Node120</title>
<g id="a_node2"><a xlink:href="class_fifty_one_1_1_device_detection_1_1_hash_1_1_engine_1_1_on_premise_1_1_interop_1_1_vector_s9a2bd8ed0db617d6a28aadc4c153bebd.html" target="_top" xlink:title="Note that the IEnumerator documentation requires an InvalidOperationException to be thrown whenever t...">
<polygon fill="none" stroke="black" points="208,-76 208,-117 450,-117 450,-76 208,-76"/>
<text text-anchor="start" x="216" y="-105" font-family="Helvetica,sans-Serif" font-size="10.00">FiftyOne.DeviceDetection.</text>
<text text-anchor="start" x="216" y="-94" font-family="Helvetica,sans-Serif" font-size="10.00">Hash.Engine.OnPremise.Interop.</text>
<text text-anchor="middle" x="329" y="-83" font-family="Helvetica,sans-Serif" font-size="10.00">VectorStringSwig.VectorStringSwigEnumerator</text>
</a>
</g>
</g>
<!-- Node121&#45;&gt;Node120 -->
<g id="edge1" class="edge">
<title>Node121&#45;&gt;Node120</title>
<path fill="none" stroke="midnightblue" d="M134.66,-99.71C155.88,-99.36 181.93,-98.92 207.94,-98.49"/>
<polygon fill="midnightblue" stroke="midnightblue" points="134.6,-96.21 124.66,-99.88 134.71,-103.21 134.6,-96.21"/>
</g>
<!-- Node119 -->
<g id="node3" class="node">
<title>Node119</title>
<g id="a_node3"><a xlink:title=" ">
<polygon fill="none" stroke="#bfbfbf" points="47.5,-53 47.5,-72 124.5,-72 124.5,-53 47.5,-53"/>
<text text-anchor="middle" x="86" y="-60" font-family="Helvetica,sans-Serif" font-size="10.00">IEnumerator</text>
</a>
</g>
</g>
<!-- Node119&#45;&gt;Node120 -->
<g id="edge3" class="edge">
<title>Node119&#45;&gt;Node120</title>
<path fill="none" stroke="midnightblue" d="M134.66,-69.22C155.88,-72.22 181.93,-75.89 207.94,-79.56"/>
<polygon fill="midnightblue" stroke="midnightblue" points="135.05,-65.74 124.66,-67.81 134.07,-72.68 135.05,-65.74"/>
</g>
<!-- Node0 -->
<g id="node4" class="node">
<title>Node0</title>
<g id="a_node4"><a xlink:href="class_fifty_one_1_1_device_detection_1_1_hash_1_1_engine_1_1_on_premise_1_1_interop_1_1_map_stri19a059297230c4ac79470a9716a8ad77.html" target="_top" xlink:title="Note that the IEnumerator documentation requires an InvalidOperationException to be thrown whenever t...">
<polygon fill="none" stroke="black" points="229.5,-0.5 229.5,-52.5 428.5,-52.5 428.5,-0.5 229.5,-0.5"/>
<text text-anchor="start" x="237.5" y="-40.5" font-family="Helvetica,sans-Serif" font-size="10.00">FiftyOne.DeviceDetection.</text>
<text text-anchor="start" x="237.5" y="-29.5" font-family="Helvetica,sans-Serif" font-size="10.00">Hash.Engine.OnPremise.Interop.</text>
<text text-anchor="start" x="237.5" y="-18.5" font-family="Helvetica,sans-Serif" font-size="10.00">MapStringStringSwig.MapStringString</text>
<text text-anchor="middle" x="329" y="-7.5" font-family="Helvetica,sans-Serif" font-size="10.00">SwigEnumerator</text>
</a>
</g>
</g>
<!-- Node119&#45;&gt;Node0 -->
<g id="edge2" class="edge">
<title>Node119&#45;&gt;Node0</title>
<path fill="none" stroke="midnightblue" d="M134.62,-55.39C161.68,-51.34 196.59,-46.13 229.28,-41.25"/>
<polygon fill="midnightblue" stroke="midnightblue" points="134.03,-51.94 124.66,-56.88 135.06,-58.86 134.03,-51.94"/>
</g>
<!-- Node36 -->
<g id="node5" class="node">
<title>Node36</title>
<g id="a_node5"><a xlink:title=" ">
<polygon fill="none" stroke="#bfbfbf" points="0,-3.5 0,-33.5 172,-33.5 172,-3.5 0,-3.5"/>
<text text-anchor="start" x="8" y="-21.5" font-family="Helvetica,sans-Serif" font-size="10.00">System.Collections.Generic.</text>
<text text-anchor="middle" x="86" y="-10.5" font-family="Helvetica,sans-Serif" font-size="10.00">KeyValuePair&lt; string, string &gt;&gt;</text>
</a>
</g>
</g>
<!-- Node36&#45;&gt;Node0 -->
<g id="edge4" class="edge">
<title>Node36&#45;&gt;Node0</title>
<path fill="none" stroke="midnightblue" d="M182.34,-21.66C197.75,-22.18 213.73,-22.71 229.22,-23.22"/>
<polygon fill="midnightblue" stroke="midnightblue" points="182.42,-18.17 172.31,-21.33 182.19,-25.16 182.42,-18.17"/>
</g>
</g>
</svg>
