<?xml version="1.0" encoding="UTF-8" standalone="no"?>
<!DOCTYPE svg PUBLIC "-//W3C//DTD SVG 1.1//EN"
 "http://www.w3.org/Graphics/SVG/1.1/DTD/svg11.dtd">
<!-- Generated by graphviz version 2.43.0 (0)
 -->
<!-- Title: Graphical Class Hierarchy Pages: 1 -->
<svg width="321pt" height="66pt"
 viewBox="0.00 0.00 321.00 66.00" xmlns="http://www.w3.org/2000/svg" xmlns:xlink="http://www.w3.org/1999/xlink">
<g id="graph0" class="graph" transform="scale(1 1) rotate(0) translate(4 62)">
<title>Graphical Class Hierarchy</title>
<!-- Node157 -->
<g id="node1" class="node">
<title>Node157</title>
<g id="a_node1"><a xlink:title=" ">
<polygon fill="none" stroke="#bfbfbf" points="0,-38.5 0,-57.5 104,-57.5 104,-38.5 0,-38.5"/>
<text text-anchor="middle" x="52" y="-45.5" font-family="Helvetica,sans-Serif" font-size="10.00">FlowElementBase</text>
</a>
</g>
</g>
<!-- Node0 -->
<g id="node2" class="node">
<title>Node0</title>
<g id="a_node2"><a xlink:href="class_fifty_one_1_1_device_detection_1_1_uach_1_1_uach_js_conversion_element.html" target="_top" xlink:title="This is an IFlowElement implementation that converts evidence values from the User&#45;Agent Client Hints...">
<polygon fill="none" stroke="black" points="140,-14 140,-44 313,-44 313,-14 140,-14"/>
<text text-anchor="start" x="148" y="-32" font-family="Helvetica,sans-Serif" font-size="10.00">FiftyOne.DeviceDetection.</text>
<text text-anchor="middle" x="226.5" y="-21" font-family="Helvetica,sans-Serif" font-size="10.00">Uach.UachJsConversionElement</text>
</a>
</g>
</g>
<!-- Node157&#45;&gt;Node0 -->
<g id="edge1" class="edge">
<title>Node157&#45;&gt;Node0</title>
<path fill="none" stroke="midnightblue" d="M114.24,-41.26C122.55,-40.34 131.2,-39.39 139.84,-38.43"/>
<polygon fill="midnightblue" stroke="midnightblue" points="113.85,-37.78 104.29,-42.35 114.61,-44.73 113.85,-37.78"/>
</g>
<!-- Node113 -->
<g id="node3" class="node">
<title>Node113</title>
<g id="a_node3"><a xlink:title=" ">
<polygon fill="none" stroke="#bfbfbf" points="10.5,-0.5 10.5,-19.5 93.5,-19.5 93.5,-0.5 10.5,-0.5"/>
<text text-anchor="middle" x="52" y="-7.5" font-family="Helvetica,sans-Serif" font-size="10.00">IFlowElement</text>
</a>
</g>
</g>
<!-- Node113&#45;&gt;Node0 -->
<g id="edge2" class="edge">
<title>Node113&#45;&gt;Node0</title>
<path fill="none" stroke="midnightblue" d="M103.95,-15.61C115.24,-16.86 127.51,-18.21 139.77,-19.56"/>
<polygon fill="midnightblue" stroke="midnightblue" points="104.2,-12.12 93.88,-14.5 103.44,-19.08 104.2,-12.12"/>
</g>
</g>
</svg>
