<?xml version="1.0" encoding="UTF-8" standalone="no"?>
<!DOCTYPE svg PUBLIC "-//W3C//DTD SVG 1.1//EN"
 "http://www.w3.org/Graphics/SVG/1.1/DTD/svg11.dtd">
<!-- Generated by graphviz version 2.43.0 (0)
 -->
<!-- Title: FiftyOne.DeviceDetection.Hash.Engine.OnPremise.Wrappers.IProfileCollectionSwigWrapper Pages: 1 -->
<svg width="600pt" height="78pt"
 viewBox="0.00 0.00 600.00 77.50" xmlns="http://www.w3.org/2000/svg" xmlns:xlink="http://www.w3.org/1999/xlink">
<g id="graph0" class="graph" transform="scale(1 1) rotate(0) translate(4 73.5)">
<title>FiftyOne.DeviceDetection.Hash.Engine.OnPremise.Wrappers.IProfileCollectionSwigWrapper</title>
<!-- Node0 -->
<g id="node1" class="node">
<title>Node0</title>
<g id="a_node1"><a xlink:title=" ">
<polygon fill="#bfbfbf" stroke="black" points="184,-17 184,-58 370,-58 370,-17 184,-17"/>
<text text-anchor="start" x="192" y="-46" font-family="Helvetica,sans-Serif" font-size="10.00">FiftyOne.DeviceDetection.</text>
<text text-anchor="start" x="192" y="-35" font-family="Helvetica,sans-Serif" font-size="10.00">Hash.Engine.OnPremise.Wrappers.</text>
<text text-anchor="middle" x="277" y="-24" font-family="Helvetica,sans-Serif" font-size="10.00">IProfileCollectionSwigWrapper</text>
</a>
</g>
</g>
<!-- Node3 -->
<g id="node4" class="node">
<title>Node3</title>
<g id="a_node4"><a xlink:href="class_fifty_one_1_1_device_detection_1_1_hash_1_1_engine_1_1_on_premise_1_1_wrappers_1_1_profile_collection_swig_wrapper.html" target="_top" xlink:title=" ">
<polygon fill="none" stroke="black" points="406,-17 406,-58 592,-58 592,-17 406,-17"/>
<text text-anchor="start" x="414" y="-46" font-family="Helvetica,sans-Serif" font-size="10.00">FiftyOne.DeviceDetection.</text>
<text text-anchor="start" x="414" y="-35" font-family="Helvetica,sans-Serif" font-size="10.00">Hash.Engine.OnPremise.Wrappers.</text>
<text text-anchor="middle" x="499" y="-24" font-family="Helvetica,sans-Serif" font-size="10.00">ProfileCollectionSwigWrapper</text>
</a>
</g>
</g>
<!-- Node0&#45;&gt;Node3 -->
<g id="edge3" class="edge">
<title>Node0&#45;&gt;Node3</title>
<path fill="none" stroke="midnightblue" d="M380.11,-37.5C388.75,-37.5 397.44,-37.5 405.99,-37.5"/>
<polygon fill="midnightblue" stroke="midnightblue" points="380.03,-34 370.03,-37.5 380.03,-41 380.03,-34"/>
</g>
<!-- Node1 -->
<g id="node2" class="node">
<title>Node1</title>
<g id="a_node2"><a xlink:title=" ">
<polygon fill="none" stroke="#bfbfbf" points="37,-50 37,-69 111,-69 111,-50 37,-50"/>
<text text-anchor="middle" x="74" y="-57" font-family="Helvetica,sans-Serif" font-size="10.00">IDisposable</text>
</a>
</g>
</g>
<!-- Node1&#45;&gt;Node0 -->
<g id="edge1" class="edge">
<title>Node1&#45;&gt;Node0</title>
<path fill="none" stroke="midnightblue" d="M121.36,-54.43C139.99,-52.39 162.16,-49.96 183.81,-47.59"/>
<polygon fill="midnightblue" stroke="midnightblue" points="120.96,-50.95 111.4,-55.52 121.72,-57.91 120.96,-50.95"/>
</g>
<!-- Node2 -->
<g id="node3" class="node">
<title>Node2</title>
<g id="a_node3"><a xlink:title=" ">
<polygon fill="none" stroke="#bfbfbf" points="0,-0.5 0,-30.5 148,-30.5 148,-0.5 0,-0.5"/>
<text text-anchor="start" x="8" y="-18.5" font-family="Helvetica,sans-Serif" font-size="10.00">IEnumerable&lt; IProfileMeta</text>
<text text-anchor="middle" x="74" y="-7.5" font-family="Helvetica,sans-Serif" font-size="10.00">Data &gt;</text>
</a>
</g>
</g>
<!-- Node2&#45;&gt;Node0 -->
<g id="edge2" class="edge">
<title>Node2&#45;&gt;Node0</title>
<path fill="none" stroke="midnightblue" d="M158.27,-24.61C166.67,-25.53 175.23,-26.47 183.71,-27.4"/>
<polygon fill="midnightblue" stroke="midnightblue" points="158.46,-21.11 148.13,-23.5 157.69,-28.07 158.46,-21.11"/>
</g>
</g>
</svg>
