<?xml version="1.0" encoding="UTF-8" standalone="no"?>
<!DOCTYPE svg PUBLIC "-//W3C//DTD SVG 1.1//EN"
 "http://www.w3.org/Graphics/SVG/1.1/DTD/svg11.dtd">
<!-- Generated by graphviz version 2.43.0 (0)
 -->
<!-- Title: FiftyOne.DeviceDetection.Hash.Engine.OnPremise.Wrappers.IValueCollectionSwigWrapper Pages: 1 -->
<svg width="280pt" height="106pt"
 viewBox="0.00 0.00 279.50 106.00" xmlns="http://www.w3.org/2000/svg" xmlns:xlink="http://www.w3.org/1999/xlink">
<g id="graph0" class="graph" transform="scale(1 1) rotate(0) translate(4 102)">
<title>FiftyOne.DeviceDetection.Hash.Engine.OnPremise.Wrappers.IValueCollectionSwigWrapper</title>
<!-- Node4 -->
<g id="node1" class="node">
<title>Node4</title>
<g id="a_node1"><a xlink:title=" ">
<polygon fill="#bfbfbf" stroke="black" points="16,-0.5 16,-41.5 202,-41.5 202,-0.5 16,-0.5"/>
<text text-anchor="start" x="24" y="-29.5" font-family="Helvetica,sans-Serif" font-size="10.00">FiftyOne.DeviceDetection.</text>
<text text-anchor="start" x="24" y="-18.5" font-family="Helvetica,sans-Serif" font-size="10.00">Hash.Engine.OnPremise.Wrappers.</text>
<text text-anchor="middle" x="109" y="-7.5" font-family="Helvetica,sans-Serif" font-size="10.00">IValueCollectionSwigWrapper</text>
</a>
</g>
</g>
<!-- Node5 -->
<g id="node2" class="node">
<title>Node5</title>
<g id="a_node2"><a xlink:title=" ">
<polygon fill="none" stroke="#bfbfbf" points="0,-78.5 0,-97.5 74,-97.5 74,-78.5 0,-78.5"/>
<text text-anchor="middle" x="37" y="-85.5" font-family="Helvetica,sans-Serif" font-size="10.00">IDisposable</text>
</a>
</g>
</g>
<!-- Node5&#45;&gt;Node4 -->
<g id="edge1" class="edge">
<title>Node5&#45;&gt;Node4</title>
<path fill="none" stroke="midnightblue" d="M54.33,-71.36C64.25,-62.4 76.79,-51.08 87.35,-41.54"/>
<polygon fill="midnightblue" stroke="midnightblue" points="51.79,-68.93 46.71,-78.23 56.48,-74.13 51.79,-68.93"/>
</g>
<!-- Node6 -->
<g id="node3" class="node">
<title>Node6</title>
<g id="a_node3"><a xlink:title=" ">
<polygon fill="none" stroke="#bfbfbf" points="92.5,-78.5 92.5,-97.5 271.5,-97.5 271.5,-78.5 92.5,-78.5"/>
<text text-anchor="middle" x="182" y="-85.5" font-family="Helvetica,sans-Serif" font-size="10.00">IEnumerable&lt; IValueMetaData &gt;</text>
</a>
</g>
</g>
<!-- Node6&#45;&gt;Node4 -->
<g id="edge2" class="edge">
<title>Node6&#45;&gt;Node4</title>
<path fill="none" stroke="midnightblue" d="M164.43,-71.36C154.37,-62.4 141.66,-51.08 130.95,-41.54"/>
<polygon fill="midnightblue" stroke="midnightblue" points="162.36,-74.2 172.15,-78.23 167.01,-68.97 162.36,-74.2"/>
</g>
</g>
</svg>
