<?xml version="1.0" encoding="UTF-8" standalone="no"?>
<!DOCTYPE svg PUBLIC "-//W3C//DTD SVG 1.1//EN"
 "http://www.w3.org/Graphics/SVG/1.1/DTD/svg11.dtd">
<!-- Generated by graphviz version 2.43.0 (0)
 -->
<!-- Title: FiftyOne.DeviceDetection.Apple.IAppleProfileData Pages: 1 -->
<svg width="152pt" height="162pt"
 viewBox="0.00 0.00 152.00 162.00" xmlns="http://www.w3.org/2000/svg" xmlns:xlink="http://www.w3.org/1999/xlink">
<g id="graph0" class="graph" transform="scale(1 1) rotate(0) translate(4 158)">
<title>FiftyOne.DeviceDetection.Apple.IAppleProfileData</title>
<!-- Node0 -->
<g id="node1" class="node">
<title>Node0</title>
<g id="a_node1"><a xlink:title="The data interface populated by AppleProfileEngine">
<polygon fill="#bfbfbf" stroke="black" points="0,-67.5 0,-97.5 144,-97.5 144,-67.5 0,-67.5"/>
<text text-anchor="start" x="8" y="-85.5" font-family="Helvetica,sans-Serif" font-size="10.00">FiftyOne.DeviceDetection.</text>
<text text-anchor="middle" x="72" y="-74.5" font-family="Helvetica,sans-Serif" font-size="10.00">Apple.IAppleProfileData</text>
</a>
</g>
</g>
<!-- Node2 -->
<g id="node3" class="node">
<title>Node2</title>
<g id="a_node3"><a xlink:href="class_fifty_one_1_1_device_detection_1_1_apple_1_1_apple_profile_data.html" target="_top" xlink:title="The data populated by AppleProfileEngine">
<polygon fill="none" stroke="black" points="0,-0.5 0,-30.5 144,-30.5 144,-0.5 0,-0.5"/>
<text text-anchor="start" x="8" y="-18.5" font-family="Helvetica,sans-Serif" font-size="10.00">FiftyOne.DeviceDetection.</text>
<text text-anchor="middle" x="72" y="-7.5" font-family="Helvetica,sans-Serif" font-size="10.00">Apple.AppleProfileData</text>
</a>
</g>
</g>
<!-- Node0&#45;&gt;Node2 -->
<g id="edge2" class="edge">
<title>Node0&#45;&gt;Node2</title>
<path fill="none" stroke="midnightblue" d="M72,-57.11C72,-48.15 72,-38.32 72,-30.58"/>
<polygon fill="midnightblue" stroke="midnightblue" points="68.5,-57.4 72,-67.4 75.5,-57.4 68.5,-57.4"/>
</g>
<!-- Node1 -->
<g id="node2" class="node">
<title>Node1</title>
<g id="a_node2"><a xlink:title=" ">
<polygon fill="none" stroke="#bfbfbf" points="34,-134.5 34,-153.5 110,-153.5 110,-134.5 34,-134.5"/>
<text text-anchor="middle" x="72" y="-141.5" font-family="Helvetica,sans-Serif" font-size="10.00">IAspectData</text>
</a>
</g>
</g>
<!-- Node1&#45;&gt;Node0 -->
<g id="edge1" class="edge">
<title>Node1&#45;&gt;Node0</title>
<path fill="none" stroke="midnightblue" d="M72,-124.23C72,-115.59 72,-105.5 72,-97.52"/>
<polygon fill="midnightblue" stroke="midnightblue" points="68.5,-124.48 72,-134.48 75.5,-124.48 68.5,-124.48"/>
</g>
</g>
</svg>
