<?xml version="1.0" encoding="UTF-8" standalone="no"?>
<!DOCTYPE svg PUBLIC "-//W3C//DTD SVG 1.1//EN"
 "http://www.w3.org/Graphics/SVG/1.1/DTD/svg11.dtd">
<!-- Generated by graphviz version 2.43.0 (0)
 -->
<!-- Title: FiftyOne.DeviceDetection.Hash.Engine.OnPremise.Wrappers.IValueSwigWrapper&lt; T &gt; Pages: 1 -->
<svg width="889pt" height="290pt"
 viewBox="0.00 0.00 889.00 290.00" xmlns="http://www.w3.org/2000/svg" xmlns:xlink="http://www.w3.org/1999/xlink">
<g id="graph0" class="graph" transform="scale(1 1) rotate(0) translate(4 286)">
<title>FiftyOne.DeviceDetection.Hash.Engine.OnPremise.Wrappers.IValueSwigWrapper&lt; T &gt;</title>
<!-- Node0 -->
<g id="node1" class="node">
<title>Node0</title>
<g id="a_node1"><a xlink:title=" ">
<polygon fill="#bfbfbf" stroke="black" points="111,-120.5 111,-161.5 297,-161.5 297,-120.5 111,-120.5"/>
<text text-anchor="start" x="119" y="-149.5" font-family="Helvetica,sans-Serif" font-size="10.00">FiftyOne.DeviceDetection.</text>
<text text-anchor="start" x="119" y="-138.5" font-family="Helvetica,sans-Serif" font-size="10.00">Hash.Engine.OnPremise.Wrappers.</text>
<text text-anchor="middle" x="204" y="-127.5" font-family="Helvetica,sans-Serif" font-size="10.00">IValueSwigWrapper&lt; T &gt;</text>
</a>
</g>
</g>
<!-- Node2 -->
<g id="node3" class="node">
<title>Node2</title>
<g id="a_node3"><a xlink:href="interface_fifty_one_1_1_device_detection_1_1_hash_1_1_engine_1_1_on_premise_1_1_wrappers_1_1_i_value_swig_wrapper.html" target="_top" xlink:title=" ">
<polygon fill="none" stroke="black" points="457,-240.5 457,-281.5 643,-281.5 643,-240.5 457,-240.5"/>
<text text-anchor="start" x="465" y="-269.5" font-family="Helvetica,sans-Serif" font-size="10.00">FiftyOne.DeviceDetection.</text>
<text text-anchor="start" x="465" y="-258.5" font-family="Helvetica,sans-Serif" font-size="10.00">Hash.Engine.OnPremise.Wrappers.</text>
<text text-anchor="middle" x="550" y="-247.5" font-family="Helvetica,sans-Serif" font-size="10.00">IValueSwigWrapper&lt; double &gt;</text>
</a>
</g>
</g>
<!-- Node0&#45;&gt;Node2 -->
<g id="edge2" class="edge">
<title>Node0&#45;&gt;Node2</title>
<path fill="none" stroke="orange" stroke-dasharray="5,2" d="M253.84,-166.03C272.68,-175.16 294.58,-185.17 315,-193 370.01,-214.09 385.41,-214.6 442,-231 452.65,-234.09 463.92,-237.3 474.99,-240.43"/>
<polygon fill="orange" stroke="orange" points="255.37,-162.88 244.85,-161.62 252.29,-169.17 255.37,-162.88"/>
<text text-anchor="middle" x="369.5" y="-228" font-family="Helvetica,sans-Serif" font-size="10.00"> &lt; double &gt;</text>
</g>
<!-- Node4 -->
<g id="node5" class="node">
<title>Node4</title>
<g id="a_node5"><a xlink:href="interface_fifty_one_1_1_device_detection_1_1_hash_1_1_engine_1_1_on_premise_1_1_wrappers_1_1_i_value_swig_wrapper.html" target="_top" xlink:title=" ">
<polygon fill="none" stroke="black" points="457,-180.5 457,-221.5 643,-221.5 643,-180.5 457,-180.5"/>
<text text-anchor="start" x="465" y="-209.5" font-family="Helvetica,sans-Serif" font-size="10.00">FiftyOne.DeviceDetection.</text>
<text text-anchor="start" x="465" y="-198.5" font-family="Helvetica,sans-Serif" font-size="10.00">Hash.Engine.OnPremise.Wrappers.</text>
<text text-anchor="middle" x="550" y="-187.5" font-family="Helvetica,sans-Serif" font-size="10.00">IValueSwigWrapper&lt; int &gt;</text>
</a>
</g>
</g>
<!-- Node0&#45;&gt;Node4 -->
<g id="edge4" class="edge">
<title>Node0&#45;&gt;Node4</title>
<path fill="none" stroke="orange" stroke-dasharray="5,2" d="M307.18,-158.82C354.66,-167.1 410.69,-176.88 456.86,-184.93"/>
<polygon fill="orange" stroke="orange" points="307.64,-155.35 297.19,-157.08 306.44,-162.25 307.64,-155.35"/>
<text text-anchor="middle" x="369.5" y="-181" font-family="Helvetica,sans-Serif" font-size="10.00"> &lt; int &gt;</text>
</g>
<!-- Node6 -->
<g id="node7" class="node">
<title>Node6</title>
<g id="a_node7"><a xlink:href="interface_fifty_one_1_1_device_detection_1_1_hash_1_1_engine_1_1_on_premise_1_1_wrappers_1_1_i_value_swig_wrapper.html" target="_top" xlink:title=" ">
<polygon fill="none" stroke="black" points="457,-120.5 457,-161.5 643,-161.5 643,-120.5 457,-120.5"/>
<text text-anchor="start" x="465" y="-149.5" font-family="Helvetica,sans-Serif" font-size="10.00">FiftyOne.DeviceDetection.</text>
<text text-anchor="start" x="465" y="-138.5" font-family="Helvetica,sans-Serif" font-size="10.00">Hash.Engine.OnPremise.Wrappers.</text>
<text text-anchor="middle" x="550" y="-127.5" font-family="Helvetica,sans-Serif" font-size="10.00">IValueSwigWrapper&lt; string &gt;</text>
</a>
</g>
</g>
<!-- Node0&#45;&gt;Node6 -->
<g id="edge6" class="edge">
<title>Node0&#45;&gt;Node6</title>
<path fill="none" stroke="orange" stroke-dasharray="5,2" d="M307.48,-141C354.9,-141 410.79,-141 456.86,-141"/>
<polygon fill="orange" stroke="orange" points="307.19,-137.5 297.19,-141 307.19,-144.5 307.19,-137.5"/>
<text text-anchor="middle" x="369.5" y="-144" font-family="Helvetica,sans-Serif" font-size="10.00"> &lt; string &gt;</text>
</g>
<!-- Node8 -->
<g id="node9" class="node">
<title>Node8</title>
<g id="a_node9"><a xlink:href="interface_fifty_one_1_1_device_detection_1_1_hash_1_1_engine_1_1_on_premise_1_1_wrappers_1_1_i_value_swig_wrapper.html" target="_top" xlink:title=" ">
<polygon fill="none" stroke="black" points="457,-60.5 457,-101.5 643,-101.5 643,-60.5 457,-60.5"/>
<text text-anchor="start" x="465" y="-89.5" font-family="Helvetica,sans-Serif" font-size="10.00">FiftyOne.DeviceDetection.</text>
<text text-anchor="start" x="465" y="-78.5" font-family="Helvetica,sans-Serif" font-size="10.00">Hash.Engine.OnPremise.Wrappers.</text>
<text text-anchor="middle" x="550" y="-67.5" font-family="Helvetica,sans-Serif" font-size="10.00">IValueSwigWrapper&lt; bool &gt;</text>
</a>
</g>
</g>
<!-- Node0&#45;&gt;Node8 -->
<g id="edge8" class="edge">
<title>Node0&#45;&gt;Node8</title>
<path fill="none" stroke="orange" stroke-dasharray="5,2" d="M307.18,-123.18C354.66,-114.9 410.69,-105.12 456.86,-97.07"/>
<polygon fill="orange" stroke="orange" points="306.44,-119.75 297.19,-124.92 307.64,-126.65 306.44,-119.75"/>
<text text-anchor="middle" x="369.5" y="-125" font-family="Helvetica,sans-Serif" font-size="10.00"> &lt; bool &gt;</text>
</g>
<!-- Node10 -->
<g id="node11" class="node">
<title>Node10</title>
<g id="a_node11"><a xlink:href="interface_fifty_one_1_1_device_detection_1_1_hash_1_1_engine_1_1_on_premise_1_1_wrappers_1_1_i_value_swig_wrapper.html" target="_top" xlink:title=" ">
<polygon fill="none" stroke="black" points="442,-0.5 442,-41.5 658,-41.5 658,-0.5 442,-0.5"/>
<text text-anchor="start" x="450" y="-29.5" font-family="Helvetica,sans-Serif" font-size="10.00">FiftyOne.DeviceDetection.</text>
<text text-anchor="start" x="450" y="-18.5" font-family="Helvetica,sans-Serif" font-size="10.00">Hash.Engine.OnPremise.Wrappers.</text>
<text text-anchor="middle" x="550" y="-7.5" font-family="Helvetica,sans-Serif" font-size="10.00">IValueSwigWrapper&lt; VectorStringSwig &gt;</text>
</a>
</g>
</g>
<!-- Node0&#45;&gt;Node10 -->
<g id="edge10" class="edge">
<title>Node0&#45;&gt;Node10</title>
<path fill="none" stroke="orange" stroke-dasharray="5,2" d="M253.84,-115.97C272.68,-106.84 294.58,-96.83 315,-89 370.01,-67.91 385.41,-67.4 442,-51 452.65,-47.91 463.92,-44.7 474.99,-41.57"/>
<polygon fill="orange" stroke="orange" points="252.29,-112.83 244.85,-120.38 255.37,-119.12 252.29,-112.83"/>
<text text-anchor="middle" x="369.5" y="-92" font-family="Helvetica,sans-Serif" font-size="10.00"> &lt; VectorStringSwig &gt;</text>
</g>
<!-- Node1 -->
<g id="node2" class="node">
<title>Node1</title>
<g id="a_node2"><a xlink:title=" ">
<polygon fill="none" stroke="#bfbfbf" points="0,-131.5 0,-150.5 74,-150.5 74,-131.5 0,-131.5"/>
<text text-anchor="middle" x="37" y="-138.5" font-family="Helvetica,sans-Serif" font-size="10.00">IDisposable</text>
</a>
</g>
</g>
<!-- Node1&#45;&gt;Node0 -->
<g id="edge1" class="edge">
<title>Node1&#45;&gt;Node0</title>
<path fill="none" stroke="midnightblue" d="M84.41,-141C92.74,-141 101.69,-141 110.8,-141"/>
<polygon fill="midnightblue" stroke="midnightblue" points="84.21,-137.5 74.21,-141 84.21,-144.5 84.21,-137.5"/>
</g>
<!-- Node3 -->
<g id="node4" class="node">
<title>Node3</title>
<g id="a_node4"><a xlink:href="class_fifty_one_1_1_device_detection_1_1_hash_1_1_engine_1_1_on_premise_1_1_wrappers_1_1_double_value_swig_wrapper.html" target="_top" xlink:title=" ">
<polygon fill="none" stroke="black" points="695,-240.5 695,-281.5 881,-281.5 881,-240.5 695,-240.5"/>
<text text-anchor="start" x="703" y="-269.5" font-family="Helvetica,sans-Serif" font-size="10.00">FiftyOne.DeviceDetection.</text>
<text text-anchor="start" x="703" y="-258.5" font-family="Helvetica,sans-Serif" font-size="10.00">Hash.Engine.OnPremise.Wrappers.</text>
<text text-anchor="middle" x="788" y="-247.5" font-family="Helvetica,sans-Serif" font-size="10.00">DoubleValueSwigWrapper</text>
</a>
</g>
</g>
<!-- Node2&#45;&gt;Node3 -->
<g id="edge3" class="edge">
<title>Node2&#45;&gt;Node3</title>
<path fill="none" stroke="midnightblue" d="M653.66,-261C667.34,-261 681.31,-261 694.81,-261"/>
<polygon fill="midnightblue" stroke="midnightblue" points="653.26,-257.5 643.26,-261 653.26,-264.5 653.26,-257.5"/>
</g>
<!-- Node5 -->
<g id="node6" class="node">
<title>Node5</title>
<g id="a_node6"><a xlink:href="class_fifty_one_1_1_device_detection_1_1_hash_1_1_engine_1_1_on_premise_1_1_wrappers_1_1_integer_value_swig_wrapper.html" target="_top" xlink:title=" ">
<polygon fill="none" stroke="black" points="695,-180.5 695,-221.5 881,-221.5 881,-180.5 695,-180.5"/>
<text text-anchor="start" x="703" y="-209.5" font-family="Helvetica,sans-Serif" font-size="10.00">FiftyOne.DeviceDetection.</text>
<text text-anchor="start" x="703" y="-198.5" font-family="Helvetica,sans-Serif" font-size="10.00">Hash.Engine.OnPremise.Wrappers.</text>
<text text-anchor="middle" x="788" y="-187.5" font-family="Helvetica,sans-Serif" font-size="10.00">IntegerValueSwigWrapper</text>
</a>
</g>
</g>
<!-- Node4&#45;&gt;Node5 -->
<g id="edge5" class="edge">
<title>Node4&#45;&gt;Node5</title>
<path fill="none" stroke="midnightblue" d="M653.66,-201C667.34,-201 681.31,-201 694.81,-201"/>
<polygon fill="midnightblue" stroke="midnightblue" points="653.26,-197.5 643.26,-201 653.26,-204.5 653.26,-197.5"/>
</g>
<!-- Node7 -->
<g id="node8" class="node">
<title>Node7</title>
<g id="a_node8"><a xlink:href="class_fifty_one_1_1_device_detection_1_1_hash_1_1_engine_1_1_on_premise_1_1_wrappers_1_1_string_value_swig_wrapper.html" target="_top" xlink:title=" ">
<polygon fill="none" stroke="black" points="695,-120.5 695,-161.5 881,-161.5 881,-120.5 695,-120.5"/>
<text text-anchor="start" x="703" y="-149.5" font-family="Helvetica,sans-Serif" font-size="10.00">FiftyOne.DeviceDetection.</text>
<text text-anchor="start" x="703" y="-138.5" font-family="Helvetica,sans-Serif" font-size="10.00">Hash.Engine.OnPremise.Wrappers.</text>
<text text-anchor="middle" x="788" y="-127.5" font-family="Helvetica,sans-Serif" font-size="10.00">StringValueSwigWrapper</text>
</a>
</g>
</g>
<!-- Node6&#45;&gt;Node7 -->
<g id="edge7" class="edge">
<title>Node6&#45;&gt;Node7</title>
<path fill="none" stroke="midnightblue" d="M653.66,-141C667.34,-141 681.31,-141 694.81,-141"/>
<polygon fill="midnightblue" stroke="midnightblue" points="653.26,-137.5 643.26,-141 653.26,-144.5 653.26,-137.5"/>
</g>
<!-- Node9 -->
<g id="node10" class="node">
<title>Node9</title>
<g id="a_node10"><a xlink:href="class_fifty_one_1_1_device_detection_1_1_hash_1_1_engine_1_1_on_premise_1_1_wrappers_1_1_bool_value_swig_wrapper.html" target="_top" xlink:title=" ">
<polygon fill="none" stroke="black" points="695,-60.5 695,-101.5 881,-101.5 881,-60.5 695,-60.5"/>
<text text-anchor="start" x="703" y="-89.5" font-family="Helvetica,sans-Serif" font-size="10.00">FiftyOne.DeviceDetection.</text>
<text text-anchor="start" x="703" y="-78.5" font-family="Helvetica,sans-Serif" font-size="10.00">Hash.Engine.OnPremise.Wrappers.</text>
<text text-anchor="middle" x="788" y="-67.5" font-family="Helvetica,sans-Serif" font-size="10.00">BoolValueSwigWrapper</text>
</a>
</g>
</g>
<!-- Node8&#45;&gt;Node9 -->
<g id="edge9" class="edge">
<title>Node8&#45;&gt;Node9</title>
<path fill="none" stroke="midnightblue" d="M653.66,-81C667.34,-81 681.31,-81 694.81,-81"/>
<polygon fill="midnightblue" stroke="midnightblue" points="653.26,-77.5 643.26,-81 653.26,-84.5 653.26,-77.5"/>
</g>
<!-- Node11 -->
<g id="node12" class="node">
<title>Node11</title>
<g id="a_node12"><a xlink:href="class_fifty_one_1_1_device_detection_1_1_hash_1_1_engine_1_1_on_premise_1_1_wrappers_1_1_vector_value_swig_wrapper.html" target="_top" xlink:title=" ">
<polygon fill="none" stroke="black" points="695,-0.5 695,-41.5 881,-41.5 881,-0.5 695,-0.5"/>
<text text-anchor="start" x="703" y="-29.5" font-family="Helvetica,sans-Serif" font-size="10.00">FiftyOne.DeviceDetection.</text>
<text text-anchor="start" x="703" y="-18.5" font-family="Helvetica,sans-Serif" font-size="10.00">Hash.Engine.OnPremise.Wrappers.</text>
<text text-anchor="middle" x="788" y="-7.5" font-family="Helvetica,sans-Serif" font-size="10.00">VectorValueSwigWrapper</text>
</a>
</g>
</g>
<!-- Node10&#45;&gt;Node11 -->
<g id="edge11" class="edge">
<title>Node10&#45;&gt;Node11</title>
<path fill="none" stroke="midnightblue" d="M668.31,-21C677.19,-21 686.07,-21 694.76,-21"/>
<polygon fill="midnightblue" stroke="midnightblue" points="668.3,-17.5 658.3,-21 668.3,-24.5 668.3,-17.5"/>
</g>
</g>
</svg>
