<?xml version="1.0" encoding="UTF-8" standalone="no"?>
<!DOCTYPE svg PUBLIC "-//W3C//DTD SVG 1.1//EN"
 "http://www.w3.org/Graphics/SVG/1.1/DTD/svg11.dtd">
<!-- Generated by graphviz version 2.43.0 (0)
 -->
<!-- Title: FiftyOne.DeviceDetection.Hash.Engine.OnPremise.Wrappers.IComponentCollectionSwigWrapper Pages: 1 -->
<svg width="628pt" height="78pt"
 viewBox="0.00 0.00 628.00 77.50" xmlns="http://www.w3.org/2000/svg" xmlns:xlink="http://www.w3.org/1999/xlink">
<g id="graph0" class="graph" transform="scale(1 1) rotate(0) translate(4 73.5)">
<title>FiftyOne.DeviceDetection.Hash.Engine.OnPremise.Wrappers.IComponentCollectionSwigWrapper</title>
<!-- Node0 -->
<g id="node1" class="node">
<title>Node0</title>
<g id="a_node1"><a xlink:title=" ">
<polygon fill="#bfbfbf" stroke="black" points="209,-17 209,-58 398,-58 398,-17 209,-17"/>
<text text-anchor="start" x="217" y="-46" font-family="Helvetica,sans-Serif" font-size="10.00">FiftyOne.DeviceDetection.</text>
<text text-anchor="start" x="217" y="-35" font-family="Helvetica,sans-Serif" font-size="10.00">Hash.Engine.OnPremise.Wrappers.</text>
<text text-anchor="middle" x="303.5" y="-24" font-family="Helvetica,sans-Serif" font-size="10.00">IComponentCollectionSwigWrapper</text>
</a>
</g>
</g>
<!-- Node3 -->
<g id="node4" class="node">
<title>Node3</title>
<g id="a_node4"><a xlink:href="class_fifty_one_1_1_device_detection_1_1_hash_1_1_engine_1_1_on_premise_1_1_wrappers_1_1_component_collection_swig_wrapper.html" target="_top" xlink:title=" ">
<polygon fill="none" stroke="black" points="434,-17 434,-58 620,-58 620,-17 434,-17"/>
<text text-anchor="start" x="442" y="-46" font-family="Helvetica,sans-Serif" font-size="10.00">FiftyOne.DeviceDetection.</text>
<text text-anchor="start" x="442" y="-35" font-family="Helvetica,sans-Serif" font-size="10.00">Hash.Engine.OnPremise.Wrappers.</text>
<text text-anchor="middle" x="527" y="-24" font-family="Helvetica,sans-Serif" font-size="10.00">ComponentCollectionSwigWrapper</text>
</a>
</g>
</g>
<!-- Node0&#45;&gt;Node3 -->
<g id="edge3" class="edge">
<title>Node0&#45;&gt;Node3</title>
<path fill="none" stroke="midnightblue" d="M408.13,-37.5C416.69,-37.5 425.31,-37.5 433.78,-37.5"/>
<polygon fill="midnightblue" stroke="midnightblue" points="408.11,-34 398.11,-37.5 408.11,-41 408.11,-34"/>
</g>
<!-- Node1 -->
<g id="node2" class="node">
<title>Node1</title>
<g id="a_node2"><a xlink:title=" ">
<polygon fill="none" stroke="#bfbfbf" points="49.5,-50 49.5,-69 123.5,-69 123.5,-50 49.5,-50"/>
<text text-anchor="middle" x="86.5" y="-57" font-family="Helvetica,sans-Serif" font-size="10.00">IDisposable</text>
</a>
</g>
</g>
<!-- Node1&#45;&gt;Node0 -->
<g id="edge1" class="edge">
<title>Node1&#45;&gt;Node0</title>
<path fill="none" stroke="midnightblue" d="M133.98,-54.74C155.91,-52.5 182.9,-49.74 208.8,-47.09"/>
<polygon fill="midnightblue" stroke="midnightblue" points="133.56,-51.27 123.97,-55.77 134.28,-58.23 133.56,-51.27"/>
</g>
<!-- Node2 -->
<g id="node3" class="node">
<title>Node2</title>
<g id="a_node3"><a xlink:title=" ">
<polygon fill="none" stroke="#bfbfbf" points="0,-0.5 0,-30.5 173,-30.5 173,-0.5 0,-0.5"/>
<text text-anchor="start" x="8" y="-18.5" font-family="Helvetica,sans-Serif" font-size="10.00">IEnumerable&lt; IComponentMeta</text>
<text text-anchor="middle" x="86.5" y="-7.5" font-family="Helvetica,sans-Serif" font-size="10.00">Data &gt;</text>
</a>
</g>
</g>
<!-- Node2&#45;&gt;Node0 -->
<g id="edge2" class="edge">
<title>Node2&#45;&gt;Node0</title>
<path fill="none" stroke="midnightblue" d="M183.04,-25.28C191.57,-26.15 200.21,-27.03 208.72,-27.9"/>
<polygon fill="midnightblue" stroke="midnightblue" points="183.4,-21.79 173.09,-24.26 182.68,-28.76 183.4,-21.79"/>
</g>
</g>
</svg>
