<?xml version="1.0" encoding="UTF-8" standalone="no"?>
<!DOCTYPE svg PUBLIC "-//W3C//DTD SVG 1.1//EN"
 "http://www.w3.org/Graphics/SVG/1.1/DTD/svg11.dtd">
<!-- Generated by graphviz version 2.43.0 (0)
 -->
<!-- Title: FiftyOne.DeviceDetection.Hash.Engine.OnPremise.Wrappers.IPropertyCollectionSwigWrapper Pages: 1 -->
<svg width="618pt" height="78pt"
 viewBox="0.00 0.00 618.00 77.50" xmlns="http://www.w3.org/2000/svg" xmlns:xlink="http://www.w3.org/1999/xlink">
<g id="graph0" class="graph" transform="scale(1 1) rotate(0) translate(4 73.5)">
<title>FiftyOne.DeviceDetection.Hash.Engine.OnPremise.Wrappers.IPropertyCollectionSwigWrapper</title>
<!-- Node0 -->
<g id="node1" class="node">
<title>Node0</title>
<g id="a_node1"><a xlink:title=" ">
<polygon fill="#bfbfbf" stroke="black" points="202,-17 202,-58 388,-58 388,-17 202,-17"/>
<text text-anchor="start" x="210" y="-46" font-family="Helvetica,sans-Serif" font-size="10.00">FiftyOne.DeviceDetection.</text>
<text text-anchor="start" x="210" y="-35" font-family="Helvetica,sans-Serif" font-size="10.00">Hash.Engine.OnPremise.Wrappers.</text>
<text text-anchor="middle" x="295" y="-24" font-family="Helvetica,sans-Serif" font-size="10.00">IPropertyCollectionSwigWrapper</text>
</a>
</g>
</g>
<!-- Node3 -->
<g id="node4" class="node">
<title>Node3</title>
<g id="a_node4"><a xlink:href="class_fifty_one_1_1_device_detection_1_1_hash_1_1_engine_1_1_on_premise_1_1_wrappers_1_1_property_collection_swig_wrapper.html" target="_top" xlink:title=" ">
<polygon fill="none" stroke="black" points="424,-17 424,-58 610,-58 610,-17 424,-17"/>
<text text-anchor="start" x="432" y="-46" font-family="Helvetica,sans-Serif" font-size="10.00">FiftyOne.DeviceDetection.</text>
<text text-anchor="start" x="432" y="-35" font-family="Helvetica,sans-Serif" font-size="10.00">Hash.Engine.OnPremise.Wrappers.</text>
<text text-anchor="middle" x="517" y="-24" font-family="Helvetica,sans-Serif" font-size="10.00">PropertyCollectionSwigWrapper</text>
</a>
</g>
</g>
<!-- Node0&#45;&gt;Node3 -->
<g id="edge3" class="edge">
<title>Node0&#45;&gt;Node3</title>
<path fill="none" stroke="midnightblue" d="M398.11,-37.5C406.75,-37.5 415.44,-37.5 423.99,-37.5"/>
<polygon fill="midnightblue" stroke="midnightblue" points="398.03,-34 388.03,-37.5 398.03,-41 398.03,-34"/>
</g>
<!-- Node1 -->
<g id="node2" class="node">
<title>Node1</title>
<g id="a_node2"><a xlink:title=" ">
<polygon fill="none" stroke="#bfbfbf" points="46,-50 46,-69 120,-69 120,-50 46,-50"/>
<text text-anchor="middle" x="83" y="-57" font-family="Helvetica,sans-Serif" font-size="10.00">IDisposable</text>
</a>
</g>
</g>
<!-- Node1&#45;&gt;Node0 -->
<g id="edge1" class="edge">
<title>Node1&#45;&gt;Node0</title>
<path fill="none" stroke="midnightblue" d="M130.08,-54.67C151.22,-52.46 177.08,-49.75 201.96,-47.14"/>
<polygon fill="midnightblue" stroke="midnightblue" points="129.68,-51.2 120.1,-55.72 130.41,-58.16 129.68,-51.2"/>
</g>
<!-- Node2 -->
<g id="node3" class="node">
<title>Node2</title>
<g id="a_node3"><a xlink:title=" ">
<polygon fill="none" stroke="#bfbfbf" points="0,-0.5 0,-30.5 166,-30.5 166,-0.5 0,-0.5"/>
<text text-anchor="start" x="8" y="-18.5" font-family="Helvetica,sans-Serif" font-size="10.00">IEnumerable&lt; IFiftyOneAspect</text>
<text text-anchor="middle" x="83" y="-7.5" font-family="Helvetica,sans-Serif" font-size="10.00">PropertyMetaData &gt;</text>
</a>
</g>
</g>
<!-- Node2&#45;&gt;Node0 -->
<g id="edge2" class="edge">
<title>Node2&#45;&gt;Node0</title>
<path fill="none" stroke="midnightblue" d="M176.08,-25.15C184.64,-26.04 193.31,-26.95 201.87,-27.85"/>
<polygon fill="midnightblue" stroke="midnightblue" points="176.4,-21.66 166.09,-24.1 175.67,-28.62 176.4,-21.66"/>
</g>
</g>
</svg>
