<?xml version="1.0" encoding="UTF-8" standalone="no"?>
<!DOCTYPE svg PUBLIC "-//W3C//DTD SVG 1.1//EN"
 "http://www.w3.org/Graphics/SVG/1.1/DTD/svg11.dtd">
<!-- Generated by graphviz version 2.43.0 (0)
 -->
<!-- Title: FiftyOne.DeviceDetection.Hash.Engine.OnPremise.Wrappers.IValueCollectionSwigWrapper Pages: 1 -->
<svg width="631pt" height="66pt"
 viewBox="0.00 0.00 631.00 66.00" xmlns="http://www.w3.org/2000/svg" xmlns:xlink="http://www.w3.org/1999/xlink">
<g id="graph0" class="graph" transform="scale(1 1) rotate(0) translate(4 62)">
<title>FiftyOne.DeviceDetection.Hash.Engine.OnPremise.Wrappers.IValueCollectionSwigWrapper</title>
<!-- Node0 -->
<g id="node1" class="node">
<title>Node0</title>
<g id="a_node1"><a xlink:title=" ">
<polygon fill="#bfbfbf" stroke="black" points="215,-8.5 215,-49.5 401,-49.5 401,-8.5 215,-8.5"/>
<text text-anchor="start" x="223" y="-37.5" font-family="Helvetica,sans-Serif" font-size="10.00">FiftyOne.DeviceDetection.</text>
<text text-anchor="start" x="223" y="-26.5" font-family="Helvetica,sans-Serif" font-size="10.00">Hash.Engine.OnPremise.Wrappers.</text>
<text text-anchor="middle" x="308" y="-15.5" font-family="Helvetica,sans-Serif" font-size="10.00">IValueCollectionSwigWrapper</text>
</a>
</g>
</g>
<!-- Node3 -->
<g id="node4" class="node">
<title>Node3</title>
<g id="a_node4"><a xlink:href="class_fifty_one_1_1_device_detection_1_1_hash_1_1_engine_1_1_on_premise_1_1_wrappers_1_1_value_collection_swig_wrapper.html" target="_top" xlink:title=" ">
<polygon fill="none" stroke="black" points="437,-8.5 437,-49.5 623,-49.5 623,-8.5 437,-8.5"/>
<text text-anchor="start" x="445" y="-37.5" font-family="Helvetica,sans-Serif" font-size="10.00">FiftyOne.DeviceDetection.</text>
<text text-anchor="start" x="445" y="-26.5" font-family="Helvetica,sans-Serif" font-size="10.00">Hash.Engine.OnPremise.Wrappers.</text>
<text text-anchor="middle" x="530" y="-15.5" font-family="Helvetica,sans-Serif" font-size="10.00">ValueCollectionSwigWrapper</text>
</a>
</g>
</g>
<!-- Node0&#45;&gt;Node3 -->
<g id="edge3" class="edge">
<title>Node0&#45;&gt;Node3</title>
<path fill="none" stroke="midnightblue" d="M411.11,-29C419.75,-29 428.44,-29 436.99,-29"/>
<polygon fill="midnightblue" stroke="midnightblue" points="411.03,-25.5 401.03,-29 411.03,-32.5 411.03,-25.5"/>
</g>
<!-- Node1 -->
<g id="node2" class="node">
<title>Node1</title>
<g id="a_node2"><a xlink:title=" ">
<polygon fill="none" stroke="#bfbfbf" points="52.5,-38.5 52.5,-57.5 126.5,-57.5 126.5,-38.5 52.5,-38.5"/>
<text text-anchor="middle" x="89.5" y="-45.5" font-family="Helvetica,sans-Serif" font-size="10.00">IDisposable</text>
</a>
</g>
</g>
<!-- Node1&#45;&gt;Node0 -->
<g id="edge1" class="edge">
<title>Node1&#45;&gt;Node0</title>
<path fill="none" stroke="midnightblue" d="M136.77,-43.94C159.49,-41.95 187.7,-39.47 214.59,-37.11"/>
<polygon fill="midnightblue" stroke="midnightblue" points="136.39,-40.46 126.74,-44.82 137,-47.43 136.39,-40.46"/>
</g>
<!-- Node2 -->
<g id="node3" class="node">
<title>Node2</title>
<g id="a_node3"><a xlink:title=" ">
<polygon fill="none" stroke="#bfbfbf" points="0,-0.5 0,-19.5 179,-19.5 179,-0.5 0,-0.5"/>
<text text-anchor="middle" x="89.5" y="-7.5" font-family="Helvetica,sans-Serif" font-size="10.00">IEnumerable&lt; IValueMetaData &gt;</text>
</a>
</g>
</g>
<!-- Node2&#45;&gt;Node0 -->
<g id="edge2" class="edge">
<title>Node2&#45;&gt;Node0</title>
<path fill="none" stroke="midnightblue" d="M189.2,-18.66C197.77,-19.41 206.43,-20.17 214.94,-20.92"/>
<polygon fill="midnightblue" stroke="midnightblue" points="189.45,-15.17 179.18,-17.78 188.84,-22.14 189.45,-15.17"/>
</g>
</g>
</svg>
