<?xml version="1.0" encoding="UTF-8" standalone="no"?>
<!DOCTYPE svg PUBLIC "-//W3C//DTD SVG 1.1//EN"
 "http://www.w3.org/Graphics/SVG/1.1/DTD/svg11.dtd">
<!-- Generated by graphviz version 2.43.0 (0)
 -->
<!-- Title: FiftyOne.DeviceDetection.Hash.Engine.OnPremise.Wrappers.IComponentCollectionSwigWrapper Pages: 1 -->
<svg width="274pt" height="117pt"
 viewBox="0.00 0.00 273.50 117.00" xmlns="http://www.w3.org/2000/svg" xmlns:xlink="http://www.w3.org/1999/xlink">
<g id="graph0" class="graph" transform="scale(1 1) rotate(0) translate(4 113)">
<title>FiftyOne.DeviceDetection.Hash.Engine.OnPremise.Wrappers.IComponentCollectionSwigWrapper</title>
<!-- Node4 -->
<g id="node1" class="node">
<title>Node4</title>
<g id="a_node1"><a xlink:title=" ">
<polygon fill="#bfbfbf" stroke="black" points="13.5,-0.5 13.5,-41.5 202.5,-41.5 202.5,-0.5 13.5,-0.5"/>
<text text-anchor="start" x="21.5" y="-29.5" font-family="Helvetica,sans-Serif" font-size="10.00">FiftyOne.DeviceDetection.</text>
<text text-anchor="start" x="21.5" y="-18.5" font-family="Helvetica,sans-Serif" font-size="10.00">Hash.Engine.OnPremise.Wrappers.</text>
<text text-anchor="middle" x="108" y="-7.5" font-family="Helvetica,sans-Serif" font-size="10.00">IComponentCollectionSwigWrapper</text>
</a>
</g>
</g>
<!-- Node5 -->
<g id="node2" class="node">
<title>Node5</title>
<g id="a_node2"><a xlink:title=" ">
<polygon fill="none" stroke="#bfbfbf" points="0,-84 0,-103 74,-103 74,-84 0,-84"/>
<text text-anchor="middle" x="37" y="-91" font-family="Helvetica,sans-Serif" font-size="10.00">IDisposable</text>
</a>
</g>
</g>
<!-- Node5&#45;&gt;Node4 -->
<g id="edge1" class="edge">
<title>Node5&#45;&gt;Node4</title>
<path fill="none" stroke="midnightblue" d="M52.95,-76.67C63.37,-66.31 77.07,-52.71 88.2,-41.66"/>
<polygon fill="midnightblue" stroke="midnightblue" points="50.34,-74.33 45.71,-83.86 55.27,-79.29 50.34,-74.33"/>
</g>
<!-- Node6 -->
<g id="node3" class="node">
<title>Node6</title>
<g id="a_node3"><a xlink:title=" ">
<polygon fill="none" stroke="#bfbfbf" points="92.5,-78.5 92.5,-108.5 265.5,-108.5 265.5,-78.5 92.5,-78.5"/>
<text text-anchor="start" x="100.5" y="-96.5" font-family="Helvetica,sans-Serif" font-size="10.00">IEnumerable&lt; IComponentMeta</text>
<text text-anchor="middle" x="179" y="-85.5" font-family="Helvetica,sans-Serif" font-size="10.00">Data &gt;</text>
</a>
</g>
</g>
<!-- Node6&#45;&gt;Node4 -->
<g id="edge2" class="edge">
<title>Node6&#45;&gt;Node4</title>
<path fill="none" stroke="midnightblue" d="M157.45,-71.1C147.99,-61.71 136.97,-50.76 127.73,-41.59"/>
<polygon fill="midnightblue" stroke="midnightblue" points="155.07,-73.67 164.63,-78.23 160,-68.7 155.07,-73.67"/>
</g>
</g>
</svg>
